<svg viewBox="0 0 1000 375" xmlns="http://www.w3.org/2000/svg">
<g>
<path d="M62.5,62.5 L312.5,62.5 L312.5,312.5 L62.5,312.5 z" fill="none" stroke="black" stroke-width="1"/>
<path d="M143.30583,62.5 L312.5,143.30583 L231.69417,312.5 L62.5,231.69417 z" fill="none" stroke="black" stroke-width="1"/>
<path d="M197.99333,88.618324 L286.38168,197.99333 L177.00667,286.38168 L88.618324,177.00667 z" fill="none" stroke="black" stroke-width="1"/>
<path d="M226.5625,123.97088 L251.02913,226.5625 L148.4375,251.02913 L123.97088,148.4375 z" fill="none" stroke="black" stroke-width="1"/>
<path d="M234.47069,157.13087 L217.86913,234.47069 L140.52931,217.86913 L157.13087,140.52931 z" fill="none" stroke="black" stroke-width="1"/>
<path d="M229.10468,182.1289 L192.8711,229.10468 L145.89532,192.8711 L182.1289,145.89532 z" fill="none" stroke="black" stroke-width="1"/>
<path d="M217.39313,197.31256 L177.68744,217.39313 L157.60687,177.68744 L197.31256,157.60687 z" fill="none" stroke="black" stroke-width="1"/>
<path d="M204.55933,203.80307 L171.19693,204.55933 L170.44067,171.19693 L203.80307,170.44067 z" fill="none" stroke="black" stroke-width="1"/>
<path d="M193.77582,204.04752 L170.95248,193.77582 L181.22418,170.95248 L204.04752,181.22418 z" fill="none" stroke="black" stroke-width="1"/>
<path d="M186.39879,200.72746 L174.27254,186.39879 L188.60121,174.27254 L200.72746,188.60121 z" fill="none" stroke="black" stroke-width="1"/>
<path d="M182.4793,196.0961 L178.9039,182.4793 L192.5207,178.9039 L196.0961,192.5207 z" fill="none" stroke="black" stroke-width="1"/>
<path d="M181.32365,191.69484 L183.30516,181.32365 L193.67635,183.30516 L191.69484,193.67635 z" fill="none" stroke="black" stroke-width="1"/>
<path d="M181.96413,188.34262 L186.65738,181.96413 L193.03587,186.65738 L188.34262,193.03587 z" fill="none" stroke="black" stroke-width="1"/>
<path d="M183.4811,186.28094 L188.71906,183.4811 L191.5189,188.71906 L186.28094,191.5189 z" fill="none" stroke="black" stroke-width="1"/>
<path d="M185.17412,185.37596 L189.62404,185.17412 L189.82588,189.62404 L185.37596,189.82588 z" fill="none" stroke="black" stroke-width="1"/>
<path d="M186.61244,185.31073 L189.68927,186.61244 L188.38756,189.68927 L185.31073,188.38756 z" fill="none" stroke="black" stroke-width="1"/>
<path d="M187.60695,185.73148 L189.26852,187.60695 L187.39305,189.26852 L185.73148,187.39305 z" fill="none" stroke="black" stroke-width="1"/>
<path d="M188.14401,186.33766 L188.66234,188.14401 L186.85599,188.66234 L186.33766,186.85599 z" fill="none" stroke="black" stroke-width="1"/>
<path d="M188.31154,186.92152 L188.07848,188.31154 L186.68846,188.07848 L186.92152,186.68846 z" fill="none" stroke="black" stroke-width="1"/>
<path d="M188.2362,187.3708 L187.6292,188.2362 L186.7638,187.6292 L187.3708,186.7638 z" fill="none" stroke="black" stroke-width="1"/>
</g>
<g>
<path d="M375,62.5 L625,62.5 L625,312.5 L375,312.5 z" fill="none" stroke="black" stroke-width="1"/>
<path d="M391.18448,62.5 L625,78.68446 L608.81555,312.5 L375,296.31552 z" fill="none" stroke="black" stroke-width="1"/>
<path d="M406.3212,63.54775 L623.9523,93.82118 L593.67883,311.45224 L376.04776,281.1788 z" fill="none" stroke="black" stroke-width="1"/>
<path d="M420.41016,65.50758 L621.99243,107.91016 L579.58984,309.4924 L378.0076,267.08984 z" fill="none" stroke="black" stroke-width="1"/>
<path d="M433.46017,68.25264 L619.2474,120.96016 L566.53986,306.74738 L380.75262,254.03984 z" fill="none" stroke="black" stroke-width="1"/>
<path d="M445.48764,71.66481 L615.8352,132.98763 L554.5124,303.3352 L384.1648,242.01237 z" fill="none" stroke="black" stroke-width="1"/>
<path d="M456.51556,75.63472 L611.8653,144.01556 L543.48444,299.3653 L388.1347,230.98444 z" fill="none" stroke="black" stroke-width="1"/>
<path d="M466.57257,80.06155 L607.4385,154.07257 L533.4274,294.93845 L392.56155,220.92743 z" fill="none" stroke="black" stroke-width="1"/>
<path d="M475.69193,84.85287 L602.64716,163.19193 L524.30804,290.14713 L397.35287,211.80807 z" fill="none" stroke="black" stroke-width="1"/>
<path d="M483.91074,89.92437 L597.5756,171.41074 L516.08923,285.07562 L402.42438,203.58926 z" fill="none" stroke="black" stroke-width="1"/>
<path d="M491.26917,95.19962 L592.30035,178.76917 L508.73083,279.80038 L407.69962,196.23083 z" fill="none" stroke="black" stroke-width="1"/>
<path d="M497.80972,100.60973 L586.89026,185.30971 L502.19028,274.39026 L413.10974,189.69029 z" fill="none" stroke="black" stroke-width="1"/>
<path d="M503.5766,106.09303 L581.407,191.0766 L496.4234,268.90698 L418.59302,183.9234 z" fill="none" stroke="black" stroke-width="1"/>
<path d="M508.61517,111.59469 L575.90533,196.11517 L491.38483,263.4053 L424.0947,178.88483 z" fill="none" stroke="black" stroke-width="1"/>
<path d="M512.9714,117.06636 L570.43365,200.47139 L487.02863,257.93362 L429.56638,174.52861 z" fill="none" stroke="black" stroke-width="1"/>
<path d="M516.69135,122.46583 L565.0342,204.19138 L483.30862,252.53418 L434.96582,170.80862 z" fill="none" stroke="black" stroke-width="1"/>
<path d="M519.821,127.75656 L559.7434,207.32098 L480.17902,247.24344 L440.25656,167.67902 z" fill="none" stroke="black" stroke-width="1"/>
<path d="M522.40546,132.9074 L554.5926,209.90547 L477.5945,242.0926 L445.40738,165.09453 z" fill="none" stroke="black" stroke-width="1"/>
<path d="M524.4892,137.89209 L549.6079,211.9892 L475.5108,237.10791 L450.3921,163.0108 z" fill="none" stroke="black" stroke-width="1"/>
<path d="M526.11536,142.68898 L544.81104,213.61533 L473.88467,232.31102 L455.18896,161.38467 z" fill="none" stroke="black" stroke-width="1"/>
<path d="M527.3256,147.2806 L540.2194,214.82565 L472.67435,227.7194 L459.7806,160.17435 z" fill="none" stroke="black" stroke-width="1"/>
<path d="M528.16034,151.65332 L535.8467,215.66037 L471.83963,223.34668 L464.15332,159.33963 z" fill="none" stroke="black" stroke-width="1"/>
<path d="M528.65796,155.797 L531.703,216.15796 L471.34204,219.203 L468.297,158.84204 z" fill="none" stroke="black" stroke-width="1"/>
<path d="M528.8551,159.70464 L527.79535,216.35509 L471.1449,215.29536 L472.20465,158.64491 z" fill="none" stroke="black" stroke-width="1"/>
<path d="M528.7865,163.37207 L524.1279,216.28648 L471.2135,211.62793 L475.87207,158.71352 z" fill="none" stroke="black" stroke-width="1"/>
<path d="M528.4849,166.79764 L520.7024,215.98491 L471.5151,208.20236 L479.29764,159.01509 z" fill="none" stroke="black" stroke-width="1"/>
<path d="M527.9811,169.98192 L517.51807,215.48108 L472.01892,205.01808 L482.4819,159.51892 z" fill="none" stroke="black" stroke-width="1"/>
<path d="M527.3037,172.92743 L514.5726,214.80373 L472.6963,202.07257 L485.42743,160.19627 z" fill="none" stroke="black" stroke-width="1"/>
<path d="M526.47955,175.63841 L511.86157,213.97954 L473.52048,199.36159 L488.13843,161.02046 z" fill="none" stroke="black" stroke-width="1"/>
<path d="M525.5332,178.12053 L509.37946,213.0332 L474.4668,196.87947 L490.62054,161.9668 z" fill="none" stroke="black" stroke-width="1"/>
<path d="M524.4874,180.3807 L507.1193,211.98744 L475.51254,194.6193 L492.8807,163.01256 z" fill="none" stroke="black" stroke-width="1"/>
<path d="M523.36304,182.42686 L505.07315,210.86307 L476.63693,192.57314 L494.92685,164.13693 z" fill="none" stroke="black" stroke-width="1"/>
<path d="M522.179,184.26776 L503.23224,209.67902 L477.82098,190.73224 L496.76776,165.32098 z" fill="none" stroke="black" stroke-width="1"/>
<path d="M520.95245,185.91283 L501.58716,208.45244 L479.04755,189.08717 L498.41284,166.54756 z" fill="none" stroke="black" stroke-width="1"/>
<path d="M519.6988,187.372 L500.128,207.19878 L480.30124,187.628 L499.872,167.80122 z" fill="none" stroke="black" stroke-width="1"/>
<path d="M518.4318,188.65553 L498.84445,205.93181 L481.5682,186.34447 L501.15555,169.06819 z" fill="none" stroke="black" stroke-width="1"/>
<path d="M517.16376,189.77397 L497.72604,204.66376 L482.83624,185.22603 L502.27396,170.33624 z" fill="none" stroke="black" stroke-width="1"/>
<path d="M515.9054,190.7379 L496.7621,203.40541 L484.0946,184.2621 L503.2379,171.59459 z" fill="none" stroke="black" stroke-width="1"/>
<path d="M514.66614,191.55797 L495.94202,202.1661 L485.3339,183.44203 L504.05798,172.8339 z" fill="none" stroke="black" stroke-width="1"/>
<path d="M513.454,192.24472 L495.25528,200.95395 L486.54605,182.75528 L504.74472,174.04605 z" fill="none" stroke="black" stroke-width="1"/>
<path d="M512.2758,192.80853 L494.69147,199.7758 L487.72418,182.19147 L505.30853,175.2242 z" fill="none" stroke="black" stroke-width="1"/>
<path d="M511.13745,193.25958 L494.24042,198.63744 L488.86255,181.74042 L505.75958,176.36256 z" fill="none" stroke="black" stroke-width="1"/>
<path d="M510.04355,193.60773 L493.89227,197.54356 L489.95645,181.39227 L506.10773,177.45644 z" fill="none" stroke="black" stroke-width="1"/>
<path d="M508.99796,193.86253 L493.63748,196.49796 L491.00204,181.13747 L506.36252,178.50204 z" fill="none" stroke="black" stroke-width="1"/>
<path d="M508.00354,194.03314 L493.46686,195.50356 L491.99646,180.96686 L506.53314,179.49644 z" fill="none" stroke="black" stroke-width="1"/>
<path d="M507.06247,194.12833 L493.37167,194.56248 L492.93753,180.87167 L506.62833,180.43752 z" fill="none" stroke="black" stroke-width="1"/>
<path d="M506.17618,194.15643 L493.34357,193.67616 L493.82382,180.84357 L506.65643,181.32384 z" fill="none" stroke="black" stroke-width="1"/>
<path d="M505.3454,194.12535 L493.37466,192.84541 L494.6546,180.87465 L506.62534,182.15459 z" fill="none" stroke="black" stroke-width="1"/>
<path d="M504.57043,194.04248 L493.45752,192.07045 L495.42957,180.95752 L506.54248,182.92955 z" fill="none" stroke="black" stroke-width="1"/>
<path d="M503.851,193.91483 L493.58517,191.35103 L496.149,181.08517 L506.41483,183.64897 z" fill="none" stroke="black" stroke-width="1"/>
<path d="M503.18643,193.74884 L493.75116,190.68643 L496.81357,181.25116 L506.24884,184.31357 z" fill="none" stroke="black" stroke-width="1"/>
<path d="M502.57562,193.5506 L493.9494,190.0756 L497.42438,181.4494 L506.0506,184.9244 z" fill="none" stroke="black" stroke-width="1"/>
<path d="M502.01718,193.32562 L494.17438,189.51717 L497.98282,181.67438 L505.82562,185.48283 z" fill="none" stroke="black" stroke-width="1"/>
<path d="M501.50943,193.07907 L494.42093,189.00945 L498.49057,181.92093 L505.57907,185.99055 z" fill="none" stroke="black" stroke-width="1"/>
<path d="M501.05054,192.81561 L494.6844,188.55055 L498.94946,182.18439 L505.3156,186.44945 z" fill="none" stroke="black" stroke-width="1"/>
<path d="M500.63843,192.5395 L494.96048,188.13841 L499.36157,182.4605 L505.03952,186.86159 z" fill="none" stroke="black" stroke-width="1"/>
<path d="M500.27084,192.2546 L495.24542,187.77084 L499.72916,182.7454 L504.75458,187.22916 z" fill="none" stroke="black" stroke-width="1"/>
<path d="M499.9455,191.96432 L495.53568,187.44551 L500.0545,183.03568 L504.46432,187.55449 z" fill="none" stroke="black" stroke-width="1"/>
<path d="M499.66003,191.67178 L495.82822,187.16002 L500.33997,183.32822 L504.17178,187.83998 z" fill="none" stroke="black" stroke-width="1"/>
<path d="M499.41196,191.3797 L496.1203,186.91196 L500.58804,183.6203 L503.8797,188.08804 z" fill="none" stroke="black" stroke-width="1"/>
<path d="M499.19885,191.09047 L496.40955,186.69887 L500.80115,183.90953 L503.59045,188.30113 z" fill="none" stroke="black" stroke-width="1"/>
<path d="M499.01828,190.80617 L496.69385,186.5183 L500.98172,184.19383 L503.30615,188.4817 z" fill="none" stroke="black" stroke-width="1"/>
<path d="M498.8678,190.52858 L496.97144,186.36781 L501.1322,184.47142 L503.02856,188.63219 z" fill="none" stroke="black" stroke-width="1"/>
<path d="M498.74503,190.25922 L497.24078,186.24504 L501.25497,184.74078 L502.75922,188.75496 z" fill="none" stroke="black" stroke-width="1"/>
<path d="M498.64764,189.99934 L497.50064,186.14766 L501.35236,185.00066 L502.49936,188.85234 z" fill="none" stroke="black" stroke-width="1"/>
<path d="M498.5734,189.75 L497.75,186.07341 L501.4266,185.25 L502.25,188.92659 z" fill="none" stroke="black" stroke-width="1"/>
<path d="M498.5201,189.51198 L497.988,186.0201 L501.4799,185.48802 L502.012,188.9799 z" fill="none" stroke="black" stroke-width="1"/>
<path d="M498.48566,189.28592 L498.21408,185.98566 L501.51434,185.71408 L501.78592,189.01434 z" fill="none" stroke="black" stroke-width="1"/>
<path d="M498.46808,189.07228 L498.42773,185.96806 L501.53192,185.92772 L501.57227,189.03194 z" fill="none" stroke="black" stroke-width="1"/>
<path d="M498.46545,188.8713 L498.6287,185.96545 L501.53455,186.1287 L501.3713,189.03455 z" fill="none" stroke="black" stroke-width="1"/>
<path d="M498.476,188.6832 L498.8168,185.97603 L501.524,186.3168 L501.1832,189.02397 z" fill="none" stroke="black" stroke-width="1"/>
<path d="M498.49808,188.50793 L498.99207,185.9981 L501.50192,186.49207 L501.00793,189.0019 z" fill="none" stroke="black" stroke-width="1"/>
<path d="M498.53006,188.34546 L499.15454,186.03006 L501.46994,186.65454 L500.84546,188.96994 z" fill="none" stroke="black" stroke-width="1"/>
<path d="M498.5705,188.19556 L499.30444,186.0705 L501.4295,186.80444 L500.69556,188.9295 z" fill="none" stroke="black" stroke-width="1"/>
<path d="M498.618,188.05798 L499.44202,186.11801 L501.382,186.94202 L500.55798,188.88199 z" fill="none" stroke="black" stroke-width="1"/>
<path d="M498.67136,187.9324 L499.5676,186.17136 L501.32864,187.0676 L500.4324,188.82864 z" fill="none" stroke="black" stroke-width="1"/>
<path d="M498.72937,187.81839 L499.6816,186.22937 L501.27063,187.18161 L500.3184,188.77063 z" fill="none" stroke="black" stroke-width="1"/>
<path d="M498.79102,187.71553 L499.7845,186.29102 L501.20898,187.28447 L500.2155,188.70898 z" fill="none" stroke="black" stroke-width="1"/>
<path d="M498.85535,187.6233 L499.8767,186.35533 L501.14465,187.3767 L500.1233,188.64467 z" fill="none" stroke="black" stroke-width="1"/>
<path d="M498.92145,187.54121 L499.95877,186.42145 L501.07855,187.45879 L500.04123,188.57855 z" fill="none" stroke="black" stroke-width="1"/>
<path d="M498.98862,187.46873 L500.03128,186.4886 L501.01138,187.53127 L499.96872,188.5114 z" fill="none" stroke="black" stroke-width="1"/>
<path d="M499.05612,187.40527 L500.09473,186.5561 L500.94388,187.59473 L499.90527,188.4439 z" fill="none" stroke="black" stroke-width="1"/>
<path d="M499.12335,187.3503 L500.1497,186.62335 L500.87665,187.6497 L499.8503,188.37665 z" fill="none" stroke="black" stroke-width="1"/>
<path d="M499.1898,187.30324 L500.19675,186.68979 L500.8102,187.69676 L499.80325,188.31021 z" fill="none" stroke="black" stroke-width="1"/>
<path d="M499.25497,187.26353 L500.23648,186.75497 L500.74503,187.73647 L499.76352,188.24503 z" fill="none" stroke="black" stroke-width="1"/>
<path d="M499.3185,187.2306 L500.2694,186.81851 L500.6815,187.7694 L499.7306,188.18149 z" fill="none" stroke="black" stroke-width="1"/>
</g>
<g>
<path d="M687.5,62.5 L937.5,62.5 L937.5,312.5 L687.5,312.5 z" fill="none" stroke="black" stroke-width="1"/>
<path d="M690.01276,62.5 L937.5,65.01276 L934.98724,312.5 L687.5,309.98724 z" fill="none" stroke="black" stroke-width="1"/>
<path d="M692.50024,62.525257 L937.47473,67.50026 L932.49976,312.47473 L687.52527,307.49976 z" fill="none" stroke="black" stroke-width="1"/>
<path d="M694.9625,62.57526 L937.42474,69.9625 L930.0375,312.42474 L687.57526,305.0375 z" fill="none" stroke="black" stroke-width="1"/>
<path d="M697.3995,62.64951 L937.35046,72.39949 L927.6005,312.3505 L687.64954,302.6005 z" fill="none" stroke="black" stroke-width="1"/>
<path d="M699.8112,62.747505 L937.2525,74.81125 L925.1888,312.2525 L687.7475,300.18875 z" fill="none" stroke="black" stroke-width="1"/>
<path d="M702.19775,62.86876 L937.1312,77.19778 L922.80225,312.13123 L687.8688,297.80222 z" fill="none" stroke="black" stroke-width="1"/>
<path d="M704.5591,63.01278 L936.98724,79.5591 L920.4409,311.9872 L688.01276,295.44092 z" fill="none" stroke="black" stroke-width="1"/>
<path d="M706.89526,63.17909 L936.8209,81.89523 L918.10474,311.82092 L688.1791,293.10477 z" fill="none" stroke="black" stroke-width="1"/>
<path d="M709.20624,63.367203 L936.6328,84.20622 L915.79376,311.63278 L688.3672,290.79376 z" fill="none" stroke="black" stroke-width="1"/>
<path d="M711.49207,63.576656 L936.42334,86.492096 L913.50793,311.42334 L688.57666,288.5079 z" fill="none" stroke="black" stroke-width="1"/>
<path d="M713.75287,63.80698 L936.193,88.752884 L911.24713,311.19302 L688.807,286.24713 z" fill="none" stroke="black" stroke-width="1"/>
<path d="M715.98865,64.05772 L935.94226,90.98863 L909.01135,310.9423 L689.05774,284.01135 z" fill="none" stroke="black" stroke-width="1"/>
<path d="M718.1994,64.3284 L935.67163,93.199394 L906.8006,310.6716 L689.32837,281.8006 z" fill="none" stroke="black" stroke-width="1"/>
<path d="M720.3852,64.618576 L935.3814,95.38521 L904.6148,310.3814 L689.6186,279.61478 z" fill="none" stroke="black" stroke-width="1"/>
<path d="M722.54614,64.92782 L935.0722,97.54614 L902.45386,310.07217 L689.9278,277.45386 z" fill="none" stroke="black" stroke-width="1"/>
<path d="M724.68225,65.25566 L934.7443,99.68225 L900.31775,309.74432 L690.2557,275.31775 z" fill="none" stroke="black" stroke-width="1"/>
<path d="M726.7936,65.601685 L934.3983,101.79359 L898.2064,309.39832 L690.6017,273.20642 z" fill="none" stroke="black" stroke-width="1"/>
<path d="M728.88025,65.965454 L934.03455,103.880226 L896.11975,309.03455 L690.96545,271.11978 z" fill="none" stroke="black" stroke-width="1"/>
<path d="M730.94226,66.346535 L933.65344,105.94224 L894.05774,308.65347 L691.34656,269.05777 z" fill="none" stroke="black" stroke-width="1"/>
<path d="M732.9797,66.744514 L933.2555,107.97969 L892.0203,308.2555 L691.7445,267.0203 z" fill="none" stroke="black" stroke-width="1"/>
<path d="M734.9927,67.158966 L932.841,109.99267 L890.0073,307.84103 L692.159,265.00732 z" fill="none" stroke="black" stroke-width="1"/>
<path d="M736.98126,67.58949 L932.4105,111.98125 L888.01874,307.41052 L692.5895,263.01874 z" fill="none" stroke="black" stroke-width="1"/>
<path d="M738.9455,68.035675 L931.96436,113.94551 L886.0545,306.96432 L693.03564,261.05447 z" fill="none" stroke="black" stroke-width="1"/>
<path d="M740.88556,68.497116 L931.50287,115.88555 L884.11444,306.5029 L693.49713,259.11444 z" fill="none" stroke="black" stroke-width="1"/>
<path d="M742.80145,68.97341 L931.0266,117.801445 L882.19855,306.02658 L693.9734,257.19855 z" fill="none" stroke="black" stroke-width="1"/>
<path d="M744.6933,69.46419 L930.5358,119.693306 L880.3067,305.53583 L694.4642,255.3067 z" fill="none" stroke="black" stroke-width="1"/>
<path d="M746.5612,69.96904 L930.03094,121.56121 L878.4388,305.03094 L694.96906,253.4388 z" fill="none" stroke="black" stroke-width="1"/>
<path d="M748.4053,70.487595 L929.5124,123.405266 L876.5947,304.5124 L695.4876,251.59473 z" fill="none" stroke="black" stroke-width="1"/>
<path d="M750.2256,71.01947 L928.9805,125.22558 L874.7744,303.98053 L696.0195,249.77441 z" fill="none" stroke="black" stroke-width="1"/>
<path d="M752.0223,71.5643 L928.4357,127.02225 L872.9777,303.4357 L696.5643,247.97775 z" fill="none" stroke="black" stroke-width="1"/>
<path d="M753.7954,72.121704 L927.8783,128.79538 L871.2046,302.8783 L697.1217,246.20462 z" fill="none" stroke="black" stroke-width="1"/>
<path d="M755.5451,72.69134 L927.30865,130.5451 L869.4549,302.30865 L697.69135,244.4549 z" fill="none" stroke="black" stroke-width="1"/>
<path d="M757.2715,73.27283 L926.7272,132.2715 L867.7285,301.72717 L698.2728,242.7285 z" fill="none" stroke="black" stroke-width="1"/>
<path d="M758.9747,73.86582 L926.13416,133.9747 L866.0253,301.1342 L698.86584,241.0253 z" fill="none" stroke="black" stroke-width="1"/>
<path d="M760.65485,74.46998 L925.53,135.65483 L864.34515,300.53003 L699.47,239.34517 z" fill="none" stroke="black" stroke-width="1"/>
<path d="M762.312,75.084946 L924.91504,137.31198 L862.688,299.91504 L700.08496,237.68802 z" fill="none" stroke="black" stroke-width="1"/>
<path d="M763.9463,75.710396 L924.2896,138.94632 L861.0537,299.2896 L700.7104,236.05368 z" fill="none" stroke="black" stroke-width="1"/>
<path d="M765.5579,76.34598 L923.654,140.55792 L859.4421,298.65402 L701.346,234.44208 z" fill="none" stroke="black" stroke-width="1"/>
<path d="M767.147,76.99138 L923.0086,142.14696 L857.853,298.00864 L701.9914,232.85304 z" fill="none" stroke="black" stroke-width="1"/>
<path d="M768.7135,77.646255 L922.35376,143.71353 L856.2865,297.35373 L702.64624,231.28647 z" fill="none" stroke="black" stroke-width="1"/>
<path d="M770.25775,78.3103 L921.6897,145.25777 L854.74225,296.6897 L703.3103,229.74223 z" fill="none" stroke="black" stroke-width="1"/>
<path d="M771.7798,78.98319 L921.0168,146.77982 L853.2202,296.0168 L703.9832,228.22018 z" fill="none" stroke="black" stroke-width="1"/>
<path d="M773.2798,79.66461 L920.3354,148.2798 L851.7202,295.3354 L704.6646,226.7202 z" fill="none" stroke="black" stroke-width="1"/>
<path d="M774.7579,80.35427 L919.64575,149.75786 L850.2421,294.64572 L705.35425,225.24214 z" fill="none" stroke="black" stroke-width="1"/>
<path d="M776.2141,81.05184 L918.9482,151.21413 L848.7859,293.94815 L706.0518,223.78587 z" fill="none" stroke="black" stroke-width="1"/>
<path d="M777.64874,81.75705 L918.243,152.64876 L847.35126,293.24295 L706.757,222.35124 z" fill="none" stroke="black" stroke-width="1"/>
<path d="M779.0619,82.46958 L917.5304,154.06187 L845.9381,292.53043 L707.4696,220.93813 z" fill="none" stroke="black" stroke-width="1"/>
<path d="M780.4536,83.189156 L916.81085,155.45361 L844.5464,291.81085 L708.18915,219.54639 z" fill="none" stroke="black" stroke-width="1"/>
<path d="M781.82416,83.91549 L916.08453,156.82414 L843.17584,291.0845 L708.91547,218.17586 z" fill="none" stroke="black" stroke-width="1"/>
<path d="M783.1736,84.64829 L915.3517,158.1736 L841.8264,290.3517 L709.6483,216.8264 z" fill="none" stroke="black" stroke-width="1"/>
<path d="M784.50214,85.3873 L914.6127,159.50212 L840.49786,289.6127 L710.3873,215.49788 z" fill="none" stroke="black" stroke-width="1"/>
<path d="M785.8099,86.13223 L913.8678,160.80988 L839.1901,288.86777 L711.1322,214.19012 z" fill="none" stroke="black" stroke-width="1"/>
<path d="M787.097,86.88282 L913.1172,162.09698 L837.903,288.1172 L711.8828,212.90302 z" fill="none" stroke="black" stroke-width="1"/>
<path d="M788.3636,87.638794 L912.3612,163.36362 L836.6364,287.3612 L712.6388,211.63638 z" fill="none" stroke="black" stroke-width="1"/>
<path d="M789.6099,88.39991 L911.6001,164.60992 L835.3901,286.6001 L713.3999,210.39008 z" fill="none" stroke="black" stroke-width="1"/>
<path d="M790.83606,89.16589 L910.8341,165.83604 L834.16394,285.8341 L714.1659,209.16396 z" fill="none" stroke="black" stroke-width="1"/>
<path d="M792.0422,89.93651 L910.0635,167.04214 L832.9578,285.06348 L714.9365,207.95786 z" fill="none" stroke="black" stroke-width="1"/>
<path d="M793.2284,90.7115 L909.2885,168.22838 L831.7716,284.2885 L715.7115,206.77162 z" fill="none" stroke="black" stroke-width="1"/>
<path d="M794.3949,91.49062 L908.5094,169.39491 L830.6051,283.50937 L716.4906,205.60509 z" fill="none" stroke="black" stroke-width="1"/>
<path d="M795.5419,92.27364 L907.7264,170.54187 L829.4581,282.72635 L717.2736,204.45813 z" fill="none" stroke="black" stroke-width="1"/>
<path d="M796.66943,93.06032 L906.9397,171.66945 L828.33057,281.93967 L718.0603,203.33055 z" fill="none" stroke="black" stroke-width="1"/>
<path d="M797.7778,93.85042 L906.1496,172.77777 L827.2222,281.14957 L718.8504,202.22223 z" fill="none" stroke="black" stroke-width="1"/>
<path d="M798.867,94.64372 L905.35626,173.86702 L826.133,280.3563 L719.64374,201.13298 z" fill="none" stroke="black" stroke-width="1"/>
<path d="M799.9373,95.439995 L904.56,174.93735 L825.0627,279.56 L720.44,200.06265 z" fill="none" stroke="black" stroke-width="1"/>
<path d="M800.9889,96.23903 L903.761,175.9889 L824.0111,278.761 L721.239,199.0111 z" fill="none" stroke="black" stroke-width="1"/>
<path d="M802.02185,97.040596 L902.9594,177.02187 L822.97815,277.9594 L722.0406,197.97813 z" fill="none" stroke="black" stroke-width="1"/>
<path d="M803.0364,97.84449 L902.1555,178.03639 L821.9636,277.15552 L722.8445,196.96361 z" fill="none" stroke="black" stroke-width="1"/>
<path d="M804.03265,98.6505 L901.3495,179.03265 L820.96735,276.3495 L723.6505,195.96735 z" fill="none" stroke="black" stroke-width="1"/>
<path d="M805.0108,99.45842 L900.54156,180.01079 L819.9892,275.54156 L724.45844,194.98921 z" fill="none" stroke="black" stroke-width="1"/>
<path d="M805.97095,100.26805 L899.73193,180.97096 L819.02905,274.73193 L725.26807,194.02904 z" fill="none" stroke="black" stroke-width="1"/>
<path d="M806.9133,101.0792 L898.9208,181.91336 L818.0867,273.9208 L726.0792,193.08664 z" fill="none" stroke="black" stroke-width="1"/>
<path d="M807.83813,101.89167 L898.10834,182.83812 L817.16187,273.10834 L726.89166,192.16188 z" fill="none" stroke="black" stroke-width="1"/>
<path d="M808.7454,102.70526 L897.29474,183.74544 L816.2546,272.29474 L727.70526,191.25456 z" fill="none" stroke="black" stroke-width="1"/>
<path d="M809.63544,103.5198 L896.4802,184.63545 L815.36456,271.4802 L728.5198,190.36455 z" fill="none" stroke="black" stroke-width="1"/>
<path d="M810.5083,104.33509 L895.6649,185.50833 L814.4917,270.66492 L729.3351,189.49167 z" fill="none" stroke="black" stroke-width="1"/>
<path d="M811.36426,105.15097 L894.84906,186.36423 L813.63574,269.84903 L730.15094,188.63577 z" fill="none" stroke="black" stroke-width="1"/>
<path d="M812.20337,105.96725 L894.0328,187.20334 L812.79663,269.03275 L730.9672,187.79666 z" fill="none" stroke="black" stroke-width="1"/>
<path d="M813.0258,106.78375 L893.21625,188.02582 L811.9742,268.21625 L731.78375,186.97418 z" fill="none" stroke="black" stroke-width="1"/>
<path d="M813.8318,107.60032 L892.39966,188.8318 L811.1682,267.3997 L732.60034,186.1682 z" fill="none" stroke="black" stroke-width="1"/>
<path d="M814.6215,108.41678 L891.58325,189.62149 L810.3785,266.58322 L733.41675,185.37851 z" fill="none" stroke="black" stroke-width="1"/>
<path d="M815.395,109.23296 L890.767,190.39503 L809.605,265.76703 L734.233,184.60497 z" fill="none" stroke="black" stroke-width="1"/>
<path d="M816.1526,110.04873 L889.9513,191.1526 L808.8474,264.95126 L735.0487,183.8474 z" fill="none" stroke="black" stroke-width="1"/>
<path d="M816.89435,110.86391 L889.1361,191.89436 L808.10565,264.1361 L735.8639,183.10564 z" fill="none" stroke="black" stroke-width="1"/>
<path d="M817.6205,111.678345 L888.32166,192.62045 L807.3795,263.32166 L736.67834,182.37955 z" fill="none" stroke="black" stroke-width="1"/>
<path d="M818.33105,112.4919 L887.5081,193.33109 L806.66895,262.50812 L737.4919,181.66891 z" fill="none" stroke="black" stroke-width="1"/>
<path d="M819.02637,113.30441 L886.6956,194.02638 L805.97363,261.6956 L738.3044,180.97362 z" fill="none" stroke="black" stroke-width="1"/>
<path d="M819.70654,114.11575 L885.8843,194.70653 L805.29346,260.88425 L739.1157,180.29347 z" fill="none" stroke="black" stroke-width="1"/>
<path d="M820.3717,114.925766 L885.0742,195.37167 L804.6283,260.07422 L739.9258,179.62833 z" fill="none" stroke="black" stroke-width="1"/>
<path d="M821.02203,115.73434 L884.2657,196.022 L803.97797,259.26566 L740.7343,178.978 z" fill="none" stroke="black" stroke-width="1"/>
<path d="M821.65765,116.541306 L883.4587,196.65767 L803.34235,258.45868 L741.5413,178.34233 z" fill="none" stroke="black" stroke-width="1"/>
<path d="M822.2788,117.34656 L882.65344,197.27884 L802.7212,257.65344 L742.34656,177.72116 z" fill="none" stroke="black" stroke-width="1"/>
<path d="M822.8857,118.149956 L881.85004,197.88567 L802.1143,256.85004 L743.14996,177.11433 z" fill="none" stroke="black" stroke-width="1"/>
<path d="M823.47833,118.951385 L881.04865,198.47832 L801.52167,256.0486 L743.95135,176.52168 z" fill="none" stroke="black" stroke-width="1"/>
<path d="M824.05695,119.75071 L880.24927,199.05695 L800.94305,255.24928 L744.75073,175.94305 z" fill="none" stroke="black" stroke-width="1"/>
<path d="M824.62177,120.54782 L879.4522,199.62173 L800.37823,254.45218 L745.5478,175.37827 z" fill="none" stroke="black" stroke-width="1"/>
<path d="M825.17285,121.3426 L878.6574,200.17284 L799.82715,253.65741 L746.3426,174.82716 z" fill="none" stroke="black" stroke-width="1"/>
<path d="M825.7104,122.13492 L877.86505,200.71042 L799.2896,252.86508 L747.13495,174.28958 z" fill="none" stroke="black" stroke-width="1"/>
<path d="M826.2346,122.92468 L877.0753,201.23462 L798.7654,252.07532 L747.9247,173.76538 z" fill="none" stroke="black" stroke-width="1"/>
<path d="M826.7456,123.71178 L876.2882,201.74562 L798.2544,251.28822 L748.7118,173.25438 z" fill="none" stroke="black" stroke-width="1"/>
<path d="M827.2436,124.4961 L875.5039,202.24358 L797.7564,250.5039 L749.4961,172.75642 z" fill="none" stroke="black" stroke-width="1"/>
<path d="M827.72864,125.27754 L874.7225,202.72865 L797.27136,249.72246 L750.2775,172.27135 z" fill="none" stroke="black" stroke-width="1"/>
<path d="M828.201,126.056 L873.944,203.20099 L796.799,248.944 L751.056,171.79901 z" fill="none" stroke="black" stroke-width="1"/>
<path d="M828.66077,126.83139 L873.16864,203.66075 L796.33923,248.16861 L751.83136,171.33925 z" fill="none" stroke="black" stroke-width="1"/>
<path d="M829.1081,127.6036 L872.3964,204.1081 L795.8919,247.3964 L752.6036,170.8919 z" fill="none" stroke="black" stroke-width="1"/>
<path d="M829.5432,128.37254 L871.62744,204.54318 L795.4568,246.62746 L753.37256,170.45682 z" fill="none" stroke="black" stroke-width="1"/>
<path d="M829.9662,129.13814 L870.8619,204.96617 L795.0338,245.86186 L754.1381,170.03383 z" fill="none" stroke="black" stroke-width="1"/>
<path d="M830.3772,129.9003 L870.09973,205.37723 L794.6228,245.0997 L754.90027,169.62277 z" fill="none" stroke="black" stroke-width="1"/>
<path d="M830.7765,130.65892 L869.34106,205.77647 L794.2235,244.34108 L755.65894,169.22353 z" fill="none" stroke="black" stroke-width="1"/>
<path d="M831.16406,131.41393 L868.58606,206.1641 L793.83594,243.58607 L756.41394,168.8359 z" fill="none" stroke="black" stroke-width="1"/>
<path d="M831.5402,132.16524 L867.8348,206.54022 L793.4598,242.83476 L757.1652,168.45978 z" fill="none" stroke="black" stroke-width="1"/>
<path d="M831.905,132.91278 L867.0872,206.90501 L793.095,242.08722 L757.9128,168.09499 z" fill="none" stroke="black" stroke-width="1"/>
<path d="M832.2586,133.65648 L866.3435,207.25864 L792.7414,241.34352 L758.6565,167.74136 z" fill="none" stroke="black" stroke-width="1"/>
<path d="M832.6012,134.39626 L865.60376,207.60121 L792.3988,240.60374 L759.39624,167.39879 z" fill="none" stroke="black" stroke-width="1"/>
<path d="M832.9329,135.13203 L864.868,207.93292 L792.0671,239.86797 L760.132,167.06708 z" fill="none" stroke="black" stroke-width="1"/>
<path d="M833.2539,135.86377 L864.1362,208.2539 L791.7461,239.13623 L760.8638,166.7461 z" fill="none" stroke="black" stroke-width="1"/>
<path d="M833.56433,136.59135 L863.4086,208.5643 L791.43567,238.40865 L761.5914,166.4357 z" fill="none" stroke="black" stroke-width="1"/>
<path d="M833.86426,137.31476 L862.68524,208.86427 L791.13574,237.68524 L762.31476,166.13573 z" fill="none" stroke="black" stroke-width="1"/>
<path d="M834.15393,138.0339 L861.96606,209.15395 L790.84607,236.9661 L763.03394,165.84605 z" fill="none" stroke="black" stroke-width="1"/>
<path d="M834.4335,138.74873 L861.2513,209.43349 L790.5665,236.25127 L763.7487,165.56651 z" fill="none" stroke="black" stroke-width="1"/>
<path d="M834.70306,139.45918 L860.54083,209.70303 L790.29694,235.54082 L764.45917,165.29697 z" fill="none" stroke="black" stroke-width="1"/>
<path d="M834.9627,140.1652 L859.8348,209.96274 L790.0373,234.8348 L765.1652,165.03726 z" fill="none" stroke="black" stroke-width="1"/>
<path d="M835.2127,140.86674 L859.13324,210.21272 L789.7873,234.13326 L765.86676,164.78728 z" fill="none" stroke="black" stroke-width="1"/>
<path d="M835.4531,141.56375 L858.4363,210.45316 L789.5469,233.43625 L766.5637,164.54684 z" fill="none" stroke="black" stroke-width="1"/>
<path d="M835.68414,142.25615 L857.74384,210.68416 L789.31586,232.74385 L767.25616,164.31584 z" fill="none" stroke="black" stroke-width="1"/>
<path d="M835.9059,142.94392 L857.0561,210.90588 L789.0941,232.05608 L767.9439,164.09412 z" fill="none" stroke="black" stroke-width="1"/>
<path d="M836.11847,143.62701 L856.373,211.11845 L788.88153,231.37299 L768.627,163.88155 z" fill="none" stroke="black" stroke-width="1"/>
<path d="M836.322,144.30537 L855.69464,211.32204 L788.678,230.69463 L769.30536,163.67796 z" fill="none" stroke="black" stroke-width="1"/>
<path d="M836.5167,144.97896 L855.02106,211.51675 L788.4833,230.02104 L769.97894,163.48325 z" fill="none" stroke="black" stroke-width="1"/>
<path d="M836.70276,145.64774 L854.3523,211.70274 L788.29724,229.35226 L770.6477,163.29726 z" fill="none" stroke="black" stroke-width="1"/>
<path d="M836.8801,146.31165 L853.68835,211.88013 L788.1199,228.68835 L771.31165,163.11987 z" fill="none" stroke="black" stroke-width="1"/>
<path d="M837.0491,146.97069 L853.0293,212.04907 L787.9509,228.02931 L771.9707,162.95093 z" fill="none" stroke="black" stroke-width="1"/>
<path d="M837.2097,147.62479 L852.3752,212.20969 L787.7903,227.37521 L772.6248,162.79031 z" fill="none" stroke="black" stroke-width="1"/>
<path d="M837.3621,148.27393 L851.7261,212.36212 L787.6379,226.72607 L773.2739,162.63788 z" fill="none" stroke="black" stroke-width="1"/>
<path d="M837.5065,148.91808 L851.0819,212.50648 L787.4935,226.08192 L773.9181,162.49352 z" fill="none" stroke="black" stroke-width="1"/>
<path d="M837.64294,149.5572 L850.4428,212.64294 L787.35706,225.4428 L774.5572,162.35706 z" fill="none" stroke="black" stroke-width="1"/>
<path d="M837.7716,150.19128 L849.8087,212.77159 L787.2284,224.80872 L775.1913,162.22841 z" fill="none" stroke="black" stroke-width="1"/>
<path d="M837.8926,150.82028 L849.1797,212.89258 L787.1074,224.17972 L775.8203,162.10742 z" fill="none" stroke="black" stroke-width="1"/>
<path d="M838.00604,151.44417 L848.55585,213.00603 L786.99396,223.55583 L776.44415,161.99397 z" fill="none" stroke="black" stroke-width="1"/>
<path d="M838.11206,152.06293 L847.9371,213.11206 L786.88794,222.93707 L777.0629,161.88794 z" fill="none" stroke="black" stroke-width="1"/>
<path d="M838.2108,152.67654 L847.3235,213.21082 L786.7892,222.32346 L777.6765,161.78918 z" fill="none" stroke="black" stroke-width="1"/>
<path d="M838.3024,153.28497 L846.715,213.3024 L786.6976,221.71503 L778.285,161.6976 z" fill="none" stroke="black" stroke-width="1"/>
<path d="M838.38696,153.88821 L846.1118,213.38696 L786.61304,221.11179 L778.8882,161.61304 z" fill="none" stroke="black" stroke-width="1"/>
<path d="M838.4646,154.48624 L845.5138,213.4646 L786.5354,220.51376 L779.4862,161.5354 z" fill="none" stroke="black" stroke-width="1"/>
<path d="M838.53546,155.07903 L844.92096,213.53545 L786.46454,219.92097 L780.07904,161.46455 z" fill="none" stroke="black" stroke-width="1"/>
<path d="M838.5996,155.66656 L844.33344,213.59964 L786.4004,219.33344 L780.66656,161.40036 z" fill="none" stroke="black" stroke-width="1"/>
<path d="M838.6573,156.24886 L843.75116,213.65726 L786.3427,218.75114 L781.24884,161.34274 z" fill="none" stroke="black" stroke-width="1"/>
<path d="M838.70844,156.82587 L843.17413,213.70847 L786.29156,218.17413 L781.82587,161.29153 z" fill="none" stroke="black" stroke-width="1"/>
<path d="M838.75336,157.3976 L842.6024,213.75334 L786.24664,217.6024 L782.3976,161.24666 z" fill="none" stroke="black" stroke-width="1"/>
<path d="M838.79205,157.96404 L842.03595,213.79204 L786.20795,217.03596 L782.96405,161.20796 z" fill="none" stroke="black" stroke-width="1"/>
<path d="M838.82465,158.52516 L841.47485,213.82465 L786.17535,216.47484 L783.52515,161.17535 z" fill="none" stroke="black" stroke-width="1"/>
<path d="M838.85126,159.08098 L840.919,213.85127 L786.14874,215.91902 L784.081,161.14873 z" fill="none" stroke="black" stroke-width="1"/>
<path d="M838.8721,159.63147 L840.3685,213.87206 L786.1279,215.36853 L784.6315,161.12794 z" fill="none" stroke="black" stroke-width="1"/>
<path d="M838.8871,160.17665 L839.82336,213.8871 L786.1129,214.82335 L785.17664,161.1129 z" fill="none" stroke="black" stroke-width="1"/>
<path d="M838.8965,160.71649 L839.2835,213.89651 L786.1035,214.28351 L785.7165,161.10349 z" fill="none" stroke="black" stroke-width="1"/>
<path d="M838.9004,161.251 L838.749,213.9004 L786.0996,213.749 L786.251,161.0996 z" fill="none" stroke="black" stroke-width="1"/>
<path d="M838.89886,161.78018 L838.2198,213.89888 L786.10114,213.21982 L786.7802,161.10112 z" fill="none" stroke="black" stroke-width="1"/>
<path d="M838.892,162.30403 L837.696,213.89206 L786.108,212.69597 L787.304,161.10794 z" fill="none" stroke="black" stroke-width="1"/>
<path d="M838.88,162.82254 L837.1774,213.88004 L786.12,212.17746 L787.8226,161.11996 z" fill="none" stroke="black" stroke-width="1"/>
<path d="M838.8629,163.33572 L836.66425,213.86292 L786.1371,211.66428 L788.33575,161.13708 z" fill="none" stroke="black" stroke-width="1"/>
<path d="M838.8408,163.84358 L836.15643,213.84082 L786.1592,211.15642 L788.84357,161.15918 z" fill="none" stroke="black" stroke-width="1"/>
<path d="M838.81384,164.3461 L835.65393,213.81384 L786.18616,210.6539 L789.34607,161.18616 z" fill="none" stroke="black" stroke-width="1"/>
<path d="M838.7821,164.84329 L835.1567,213.78207 L786.2179,210.15671 L789.8433,161.21793 z" fill="none" stroke="black" stroke-width="1"/>
<path d="M838.74567,165.33519 L834.6648,213.74564 L786.25433,209.66481 L790.3352,161.25436 z" fill="none" stroke="black" stroke-width="1"/>
<path d="M838.70465,165.82176 L834.1782,213.70462 L786.29535,209.17824 L790.8218,161.29538 z" fill="none" stroke="black" stroke-width="1"/>
<path d="M838.6591,166.30302 L833.69696,213.65913 L786.3409,208.69698 L791.30304,161.34087 z" fill="none" stroke="black" stroke-width="1"/>
<path d="M838.60925,166.779 L833.221,213.60925 L786.39075,208.221 L791.779,161.39075 z" fill="none" stroke="black" stroke-width="1"/>
<path d="M838.5551,167.2497 L832.7503,213.5551 L786.4449,207.7503 L792.2497,161.4449 z" fill="none" stroke="black" stroke-width="1"/>
<path d="M838.49677,167.71512 L832.2849,213.49675 L786.50323,207.28488 L792.7151,161.50325 z" fill="none" stroke="black" stroke-width="1"/>
<path d="M838.4343,168.17526 L831.8247,213.43431 L786.5657,206.82474 L793.1753,161.56569 z" fill="none" stroke="black" stroke-width="1"/>
<path d="M838.36786,168.63017 L831.3698,213.36789 L786.63214,206.36983 L793.6302,161.63211 z" fill="none" stroke="black" stroke-width="1"/>
<path d="M838.29755,169.07983 L830.92017,213.29755 L786.70245,205.92017 L794.07983,161.70245 z" fill="none" stroke="black" stroke-width="1"/>
<path d="M838.2234,169.52426 L830.4757,213.22339 L786.7766,205.47574 L794.5243,161.77661 z" fill="none" stroke="black" stroke-width="1"/>
<path d="M838.1455,169.96349 L830.0365,213.14552 L786.8545,205.03651 L794.9635,161.85448 z" fill="none" stroke="black" stroke-width="1"/>
<path d="M838.064,170.3975 L829.6025,213.06403 L786.936,204.6025 L795.3975,161.93597 z" fill="none" stroke="black" stroke-width="1"/>
<path d="M837.97894,170.82635 L829.17365,212.97897 L787.02106,204.17365 L795.82635,162.02103 z" fill="none" stroke="black" stroke-width="1"/>
<path d="M837.89044,171.25003 L828.75,212.89047 L787.10956,203.74997 L796.25,162.10953 z" fill="none" stroke="black" stroke-width="1"/>
<path d="M837.7986,171.66855 L828.3314,212.7986 L787.2014,203.33145 L796.6686,162.2014 z" fill="none" stroke="black" stroke-width="1"/>
<path d="M837.7034,172.08195 L827.918,212.70345 L787.2966,202.91805 L797.082,162.29655 z" fill="none" stroke="black" stroke-width="1"/>
<path d="M837.6051,172.49023 L827.50977,212.60509 L787.3949,202.50977 L797.49023,162.39491 z" fill="none" stroke="black" stroke-width="1"/>
<path d="M837.5036,172.89343 L827.10657,212.50362 L787.4964,202.10657 L797.89343,162.49638 z" fill="none" stroke="black" stroke-width="1"/>
<path d="M837.3991,173.29156 L826.70844,212.39912 L787.6009,201.70844 L798.29156,162.60088 z" fill="none" stroke="black" stroke-width="1"/>
<path d="M837.2917,173.68463 L826.31537,212.29167 L787.7083,201.31537 L798.68463,162.70833 z" fill="none" stroke="black" stroke-width="1"/>
<path d="M837.18134,174.07268 L825.9273,212.18135 L787.81866,200.92732 L799.0727,162.81865 z" fill="none" stroke="black" stroke-width="1"/>
<path d="M837.06824,174.4557 L825.5443,212.06824 L787.93176,200.5443 L799.4557,162.93176 z" fill="none" stroke="black" stroke-width="1"/>
<path d="M836.9524,174.83374 L825.16626,211.95241 L788.0476,200.16626 L799.83374,163.04759 z" fill="none" stroke="black" stroke-width="1"/>
<path d="M836.8339,175.20683 L824.79315,211.83394 L788.1661,199.79317 L800.20685,163.16606 z" fill="none" stroke="black" stroke-width="1"/>
<path d="M836.7129,175.57497 L824.42505,211.71292 L788.2871,199.42503 L800.57495,163.28708 z" fill="none" stroke="black" stroke-width="1"/>
<path d="M836.5894,175.93819 L824.0618,211.58942 L788.4106,199.06181 L800.9382,163.41058 z" fill="none" stroke="black" stroke-width="1"/>
<path d="M836.4635,176.29652 L823.7035,211.4635 L788.5365,198.70348 L801.2965,163.5365 z" fill="none" stroke="black" stroke-width="1"/>
<path d="M836.33527,176.64998 L823.35004,211.33525 L788.66473,198.35002 L801.64996,163.66475 z" fill="none" stroke="black" stroke-width="1"/>
<path d="M836.2047,176.99861 L823.0014,211.20473 L788.7953,198.00139 L801.9986,163.79527 z" fill="none" stroke="black" stroke-width="1"/>
<path d="M836.072,177.3424 L822.6576,211.07202 L788.928,197.6576 L802.3424,163.92798 z" fill="none" stroke="black" stroke-width="1"/>
<path d="M835.9372,177.68143 L822.31854,210.9372 L789.0628,197.31857 L802.68146,164.0628 z" fill="none" stroke="black" stroke-width="1"/>
<path d="M835.8003,178.01569 L821.9843,210.80031 L789.1997,196.98431 L803.0157,164.19969 z" fill="none" stroke="black" stroke-width="1"/>
<path d="M835.66144,178.3452 L821.6548,210.66145 L789.33856,196.6548 L803.3452,164.33855 z" fill="none" stroke="black" stroke-width="1"/>
<path d="M835.5207,178.67001 L821.32996,210.52068 L789.4793,196.32999 L803.67004,164.47932 z" fill="none" stroke="black" stroke-width="1"/>
<path d="M835.37805,178.99014 L821.0098,210.37804 L789.62195,196.00986 L803.9902,164.62196 z" fill="none" stroke="black" stroke-width="1"/>
<path d="M835.23364,179.30563 L820.6944,210.23363 L789.76636,195.69437 L804.3056,164.76637 z" fill="none" stroke="black" stroke-width="1"/>
<path d="M835.08746,179.61649 L820.3835,210.0875 L789.91254,195.38351 L804.6165,164.9125 z" fill="none" stroke="black" stroke-width="1"/>
<path d="M834.9397,179.92274 L820.0773,209.9397 L790.0603,195.07726 L804.9227,165.0603 z" fill="none" stroke="black" stroke-width="1"/>
<path d="M834.79034,180.22446 L819.7756,209.79031 L790.20966,194.77554 L805.2244,165.20969 z" fill="none" stroke="black" stroke-width="1"/>
<path d="M834.6394,180.52162 L819.4784,209.6394 L790.3606,194.47838 L805.5216,165.3606 z" fill="none" stroke="black" stroke-width="1"/>
<path d="M834.487,180.81429 L819.1857,209.48701 L790.513,194.18571 L805.8143,165.51299 z" fill="none" stroke="black" stroke-width="1"/>
<path d="M834.33325,181.10248 L818.8975,209.33322 L790.66675,193.89752 L806.1025,165.66678 z" fill="none" stroke="black" stroke-width="1"/>
<path d="M834.1781,181.38622 L818.6138,209.17809 L790.8219,193.61378 L806.3862,165.82191 z" fill="none" stroke="black" stroke-width="1"/>
<path d="M834.02167,181.66556 L818.3345,209.02164 L790.97833,193.33444 L806.6655,165.97836 z" fill="none" stroke="black" stroke-width="1"/>
<path d="M833.86395,181.94052 L818.0595,208.86397 L791.13605,193.05948 L806.9405,166.13603 z" fill="none" stroke="black" stroke-width="1"/>
<path d="M833.70514,182.21112 L817.7889,208.70512 L791.29486,192.78888 L807.2111,166.29488 z" fill="none" stroke="black" stroke-width="1"/>
<path d="M833.54517,182.47742 L817.5226,208.54515 L791.45483,192.52258 L807.4774,166.45485 z" fill="none" stroke="black" stroke-width="1"/>
<path d="M833.3841,182.73943 L817.26056,208.3841 L791.6159,192.26057 L807.73944,166.6159 z" fill="none" stroke="black" stroke-width="1"/>
<path d="M833.22205,182.99718 L817.0028,208.22205 L791.77795,192.00282 L807.9972,166.77795 z" fill="none" stroke="black" stroke-width="1"/>
<path d="M833.059,183.25072 L816.74927,208.05902 L791.941,191.74928 L808.25073,166.94098 z" fill="none" stroke="black" stroke-width="1"/>
<path d="M832.8951,183.50006 L816.49994,207.8951 L792.1049,191.49994 L808.50006,167.1049 z" fill="none" stroke="black" stroke-width="1"/>
<path d="M832.7303,183.74525 L816.25476,207.7303 L792.2697,191.25475 L808.74524,167.2697 z" fill="none" stroke="black" stroke-width="1"/>
<path d="M832.5647,183.98633 L816.0137,207.56471 L792.4353,191.01367 L808.9863,167.43529 z" fill="none" stroke="black" stroke-width="1"/>
<path d="M832.3984,184.22331 L815.7767,207.39836 L792.6016,190.77669 L809.2233,167.60164 z" fill="none" stroke="black" stroke-width="1"/>
<path d="M832.23126,184.45625 L815.54376,207.2313 L792.76874,190.54375 L809.45624,167.7687 z" fill="none" stroke="black" stroke-width="1"/>
<path d="M832.06354,184.68517 L815.3148,207.06357 L792.93646,190.31483 L809.6852,167.93643 z" fill="none" stroke="black" stroke-width="1"/>
<path d="M831.8952,184.9101 L815.0899,206.89522 L793.1048,190.0899 L809.9101,168.10478 z" fill="none" stroke="black" stroke-width="1"/>
<path d="M831.7263,185.13106 L814.86896,206.72632 L793.2737,189.86894 L810.13104,168.27368 z" fill="none" stroke="black" stroke-width="1"/>
<path d="M831.5569,185.34811 L814.65186,206.55688 L793.4431,189.65189 L810.34814,168.44312 z" fill="none" stroke="black" stroke-width="1"/>
<path d="M831.38696,185.56128 L814.4387,206.38696 L793.61304,189.43872 L810.5613,168.61304 z" fill="none" stroke="black" stroke-width="1"/>
<path d="M831.2166,185.7706 L814.2294,206.21661 L793.7834,189.2294 L810.7706,168.78339 z" fill="none" stroke="black" stroke-width="1"/>
<path d="M831.0459,185.9761 L814.02386,206.04588 L793.9541,189.0239 L810.97614,168.95412 z" fill="none" stroke="black" stroke-width="1"/>
<path d="M830.8748,186.17783 L813.82214,205.87479 L794.1252,188.82217 L811.17786,169.12521 z" fill="none" stroke="black" stroke-width="1"/>
<path d="M830.70337,186.37581 L813.6242,205.7034 L794.29663,188.62419 L811.3758,169.2966 z" fill="none" stroke="black" stroke-width="1"/>
<path d="M830.53174,186.57007 L813.42993,205.53172 L794.46826,188.42993 L811.57007,169.46828 z" fill="none" stroke="black" stroke-width="1"/>
<path d="M830.35986,186.76065 L813.2393,205.35983 L794.64014,188.23935 L811.7607,169.64017 z" fill="none" stroke="black" stroke-width="1"/>
<path d="M830.18774,186.94759 L813.0524,205.18776 L794.81226,188.05241 L811.9476,169.81224 z" fill="none" stroke="black" stroke-width="1"/>
<path d="M830.01556,187.13092 L812.8691,205.01553 L794.98444,187.86908 L812.1309,169.98447 z" fill="none" stroke="black" stroke-width="1"/>
<path d="M829.8432,187.31068 L812.68933,204.8432 L795.1568,187.68932 L812.31067,170.1568 z" fill="none" stroke="black" stroke-width="1"/>
<path d="M829.6708,187.48691 L812.5131,204.67078 L795.3292,187.51309 L812.4869,170.32922 z" fill="none" stroke="black" stroke-width="1"/>
<path d="M829.49835,187.65962 L812.3404,204.49832 L795.50165,187.34038 L812.6596,170.50168 z" fill="none" stroke="black" stroke-width="1"/>
<path d="M829.32587,187.82886 L812.17114,204.32587 L795.67413,187.17114 L812.82886,170.67413 z" fill="none" stroke="black" stroke-width="1"/>
<path d="M829.15344,187.99467 L812.0053,204.15346 L795.84656,187.00533 L812.9947,170.84654 z" fill="none" stroke="black" stroke-width="1"/>
<path d="M828.9811,188.15709 L811.8429,203.9811 L796.0189,186.84291 L813.1571,171.0189 z" fill="none" stroke="black" stroke-width="1"/>
<path d="M828.80884,188.31613 L811.68384,203.80884 L796.19116,186.68387 L813.31616,171.19116 z" fill="none" stroke="black" stroke-width="1"/>
<path d="M828.6367,188.47185 L811.52814,203.63672 L796.3633,186.52815 L813.47186,171.36328 z" fill="none" stroke="black" stroke-width="1"/>
<path d="M828.4648,188.62428 L811.37573,203.46475 L796.5352,186.37572 L813.62427,171.53525 z" fill="none" stroke="black" stroke-width="1"/>
<path d="M828.29297,188.77344 L811.22656,203.293 L796.70703,186.22656 L813.77344,171.707 z" fill="none" stroke="black" stroke-width="1"/>
<path d="M828.12146,188.91937 L811.0806,203.12146 L796.87854,186.08063 L813.9194,171.87854 z" fill="none" stroke="black" stroke-width="1"/>
<path d="M827.9502,189.06212 L810.93787,202.95018 L797.0498,185.93788 L814.06213,172.04982 z" fill="none" stroke="black" stroke-width="1"/>
<path d="M827.7792,189.2017 L810.7983,202.77919 L797.2208,185.7983 L814.2017,172.22081 z" fill="none" stroke="black" stroke-width="1"/>
<path d="M827.6085,189.33818 L810.6618,202.60852 L797.3915,185.66182 L814.3382,172.39148 z" fill="none" stroke="black" stroke-width="1"/>
<path d="M827.4382,189.47156 L810.52844,202.43819 L797.5618,185.52844 L814.47156,172.56181 z" fill="none" stroke="black" stroke-width="1"/>
<path d="M827.26825,189.60188 L810.39813,202.26822 L797.73175,185.39812 L814.60187,172.73178 z" fill="none" stroke="black" stroke-width="1"/>
<path d="M827.09863,189.72919 L810.2708,202.09866 L797.90137,185.27081 L814.7292,172.90134 z" fill="none" stroke="black" stroke-width="1"/>
<path d="M826.9295,189.85352 L810.1465,201.92952 L798.0705,185.14648 L814.8535,173.07048 z" fill="none" stroke="black" stroke-width="1"/>
<path d="M826.76086,189.9749 L810.0251,201.76083 L798.23914,185.0251 L814.9749,173.23917 z" fill="none" stroke="black" stroke-width="1"/>
<path d="M826.59265,190.09335 L809.9066,201.59262 L798.40735,184.90665 L815.0934,173.40738 z" fill="none" stroke="black" stroke-width="1"/>
<path d="M826.4249,190.20894 L809.7911,201.42491 L798.5751,184.79106 L815.2089,173.57509 z" fill="none" stroke="black" stroke-width="1"/>
<path d="M826.25775,190.32167 L809.67834,201.25772 L798.74225,184.67833 L815.32166,173.74228 z" fill="none" stroke="black" stroke-width="1"/>
<path d="M826.09106,190.4316 L809.5684,201.09108 L798.90894,184.5684 L815.4316,173.90892 z" fill="none" stroke="black" stroke-width="1"/>
<path d="M825.925,190.53873 L809.4613,200.92502 L799.075,184.46127 L815.5387,174.07498 z" fill="none" stroke="black" stroke-width="1"/>
<path d="M825.7595,190.64311 L809.3569,200.75954 L799.2405,184.35689 L815.6431,174.24046 z" fill="none" stroke="black" stroke-width="1"/>
<path d="M825.59467,190.7448 L809.2552,200.59468 L799.40533,184.2552 L815.7448,174.40532 z" fill="none" stroke="black" stroke-width="1"/>
<path d="M825.4304,190.8438 L809.1562,200.43045 L799.5696,184.1562 L815.8438,174.56955 z" fill="none" stroke="black" stroke-width="1"/>
<path d="M825.26685,190.94016 L809.0598,200.26688 L799.73315,184.05984 L815.9402,174.73312 z" fill="none" stroke="black" stroke-width="1"/>
<path d="M825.104,191.0339 L808.9661,200.10397 L799.896,183.9661 L816.0339,174.89603 z" fill="none" stroke="black" stroke-width="1"/>
<path d="M824.9418,191.12506 L808.87494,199.94177 L800.0582,183.87494 L816.12506,175.05823 z" fill="none" stroke="black" stroke-width="1"/>
<path d="M824.7803,191.21368 L808.7863,199.78029 L800.2197,183.78632 L816.2137,175.21971 z" fill="none" stroke="black" stroke-width="1"/>
<path d="M824.6195,191.29979 L808.7002,199.61954 L800.3805,183.70021 L816.2998,175.38046 z" fill="none" stroke="black" stroke-width="1"/>
<path d="M824.45953,191.3834 L808.6166,199.45953 L800.54047,183.6166 L816.3834,175.54047 z" fill="none" stroke="black" stroke-width="1"/>
<path d="M824.3003,191.46458 L808.5354,199.3003 L800.6997,183.53542 L816.4646,175.6997 z" fill="none" stroke="black" stroke-width="1"/>
<path d="M824.14185,191.54333 L808.45667,199.14183 L800.85815,183.45667 L816.54333,175.85817 z" fill="none" stroke="black" stroke-width="1"/>
<path d="M823.9842,191.6197 L808.3803,198.98418 L801.0158,183.3803 L816.6197,176.01582 z" fill="none" stroke="black" stroke-width="1"/>
<path d="M823.82733,191.69373 L808.3063,198.82735 L801.17267,183.30627 L816.6937,176.17265 z" fill="none" stroke="black" stroke-width="1"/>
<path d="M823.6713,191.76543 L808.23456,198.67134 L801.3287,183.23457 L816.76544,176.32866 z" fill="none" stroke="black" stroke-width="1"/>
<path d="M823.5162,191.83484 L808.16516,198.51619 L801.4838,183.16516 L816.83484,176.48381 z" fill="none" stroke="black" stroke-width="1"/>
<path d="M823.3619,191.902 L808.098,198.3619 L801.6381,183.098 L816.902,176.6381 z" fill="none" stroke="black" stroke-width="1"/>
<path d="M823.2085,191.96692 L808.0331,198.20848 L801.7915,183.03308 L816.9669,176.79152 z" fill="none" stroke="black" stroke-width="1"/>
<path d="M823.05597,192.02966 L807.97034,198.05595 L801.94403,182.97034 L817.02966,176.94405 z" fill="none" stroke="black" stroke-width="1"/>
<path d="M822.9043,192.09023 L807.9098,197.90433 L802.0957,182.90977 L817.0902,177.09567 z" fill="none" stroke="black" stroke-width="1"/>
<path d="M822.7536,192.14867 L807.8513,197.75362 L802.2464,182.85133 L817.1487,177.24638 z" fill="none" stroke="black" stroke-width="1"/>
<path d="M822.6038,192.205 L807.795,197.60384 L802.3962,182.795 L817.205,177.39616 z" fill="none" stroke="black" stroke-width="1"/>
<path d="M822.455,192.25926 L807.7407,197.45499 L802.545,182.74074 L817.2593,177.54501 z" fill="none" stroke="black" stroke-width="1"/>
<path d="M822.30707,192.3115 L807.68854,197.3071 L802.69293,182.6885 L817.31146,177.6929 z" fill="none" stroke="black" stroke-width="1"/>
<path d="M822.16016,192.3617 L807.6383,197.16016 L802.83984,182.6383 L817.3617,177.83984 z" fill="none" stroke="black" stroke-width="1"/>
<path d="M822.0142,192.40993 L807.5901,197.0142 L802.9858,182.59007 L817.4099,177.9858 z" fill="none" stroke="black" stroke-width="1"/>
<path d="M821.8692,192.4562 L807.5438,196.86923 L803.1308,182.5438 L817.4562,178.13077 z" fill="none" stroke="black" stroke-width="1"/>
<path d="M821.7252,192.50056 L807.49945,196.72523 L803.2748,182.49944 L817.50055,178.27477 z" fill="none" stroke="black" stroke-width="1"/>
<path d="M821.5823,192.54303 L807.457,196.58226 L803.4177,182.45697 L817.543,178.41774 z" fill="none" stroke="black" stroke-width="1"/>
<path d="M821.4403,192.58362 L807.4164,196.44028 L803.5597,182.41638 L817.5836,178.55972 z" fill="none" stroke="black" stroke-width="1"/>
<path d="M821.2993,192.62239 L807.3776,196.29933 L803.7007,182.37761 L817.6224,178.70067 z" fill="none" stroke="black" stroke-width="1"/>
<path d="M821.1594,192.65935 L807.34064,196.15941 L803.8406,182.34065 L817.65936,178.84059 z" fill="none" stroke="black" stroke-width="1"/>
<path d="M821.0205,192.69452 L807.3055,196.02051 L803.9795,182.30548 L817.6945,178.97949 z" fill="none" stroke="black" stroke-width="1"/>
<path d="M820.8826,192.72795 L807.27203,195.88266 L804.1174,182.27205 L817.72797,179.11734 z" fill="none" stroke="black" stroke-width="1"/>
<path d="M820.74585,192.75966 L807.24036,195.74586 L804.25415,182.24034 L817.75964,179.25414 z" fill="none" stroke="black" stroke-width="1"/>
<path d="M820.6101,192.78967 L807.2103,195.6101 L804.3899,182.21033 L817.7897,179.3899 z" fill="none" stroke="black" stroke-width="1"/>
<path d="M820.4754,192.81802 L807.182,195.47543 L804.5246,182.18198 L817.818,179.52457 z" fill="none" stroke="black" stroke-width="1"/>
<path d="M820.3418,192.84473 L807.1553,195.34181 L804.6582,182.15527 L817.8447,179.65819 z" fill="none" stroke="black" stroke-width="1"/>
<path d="M820.2093,192.86983 L807.1302,195.20927 L804.7907,182.13017 L817.8698,179.79073 z" fill="none" stroke="black" stroke-width="1"/>
<path d="M820.0778,192.89334 L807.1066,195.07782 L804.9222,182.10666 L817.8934,179.92218 z" fill="none" stroke="black" stroke-width="1"/>
<path d="M819.94745,192.9153 L807.0847,194.94745 L805.05255,182.0847 L817.9153,180.05255 z" fill="none" stroke="black" stroke-width="1"/>
<path d="M819.8182,192.93573 L807.0643,194.81816 L805.1818,182.06427 L817.9357,180.18184 z" fill="none" stroke="black" stroke-width="1"/>
<path d="M819.69,192.95465 L807.04535,194.68997 L805.31,182.04535 L817.95465,180.31003 z" fill="none" stroke="black" stroke-width="1"/>
<path d="M819.56287,192.97209 L807.0279,194.56288 L805.43713,182.02791 L817.9721,180.43712 z" fill="none" stroke="black" stroke-width="1"/>
<path d="M819.4369,192.98808 L807.0119,194.43689 L805.5631,182.01192 L817.9881,180.56311 z" fill="none" stroke="black" stroke-width="1"/>
<path d="M819.312,193.00264 L806.9974,194.31201 L805.688,181.99736 L818.0026,180.68799 z" fill="none" stroke="black" stroke-width="1"/>
<path d="M819.18823,193.0158 L806.9842,194.18823 L805.81177,181.9842 L818.0158,180.81177 z" fill="none" stroke="black" stroke-width="1"/>
<path d="M819.06555,193.02759 L806.9724,194.06557 L805.93445,181.97241 L818.0276,180.93443 z" fill="none" stroke="black" stroke-width="1"/>
<path d="M818.94403,193.03801 L806.962,193.94403 L806.05597,181.96199 L818.038,181.05597 z" fill="none" stroke="black" stroke-width="1"/>
<path d="M818.8236,193.04712 L806.9529,193.8236 L806.1764,181.95288 L818.0471,181.1764 z" fill="none" stroke="black" stroke-width="1"/>
<path d="M818.7043,193.05493 L806.94507,193.70428 L806.2957,181.94507 L818.05493,181.29572 z" fill="none" stroke="black" stroke-width="1"/>
<path d="M818.58606,193.06145 L806.93854,193.58609 L806.41394,181.93855 L818.06146,181.41391 z" fill="none" stroke="black" stroke-width="1"/>
<path d="M818.469,193.06673 L806.9333,193.46902 L806.531,181.93327 L818.0667,181.53098 z" fill="none" stroke="black" stroke-width="1"/>
<path d="M818.3531,193.07077 L806.92926,193.35307 L806.6469,181.92923 L818.07074,181.64693 z" fill="none" stroke="black" stroke-width="1"/>
<path d="M818.2383,193.07361 L806.9264,193.23825 L806.7617,181.92639 L818.0736,181.76175 z" fill="none" stroke="black" stroke-width="1"/>
<path d="M818.1246,193.07526 L806.92474,193.12456 L806.8754,181.92474 L818.07526,181.87544 z" fill="none" stroke="black" stroke-width="1"/>
<path d="M818.01196,193.07576 L806.92426,193.01198 L806.98804,181.92424 L818.07574,181.98802 z" fill="none" stroke="black" stroke-width="1"/>
<path d="M817.9005,193.07512 L806.92487,192.90054 L807.0995,181.92488 L818.07513,182.09946 z" fill="none" stroke="black" stroke-width="1"/>
<path d="M817.7902,193.07336 L806.92664,192.79022 L807.2098,181.92664 L818.07336,182.20978 z" fill="none" stroke="black" stroke-width="1"/>
<path d="M817.681,193.07051 L806.9295,192.68103 L807.319,181.92949 L818.0705,182.31897 z" fill="none" stroke="black" stroke-width="1"/>
<path d="M817.573,193.0666 L806.9334,192.57297 L807.427,181.9334 L818.0666,182.42703 z" fill="none" stroke="black" stroke-width="1"/>
<path d="M817.466,193.06165 L806.93835,192.46603 L807.534,181.93835 L818.06165,182.53397 z" fill="none" stroke="black" stroke-width="1"/>
<path d="M817.3602,193.05565 L806.94434,192.36021 L807.6398,181.94435 L818.05566,182.63979 z" fill="none" stroke="black" stroke-width="1"/>
<path d="M817.25555,193.04866 L806.95135,192.25552 L807.74445,181.95134 L818.04865,182.74448 z" fill="none" stroke="black" stroke-width="1"/>
<path d="M817.152,193.0407 L806.9593,192.15196 L807.848,181.9593 L818.0407,182.84804 z" fill="none" stroke="black" stroke-width="1"/>
<path d="M817.0495,193.03175 L806.96826,192.04951 L807.9505,181.96825 L818.03174,182.95049 z" fill="none" stroke="black" stroke-width="1"/>
<path d="M816.9482,193.02188 L806.9781,191.94818 L808.0518,181.97812 L818.0219,183.05182 z" fill="none" stroke="black" stroke-width="1"/>
<path d="M816.84796,193.0111 L806.9889,191.84798 L808.15204,181.9889 L818.0111,183.15202 z" fill="none" stroke="black" stroke-width="1"/>
<path d="M816.7489,192.9994 L807.0006,191.74889 L808.2511,182.0006 L817.9994,183.25111 z" fill="none" stroke="black" stroke-width="1"/>
<path d="M816.6509,192.98683 L807.0132,191.65091 L808.3491,182.01317 L817.9868,183.34909 z" fill="none" stroke="black" stroke-width="1"/>
<path d="M816.554,192.9734 L807.0266,191.55403 L808.446,182.0266 L817.9734,183.44597 z" fill="none" stroke="black" stroke-width="1"/>
<path d="M816.45825,192.95914 L807.04083,191.45827 L808.54175,182.04086 L817.95917,183.54173 z" fill="none" stroke="black" stroke-width="1"/>
<path d="M816.36365,192.94406 L807.05597,191.36362 L808.63635,182.05594 L817.94403,183.63638 z" fill="none" stroke="black" stroke-width="1"/>
<path d="M816.2701,192.92818 L807.07184,191.27007 L808.7299,182.07182 L817.92816,183.72993 z" fill="none" stroke="black" stroke-width="1"/>
<path d="M816.1776,192.9115 L807.0885,191.17761 L808.8224,182.0885 L817.9115,183.82239 z" fill="none" stroke="black" stroke-width="1"/>
<path d="M816.08624,192.89407 L807.1059,191.08626 L808.91376,182.10593 L817.8941,183.91374 z" fill="none" stroke="black" stroke-width="1"/>
<path d="M815.996,192.8759 L807.1241,190.996 L809.004,182.1241 L817.8759,184.004 z" fill="none" stroke="black" stroke-width="1"/>
<path d="M815.9068,192.85701 L807.143,190.90683 L809.0932,182.14299 L817.857,184.09317 z" fill="none" stroke="black" stroke-width="1"/>
<path d="M815.8187,192.83742 L807.1626,190.81874 L809.1813,182.16258 L817.8374,184.18126 z" fill="none" stroke="black" stroke-width="1"/>
<path d="M815.73175,192.81712 L807.18286,190.73174 L809.26825,182.18288 L817.81714,184.26826 z" fill="none" stroke="black" stroke-width="1"/>
<path d="M815.6458,192.79616 L807.20386,190.64581 L809.3542,182.20384 L817.79614,184.35419 z" fill="none" stroke="black" stroke-width="1"/>
<path d="M815.561,192.77455 L807.22546,190.56096 L809.439,182.22545 L817.77454,184.43904 z" fill="none" stroke="black" stroke-width="1"/>
<path d="M815.4772,192.7523 L807.2477,190.47719 L809.5228,182.2477 L817.7523,184.52281 z" fill="none" stroke="black" stroke-width="1"/>
<path d="M815.3945,192.72943 L807.27057,190.39447 L809.6055,182.27057 L817.72943,184.60553 z" fill="none" stroke="black" stroke-width="1"/>
<path d="M815.3128,192.70596 L807.294,190.31282 L809.6872,182.29404 L817.706,184.68718 z" fill="none" stroke="black" stroke-width="1"/>
<path d="M815.23224,192.68192 L807.3181,190.23222 L809.76776,182.31808 L817.6819,184.76778 z" fill="none" stroke="black" stroke-width="1"/>
<path d="M815.15265,192.65729 L807.3427,190.15268 L809.84735,182.34271 L817.6573,184.84732 z" fill="none" stroke="black" stroke-width="1"/>
<path d="M815.07416,192.63211 L807.36786,190.07417 L809.92584,182.36789 L817.63214,184.92583 z" fill="none" stroke="black" stroke-width="1"/>
<path d="M814.9967,192.6064 L807.3936,189.99672 L810.0033,182.3936 L817.6064,185.00328 z" fill="none" stroke="black" stroke-width="1"/>
<path d="M814.9203,192.58017 L807.4198,189.9203 L810.0797,182.41983 L817.5802,185.0797 z" fill="none" stroke="black" stroke-width="1"/>
<path d="M814.8449,192.55344 L807.44653,189.84491 L810.1551,182.44656 L817.55347,185.15509 z" fill="none" stroke="black" stroke-width="1"/>
<path d="M814.77057,192.52621 L807.47375,189.77055 L810.22943,182.47379 L817.52625,185.22945 z" fill="none" stroke="black" stroke-width="1"/>
<path d="M814.6972,192.49852 L807.50146,189.6972 L810.3028,182.50148 L817.49854,185.3028 z" fill="none" stroke="black" stroke-width="1"/>
<path d="M814.6249,192.47037 L807.52966,189.6249 L810.3751,182.52963 L817.47034,185.3751 z" fill="none" stroke="black" stroke-width="1"/>
<path d="M814.5536,192.44176 L807.5582,189.55357 L810.4464,182.55824 L817.4418,185.44643 z" fill="none" stroke="black" stroke-width="1"/>
<path d="M814.4833,192.41273 L807.5873,189.48326 L810.5167,182.58727 L817.4127,185.51674 z" fill="none" stroke="black" stroke-width="1"/>
<path d="M814.41394,192.38329 L807.6167,189.41396 L810.58606,182.61671 L817.3833,185.58604 z" fill="none" stroke="black" stroke-width="1"/>
<path d="M814.34564,192.35344 L807.64655,189.34563 L810.65436,182.64656 L817.35345,185.65437 z" fill="none" stroke="black" stroke-width="1"/>
<path d="M814.2783,192.32321 L807.67676,189.2783 L810.7217,182.67679 L817.32324,185.7217 z" fill="none" stroke="black" stroke-width="1"/>
<path d="M814.212,192.2926 L807.7074,189.21194 L810.788,182.7074 L817.2926,185.78806 z" fill="none" stroke="black" stroke-width="1"/>
<path d="M814.14655,192.26164 L807.73834,189.14658 L810.85345,182.73836 L817.26166,185.85342 z" fill="none" stroke="black" stroke-width="1"/>
<path d="M814.08215,192.23033 L807.76965,189.08215 L810.91785,182.76967 L817.23035,185.91785 z" fill="none" stroke="black" stroke-width="1"/>
<path d="M814.01874,192.1987 L807.80133,189.0187 L810.98126,182.8013 L817.19867,185.9813 z" fill="none" stroke="black" stroke-width="1"/>
<path d="M813.95624,192.16673 L807.83325,188.95622 L811.04376,182.83327 L817.16675,186.04378 z" fill="none" stroke="black" stroke-width="1"/>
<path d="M813.89465,192.13446 L807.86554,188.89468 L811.10535,182.86554 L817.13446,186.10532 z" fill="none" stroke="black" stroke-width="1"/>
<path d="M813.8341,192.1019 L807.8981,188.83408 L811.1659,182.8981 L817.1019,186.16592 z" fill="none" stroke="black" stroke-width="1"/>
<path d="M813.7744,192.06906 L807.93097,188.77441 L811.2256,182.93094 L817.06903,186.22559 z" fill="none" stroke="black" stroke-width="1"/>
<path d="M813.7157,192.03593 L807.96405,188.71568 L811.2843,182.96407 L817.03595,186.28432 z" fill="none" stroke="black" stroke-width="1"/>
<path d="M813.6579,192.00256 L807.99744,188.65788 L811.3421,182.99744 L817.00256,186.34212 z" fill="none" stroke="black" stroke-width="1"/>
<path d="M813.60095,191.96895 L808.03107,188.60098 L811.39905,183.03105 L816.96893,186.39902 z" fill="none" stroke="black" stroke-width="1"/>
<path d="M813.545,191.9351 L808.0649,188.545 L811.455,183.0649 L816.9351,186.455 z" fill="none" stroke="black" stroke-width="1"/>
<path d="M813.4899,191.90103 L808.099,188.48991 L811.5101,183.09897 L816.901,186.51009 z" fill="none" stroke="black" stroke-width="1"/>
<path d="M813.4357,191.86674 L808.13324,188.43573 L811.5643,183.13326 L816.86676,186.56427 z" fill="none" stroke="black" stroke-width="1"/>
<path d="M813.38245,191.83226 L808.1677,188.38243 L811.61755,183.16774 L816.8323,186.61757 z" fill="none" stroke="black" stroke-width="1"/>
<path d="M813.33,191.79758 L808.2024,188.33003 L811.67,183.20242 L816.7976,186.66997 z" fill="none" stroke="black" stroke-width="1"/>
<path d="M813.2785,191.76273 L808.23724,188.27849 L811.7215,183.23727 L816.76276,186.72151 z" fill="none" stroke="black" stroke-width="1"/>
<path d="M813.22784,191.7277 L808.2723,188.22781 L811.77216,183.2723 L816.7277,186.77219 z" fill="none" stroke="black" stroke-width="1"/>
<path d="M813.17804,191.69254 L808.3075,188.17801 L811.82196,183.30746 L816.6925,186.82199 z" fill="none" stroke="black" stroke-width="1"/>
<path d="M813.129,191.65721 L808.3428,188.12906 L811.871,183.34279 L816.6572,186.87094 z" fill="none" stroke="black" stroke-width="1"/>
<path d="M813.08093,191.62175 L808.37823,188.08095 L811.91907,183.37825 L816.62177,186.91905 z" fill="none" stroke="black" stroke-width="1"/>
<path d="M813.0337,191.58615 L808.4138,188.03368 L811.9663,183.41385 L816.5862,186.96632 z" fill="none" stroke="black" stroke-width="1"/>
<path d="M812.98724,191.55045 L808.4495,187.98724 L812.01276,183.44955 L816.5505,187.01276 z" fill="none" stroke="black" stroke-width="1"/>
<path d="M812.94165,191.51463 L808.48535,187.94164 L812.05835,183.48537 L816.51465,187.05836 z" fill="none" stroke="black" stroke-width="1"/>
<path d="M812.89685,191.47873 L808.5213,187.89685 L812.10315,183.52127 L816.4787,187.10315 z" fill="none" stroke="black" stroke-width="1"/>
<path d="M812.85284,191.44272 L808.55725,187.85287 L812.14716,183.55728 L816.44275,187.14713 z" fill="none" stroke="black" stroke-width="1"/>
<path d="M812.8097,191.40665 L808.5934,187.8097 L812.1903,183.59335 L816.4066,187.1903 z" fill="none" stroke="black" stroke-width="1"/>
<path d="M812.76733,191.37048 L808.6295,187.76732 L812.23267,183.62952 L816.3705,187.23268 z" fill="none" stroke="black" stroke-width="1"/>
<path d="M812.7257,191.33427 L808.6657,187.72572 L812.2743,183.66573 L816.3343,187.27428 z" fill="none" stroke="black" stroke-width="1"/>
<path d="M812.68494,191.298 L808.702,187.68492 L812.31506,183.702 L816.298,187.31508 z" fill="none" stroke="black" stroke-width="1"/>
<path d="M812.6449,191.26169 L808.73834,187.64488 L812.3551,183.73831 L816.26166,187.35512 z" fill="none" stroke="black" stroke-width="1"/>
<path d="M812.60565,191.22534 L808.77466,187.60562 L812.39435,183.77466 L816.22534,187.39438 z" fill="none" stroke="black" stroke-width="1"/>
<path d="M812.56714,191.18895 L808.81104,187.56712 L812.43286,183.81105 L816.18896,187.43288 z" fill="none" stroke="black" stroke-width="1"/>
<path d="M812.52936,191.15254 L808.8475,187.52937 L812.47064,183.84746 L816.1525,187.47063 z" fill="none" stroke="black" stroke-width="1"/>
<path d="M812.4924,191.11613 L808.88385,187.49236 L812.5076,183.88387 L816.11615,187.50764 z" fill="none" stroke="black" stroke-width="1"/>
<path d="M812.4561,191.07971 L808.9203,187.45609 L812.5439,183.92029 L816.0797,187.54391 z" fill="none" stroke="black" stroke-width="1"/>
<path d="M812.42053,191.04329 L808.9567,187.42055 L812.57947,183.95671 L816.0433,187.57945 z" fill="none" stroke="black" stroke-width="1"/>
<path d="M812.38574,191.00688 L808.9931,187.38574 L812.61426,183.99312 L816.0069,187.61426 z" fill="none" stroke="black" stroke-width="1"/>
<path d="M812.3516,190.97047 L809.02954,187.35164 L812.6484,184.02953 L815.97046,187.64836 z" fill="none" stroke="black" stroke-width="1"/>
<path d="M812.31824,190.93411 L809.0659,187.31825 L812.68176,184.06589 L815.9341,187.68175 z" fill="none" stroke="black" stroke-width="1"/>
<path d="M812.2856,190.89777 L809.10223,187.28555 L812.7144,184.10223 L815.89777,187.71445 z" fill="none" stroke="black" stroke-width="1"/>
<path d="M812.25354,190.86147 L809.13855,187.25356 L812.74646,184.13853 L815.86145,187.74644 z" fill="none" stroke="black" stroke-width="1"/>
<path d="M812.2222,190.8252 L809.1748,187.22226 L812.7778,184.1748 L815.8252,187.77774 z" fill="none" stroke="black" stroke-width="1"/>
<path d="M812.19165,190.78899 L809.211,187.19162 L812.80835,184.21101 L815.789,187.80838 z" fill="none" stroke="black" stroke-width="1"/>
<path d="M812.1617,190.75282 L809.2472,187.16167 L812.8383,184.24718 L815.7528,187.83833 z" fill="none" stroke="black" stroke-width="1"/>
<path d="M812.1324,190.71674 L809.28326,187.13237 L812.8676,184.28326 L815.71674,187.86763 z" fill="none" stroke="black" stroke-width="1"/>
<path d="M812.10376,190.68071 L809.3193,187.10373 L812.89624,184.31929 L815.6807,187.89627 z" fill="none" stroke="black" stroke-width="1"/>
<path d="M812.07574,190.64474 L809.3552,187.07574 L812.92426,184.35526 L815.6448,187.92426 z" fill="none" stroke="black" stroke-width="1"/>
<path d="M812.0484,190.60887 L809.3911,187.0484 L812.9516,184.39113 L815.6089,187.9516 z" fill="none" stroke="black" stroke-width="1"/>
<path d="M812.02167,190.57309 L809.4269,187.0217 L812.97833,184.42691 L815.5731,187.9783 z" fill="none" stroke="black" stroke-width="1"/>
<path d="M811.9956,190.5374 L809.4626,186.99562 L813.0044,184.4626 L815.5374,188.00438 z" fill="none" stroke="black" stroke-width="1"/>
<path d="M811.97015,190.5018 L809.4982,186.97015 L813.02985,184.4982 L815.5018,188.02985 z" fill="none" stroke="black" stroke-width="1"/>
<path d="M811.9453,190.46631 L809.5337,186.94531 L813.0547,184.53369 L815.4663,188.05469 z" fill="none" stroke="black" stroke-width="1"/>
<path d="M811.9211,190.43091 L809.5691,186.92107 L813.0789,184.56909 L815.4309,188.07893 z" fill="none" stroke="black" stroke-width="1"/>
<path d="M811.89746,190.39563 L809.6044,186.89743 L813.10254,184.60437 L815.3956,188.10257 z" fill="none" stroke="black" stroke-width="1"/>
<path d="M811.8744,190.36047 L809.6395,186.87439 L813.1256,184.63953 L815.3605,188.12561 z" fill="none" stroke="black" stroke-width="1"/>
<path d="M811.8519,190.32544 L809.67456,186.85193 L813.1481,184.67456 L815.32544,188.14807 z" fill="none" stroke="black" stroke-width="1"/>
<path d="M811.83,190.29053 L809.7095,186.83003 L813.17,184.70947 L815.2905,188.16997 z" fill="none" stroke="black" stroke-width="1"/>
<path d="M811.8087,190.25574 L809.74426,186.80872 L813.1913,184.74426 L815.25574,188.19128 z" fill="none" stroke="black" stroke-width="1"/>
<path d="M811.78796,190.2211 L809.77893,186.78798 L813.21204,184.7789 L815.22107,188.21202 z" fill="none" stroke="black" stroke-width="1"/>
<path d="M811.76776,190.18658 L809.8134,186.76778 L813.23224,184.81342 L815.1866,188.23222 z" fill="none" stroke="black" stroke-width="1"/>
<path d="M811.7481,190.15222 L809.8478,186.74814 L813.2519,184.84778 L815.1522,188.25186 z" fill="none" stroke="black" stroke-width="1"/>
<path d="M811.72906,190.11801 L809.88196,186.72903 L813.27094,184.88199 L815.11804,188.27097 z" fill="none" stroke="black" stroke-width="1"/>
<path d="M811.71045,190.08395 L809.9161,186.71046 L813.28955,184.91605 L815.0839,188.28954 z" fill="none" stroke="black" stroke-width="1"/>
<path d="M811.69244,190.05005 L809.94995,186.69243 L813.30756,184.94995 L815.05005,188.30757 z" fill="none" stroke="black" stroke-width="1"/>
<path d="M811.6749,190.0163 L809.9837,186.67493 L813.3251,184.9837 L815.0163,188.32507 z" fill="none" stroke="black" stroke-width="1"/>
<path d="M811.6579,189.98271 L810.0173,186.65793 L813.3421,185.01729 L814.9827,188.34207 z" fill="none" stroke="black" stroke-width="1"/>
<path d="M811.6414,189.9493 L810.0507,186.64143 L813.3586,185.0507 L814.9493,188.35857 z" fill="none" stroke="black" stroke-width="1"/>
<path d="M811.6254,189.91605 L810.0839,186.62544 L813.3746,185.08395 L814.9161,188.37456 z" fill="none" stroke="black" stroke-width="1"/>
<path d="M811.6099,189.88297 L810.117,186.60995 L813.3901,185.11703 L814.883,188.39005 z" fill="none" stroke="black" stroke-width="1"/>
<path d="M811.595,189.85008 L810.1499,186.59494 L813.405,185.14992 L814.8501,188.40506 z" fill="none" stroke="black" stroke-width="1"/>
<path d="M811.58044,189.81735 L810.1826,186.58043 L813.41956,185.18265 L814.8174,188.41957 z" fill="none" stroke="black" stroke-width="1"/>
<path d="M811.56635,189.78482 L810.21515,186.56638 L813.43365,185.21518 L814.78485,188.43362 z" fill="none" stroke="black" stroke-width="1"/>
<path d="M811.5528,189.75247 L810.2475,186.5528 L813.4472,185.24753 L814.7525,188.4472 z" fill="none" stroke="black" stroke-width="1"/>
<path d="M811.5397,189.72032 L810.27966,186.53967 L813.4603,185.27968 L814.72034,188.46033 z" fill="none" stroke="black" stroke-width="1"/>
<path d="M811.527,189.68834 L810.31165,186.52701 L813.473,185.31166 L814.68835,188.47299 z" fill="none" stroke="black" stroke-width="1"/>
<path d="M811.5148,189.65657 L810.34344,186.51479 L813.4852,185.34343 L814.65656,188.48521 z" fill="none" stroke="black" stroke-width="1"/>
<path d="M811.503,189.625 L810.375,186.50302 L813.497,185.375 L814.625,188.49698 z" fill="none" stroke="black" stroke-width="1"/>
<path d="M811.4917,189.59361 L810.4064,186.49168 L813.5083,185.40639 L814.5936,188.50832 z" fill="none" stroke="black" stroke-width="1"/>
<path d="M811.4808,189.56244 L810.43756,186.48077 L813.5192,185.43756 L814.56244,188.51923 z" fill="none" stroke="black" stroke-width="1"/>
<path d="M811.4703,189.53146 L810.46857,186.47029 L813.5297,185.46854 L814.53143,188.52971 z" fill="none" stroke="black" stroke-width="1"/>
<path d="M811.4602,189.5007 L810.4993,186.46022 L813.5398,185.4993 L814.5007,188.53978 z" fill="none" stroke="black" stroke-width="1"/>
<path d="M811.45056,189.47014 L810.52985,186.45056 L813.54944,185.52986 L814.47015,188.54944 z" fill="none" stroke="black" stroke-width="1"/>
<path d="M811.4413,189.43979 L810.56024,186.4413 L813.5587,185.56021 L814.43976,188.5587 z" fill="none" stroke="black" stroke-width="1"/>
<path d="M811.43243,189.40965 L810.59033,186.43245 L813.56757,185.59035 L814.40967,188.56755 z" fill="none" stroke="black" stroke-width="1"/>
<path d="M811.424,189.37973 L810.6203,186.42398 L813.576,185.62027 L814.3797,188.57602 z" fill="none" stroke="black" stroke-width="1"/>
<path d="M811.4159,189.35002 L810.64996,186.41591 L813.5841,185.64998 L814.35004,188.58409 z" fill="none" stroke="black" stroke-width="1"/>
<path d="M811.4082,189.32053 L810.6795,186.40822 L813.5918,185.67947 L814.3205,188.59178 z" fill="none" stroke="black" stroke-width="1"/>
<path d="M811.4009,189.29126 L810.70874,186.40088 L813.5991,185.70874 L814.29126,188.59912 z" fill="none" stroke="black" stroke-width="1"/>
<path d="M811.3939,189.2622 L810.7378,186.39394 L813.6061,185.7378 L814.2622,188.60606 z" fill="none" stroke="black" stroke-width="1"/>
<path d="M811.3873,189.23337 L810.7666,186.38733 L813.6127,185.76663 L814.2334,188.61267 z" fill="none" stroke="black" stroke-width="1"/>
<path d="M811.3811,189.20477 L810.7952,186.3811 L813.6189,185.79523 L814.2048,188.6189 z" fill="none" stroke="black" stroke-width="1"/>
<path d="M811.3752,189.17639 L810.8236,186.37521 L813.6248,185.82361 L814.1764,188.62479 z" fill="none" stroke="black" stroke-width="1"/>
<path d="M811.3697,189.14822 L810.85175,186.36966 L813.6303,185.85178 L814.14825,188.63034 z" fill="none" stroke="black" stroke-width="1"/>
<path d="M811.36444,189.1203 L810.8797,186.36446 L813.63556,185.8797 L814.1203,188.63554 z" fill="none" stroke="black" stroke-width="1"/>
<path d="M811.35956,189.0926 L810.9074,186.35959 L813.64044,185.9074 L814.0926,188.64041 z" fill="none" stroke="black" stroke-width="1"/>
<path d="M811.35504,189.06514 L810.9349,186.35504 L813.64496,185.93486 L814.0651,188.64496 z" fill="none" stroke="black" stroke-width="1"/>
<path d="M811.3508,189.0379 L810.9621,186.35081 L813.6492,185.9621 L814.0379,188.64919 z" fill="none" stroke="black" stroke-width="1"/>
<path d="M811.3469,189.0109 L810.98914,186.34691 L813.6531,185.9891 L814.01086,188.65309 z" fill="none" stroke="black" stroke-width="1"/>
<path d="M811.3433,188.98412 L811.01587,186.3433 L813.6567,186.01588 L813.98413,188.6567 z" fill="none" stroke="black" stroke-width="1"/>
<path d="M811.34,188.95757 L811.0424,186.34003 L813.66,186.04243 L813.9576,188.65997 z" fill="none" stroke="black" stroke-width="1"/>
<path d="M811.33704,188.93126 L811.0687,186.33704 L813.66296,186.06874 L813.9313,188.66296 z" fill="none" stroke="black" stroke-width="1"/>
<path d="M811.33435,188.90518 L811.0948,186.33434 L813.66565,186.09482 L813.9052,188.66566 z" fill="none" stroke="black" stroke-width="1"/>
<path d="M811.3319,188.87935 L811.12067,186.33192 L813.6681,186.12065 L813.87933,188.66808 z" fill="none" stroke="black" stroke-width="1"/>
<path d="M811.32983,188.85374 L811.14624,186.3298 L813.67017,186.14626 L813.85376,188.6702 z" fill="none" stroke="black" stroke-width="1"/>
<path d="M811.32794,188.82837 L811.17163,186.32796 L813.67206,186.17163 L813.82837,188.67204 z" fill="none" stroke="black" stroke-width="1"/>
<path d="M811.3264,188.80324 L811.1968,186.32639 L813.6736,186.19676 L813.8032,188.67361 z" fill="none" stroke="black" stroke-width="1"/>
<path d="M811.3251,188.77835 L811.2217,186.32509 L813.6749,186.22165 L813.7783,188.67491 z" fill="none" stroke="black" stroke-width="1"/>
<path d="M811.32404,188.7537 L811.24634,186.32405 L813.67596,186.2463 L813.75366,188.67595 z" fill="none" stroke="black" stroke-width="1"/>
<path d="M811.32324,188.72926 L811.27075,186.32326 L813.67676,186.27074 L813.72925,188.67674 z" fill="none" stroke="black" stroke-width="1"/>
<path d="M811.32275,188.7051 L811.2949,186.32274 L813.67725,186.2949 L813.7051,188.67726 z" fill="none" stroke="black" stroke-width="1"/>
<path d="M811.32245,188.68114 L811.31885,186.32246 L813.67755,186.31886 L813.68115,188.67754 z" fill="none" stroke="black" stroke-width="1"/>
<path d="M811.32245,188.65744 L811.3426,186.32242 L813.67755,186.34256 L813.6574,188.67758 z" fill="none" stroke="black" stroke-width="1"/>
<path d="M811.32263,188.63397 L811.366,186.32262 L813.67737,186.36603 L813.634,188.67738 z" fill="none" stroke="black" stroke-width="1"/>
<path d="M811.32306,188.61073 L811.3893,186.32306 L813.67694,186.38927 L813.6107,188.67694 z" fill="none" stroke="black" stroke-width="1"/>
<path d="M811.3237,188.58774 L811.41223,186.32373 L813.6763,186.41226 L813.58777,188.67627 z" fill="none" stroke="black" stroke-width="1"/>
<path d="M811.3246,188.56499 L811.435,186.32462 L813.6754,186.43501 L813.565,188.67538 z" fill="none" stroke="black" stroke-width="1"/>
<path d="M811.32574,188.54247 L811.4575,186.32573 L813.67426,186.45753 L813.5425,188.67427 z" fill="none" stroke="black" stroke-width="1"/>
<path d="M811.327,188.52019 L811.4798,186.32706 L813.673,186.47981 L813.5202,188.67294 z" fill="none" stroke="black" stroke-width="1"/>
<path d="M811.3286,188.49814 L811.50183,186.32858 L813.6714,186.50186 L813.49817,188.67142 z" fill="none" stroke="black" stroke-width="1"/>
<path d="M811.3303,188.47633 L811.5237,186.33032 L813.6697,186.52367 L813.4763,188.66968 z" fill="none" stroke="black" stroke-width="1"/>
<path d="M811.3323,188.45477 L811.5452,186.33228 L813.6677,186.54523 L813.4548,188.66772 z" fill="none" stroke="black" stroke-width="1"/>
<path d="M811.3344,188.43343 L811.5666,186.33441 L813.6656,186.56657 L813.4334,188.66559 z" fill="none" stroke="black" stroke-width="1"/>
<path d="M811.33673,188.41234 L811.58765,186.33675 L813.66327,186.58766 L813.41235,188.66325 z" fill="none" stroke="black" stroke-width="1"/>
<path d="M811.3393,188.39148 L811.6085,186.33926 L813.6607,186.60852 L813.3915,188.66074 z" fill="none" stroke="black" stroke-width="1"/>
<path d="M811.342,188.37085 L811.62915,186.34196 L813.658,186.62915 L813.37085,188.65804 z" fill="none" stroke="black" stroke-width="1"/>
<path d="M811.34485,188.35045 L811.64954,186.34486 L813.65515,186.64955 L813.35046,188.65514 z" fill="none" stroke="black" stroke-width="1"/>
<path d="M811.3479,188.33029 L811.6697,186.34792 L813.6521,186.66971 L813.3303,188.65208 z" fill="none" stroke="black" stroke-width="1"/>
<path d="M811.35114,188.31038 L811.68964,186.35115 L813.64886,186.68962 L813.31036,188.64885 z" fill="none" stroke="black" stroke-width="1"/>
<path d="M811.35455,188.29068 L811.70935,186.35455 L813.64545,186.70932 L813.29065,188.64545 z" fill="none" stroke="black" stroke-width="1"/>
<path d="M811.3581,188.27122 L811.72876,186.35812 L813.6419,186.72878 L813.27124,188.64188 z" fill="none" stroke="black" stroke-width="1"/>
<path d="M811.3619,188.25198 L811.748,186.36185 L813.6381,186.74802 L813.252,188.63815 z" fill="none" stroke="black" stroke-width="1"/>
<path d="M811.3657,188.23299 L811.767,186.36572 L813.6343,186.76701 L813.233,188.63428 z" fill="none" stroke="black" stroke-width="1"/>
<path d="M811.36975,188.21422 L811.78577,186.36977 L813.63025,186.78578 L813.21423,188.63023 z" fill="none" stroke="black" stroke-width="1"/>
<path d="M811.37396,188.1957 L811.8043,186.37395 L813.62604,186.8043 L813.1957,188.62605 z" fill="none" stroke="black" stroke-width="1"/>
<path d="M811.3783,188.17738 L811.82263,186.37827 L813.6217,186.82262 L813.17737,188.62173 z" fill="none" stroke="black" stroke-width="1"/>
<path d="M811.38275,188.15929 L811.8407,186.38274 L813.61725,186.84071 L813.1593,188.61726 z" fill="none" stroke="black" stroke-width="1"/>
<path d="M811.3873,188.14143 L811.8586,186.38734 L813.6127,186.85857 L813.1414,188.61266 z" fill="none" stroke="black" stroke-width="1"/>
<path d="M811.3921,188.12381 L811.8762,186.39207 L813.6079,186.87619 L813.1238,188.60793 z" fill="none" stroke="black" stroke-width="1"/>
<path d="M811.3969,188.1064 L811.8936,186.39694 L813.6031,186.8936 L813.1064,188.60306 z" fill="none" stroke="black" stroke-width="1"/>
<path d="M811.4019,188.08922 L811.91077,186.40193 L813.5981,186.91078 L813.08923,188.59807 z" fill="none" stroke="black" stroke-width="1"/>
<path d="M811.40704,188.07227 L811.92773,186.40704 L813.59296,186.92773 L813.07227,188.59296 z" fill="none" stroke="black" stroke-width="1"/>
<path d="M811.4123,188.05553 L811.94446,186.41228 L813.5877,186.94447 L813.05554,188.58772 z" fill="none" stroke="black" stroke-width="1"/>
<path d="M811.4176,188.039 L811.961,186.41763 L813.5824,186.961 L813.039,188.58237 z" fill="none" stroke="black" stroke-width="1"/>
<path d="M811.4231,188.0227 L811.9773,186.4231 L813.5769,186.9773 L813.0227,188.5769 z" fill="none" stroke="black" stroke-width="1"/>
<path d="M811.42865,188.00664 L811.99335,186.42867 L813.57135,186.99336 L813.00665,188.57133 z" fill="none" stroke="black" stroke-width="1"/>
<path d="M811.4343,187.99077 L812.0092,186.43434 L813.5657,187.00923 L812.9908,188.56566 z" fill="none" stroke="black" stroke-width="1"/>
<path d="M811.4401,187.97513 L812.02484,186.44011 L813.5599,187.02487 L812.97516,188.55989 z" fill="none" stroke="black" stroke-width="1"/>
<path d="M811.446,187.9597 L812.0403,186.446 L813.554,187.0403 L812.9597,188.554 z" fill="none" stroke="black" stroke-width="1"/>
<path d="M811.45197,187.94449 L812.05554,186.45197 L813.54803,187.05551 L812.94446,188.54803 z" fill="none" stroke="black" stroke-width="1"/>
<path d="M811.458,187.92949 L812.0705,186.45804 L813.542,187.07051 L812.9295,188.54196 z" fill="none" stroke="black" stroke-width="1"/>
<path d="M811.4642,187.91469 L812.0853,186.46419 L813.5358,187.08531 L812.9147,188.53581 z" fill="none" stroke="black" stroke-width="1"/>
<path d="M811.47046,187.90012 L812.0999,186.47043 L813.52954,187.09988 L812.9001,188.52957 z" fill="none" stroke="black" stroke-width="1"/>
<path d="M811.47675,187.88574 L812.11426,186.47676 L813.52325,187.11426 L812.88574,188.52324 z" fill="none" stroke="black" stroke-width="1"/>
<path d="M811.48315,187.87158 L812.1284,186.48317 L813.51685,187.12842 L812.8716,188.51683 z" fill="none" stroke="black" stroke-width="1"/>
<path d="M811.4896,187.85764 L812.1424,186.48965 L813.5104,187.14236 L812.8576,188.51035 z" fill="none" stroke="black" stroke-width="1"/>
<path d="M811.4962,187.84389 L812.1561,186.49622 L813.5038,187.15611 L812.8439,188.50378 z" fill="none" stroke="black" stroke-width="1"/>
<path d="M811.50287,187.83034 L812.1697,186.50284 L813.49713,187.16966 L812.8303,188.49716 z" fill="none" stroke="black" stroke-width="1"/>
<path d="M811.5095,187.81699 L812.183,186.50955 L813.4905,187.18301 L812.817,188.49045 z" fill="none" stroke="black" stroke-width="1"/>
<path d="M811.5163,187.80385 L812.19617,186.51631 L813.4837,187.19615 L812.80383,188.48369 z" fill="none" stroke="black" stroke-width="1"/>
<path d="M811.52313,187.79091 L812.2091,186.52315 L813.47687,187.20909 L812.7909,188.47685 z" fill="none" stroke="black" stroke-width="1"/>
<path d="M811.53,187.77817 L812.22186,186.53004 L813.47,187.22183 L812.77814,188.46996 z" fill="none" stroke="black" stroke-width="1"/>
<path d="M811.537,187.76563 L812.2344,186.537 L813.463,187.23438 L812.7656,188.463 z" fill="none" stroke="black" stroke-width="1"/>
<path d="M811.544,187.75328 L812.2467,186.544 L813.456,187.24672 L812.7533,188.456 z" fill="none" stroke="black" stroke-width="1"/>
<path d="M811.5511,187.74112 L812.2589,186.55107 L813.4489,187.25888 L812.7411,188.44893 z" fill="none" stroke="black" stroke-width="1"/>
<path d="M811.55817,187.72916 L812.2708,186.55818 L813.44183,187.27084 L812.7292,188.44182 z" fill="none" stroke="black" stroke-width="1"/>
<path d="M811.56537,187.71739 L812.2826,186.56535 L813.43463,187.28261 L812.7174,188.43465 z" fill="none" stroke="black" stroke-width="1"/>
<path d="M811.5726,187.70581 L812.2942,186.57256 L813.4274,187.29419 L812.7058,188.42744 z" fill="none" stroke="black" stroke-width="1"/>
<path d="M811.57983,187.69441 L812.3056,186.5798 L813.42017,187.30559 L812.6944,188.4202 z" fill="none" stroke="black" stroke-width="1"/>
<path d="M811.5871,187.68321 L812.3168,186.5871 L813.4129,187.31679 L812.6832,188.4129 z" fill="none" stroke="black" stroke-width="1"/>
<path d="M811.5944,187.6722 L812.3278,186.59444 L813.4056,187.3278 L812.6722,188.40556 z" fill="none" stroke="black" stroke-width="1"/>
<path d="M811.6018,187.66136 L812.3386,186.6018 L813.3982,187.33864 L812.6614,188.3982 z" fill="none" stroke="black" stroke-width="1"/>
<path d="M811.6092,187.65071 L812.3493,186.6092 L813.3908,187.34929 L812.6507,188.3908 z" fill="none" stroke="black" stroke-width="1"/>
<path d="M811.61664,187.64024 L812.35974,186.61665 L813.38336,187.35976 L812.64026,188.38335 z" fill="none" stroke="black" stroke-width="1"/>
<path d="M811.62415,187.62996 L812.37006,186.62411 L813.37585,187.37004 L812.62994,188.37589 z" fill="none" stroke="black" stroke-width="1"/>
<path d="M811.6316,187.61986 L812.3801,186.63162 L813.3684,187.38014 L812.6199,188.36838 z" fill="none" stroke="black" stroke-width="1"/>
<path d="M811.63916,187.60992 L812.3901,186.63914 L813.36084,187.39008 L812.6099,188.36086 z" fill="none" stroke="black" stroke-width="1"/>
<path d="M811.64667,187.60016 L812.39984,186.64668 L813.35333,187.39984 L812.60016,188.35332 z" fill="none" stroke="black" stroke-width="1"/>
<path d="M811.65424,187.59058 L812.4094,186.65427 L813.34576,187.40942 L812.5906,188.34573 z" fill="none" stroke="black" stroke-width="1"/>
<path d="M811.66187,187.58116 L812.4188,186.66185 L813.33813,187.41884 L812.5812,188.33815 z" fill="none" stroke="black" stroke-width="1"/>
<path d="M811.66943,187.57193 L812.4281,186.66946 L813.33057,187.42807 L812.5719,188.33054 z" fill="none" stroke="black" stroke-width="1"/>
<path d="M811.67706,187.56285 L812.43713,186.67708 L813.32294,187.43715 L812.56287,188.32292 z" fill="none" stroke="black" stroke-width="1"/>
<path d="M811.68475,187.55396 L812.44604,186.68472 L813.31525,187.44604 L812.55396,188.31528 z" fill="none" stroke="black" stroke-width="1"/>
<path d="M811.6924,187.54521 L812.4548,186.69237 L813.3076,187.45479 L812.5452,188.30763 z" fill="none" stroke="black" stroke-width="1"/>
<path d="M811.7,187.53664 L812.4634,186.70004 L813.3,187.46336 L812.5366,188.29996 z" fill="none" stroke="black" stroke-width="1"/>
<path d="M811.7077,187.52823 L812.47174,186.7077 L813.2923,187.47177 L812.52826,188.2923 z" fill="none" stroke="black" stroke-width="1"/>
<path d="M811.7154,187.51999 L812.48004,186.7154 L813.2846,187.48001 L812.51996,188.2846 z" fill="none" stroke="black" stroke-width="1"/>
<path d="M811.7231,187.5119 L812.4881,186.72307 L813.2769,187.4881 L812.5119,188.27693 z" fill="none" stroke="black" stroke-width="1"/>
<path d="M811.7308,187.50397 L812.49603,186.73076 L813.2692,187.49603 L812.50397,188.26924 z" fill="none" stroke="black" stroke-width="1"/>
<path d="M811.73846,187.4962 L812.5038,186.73845 L813.26154,187.5038 L812.4962,188.26155 z" fill="none" stroke="black" stroke-width="1"/>
<path d="M811.74615,187.48859 L812.5114,186.74615 L813.25385,187.51141 L812.4886,188.25385 z" fill="none" stroke="black" stroke-width="1"/>
<path d="M811.75385,187.48112 L812.51886,186.75385 L813.24615,187.51888 L812.48114,188.24615 z" fill="none" stroke="black" stroke-width="1"/>
<path d="M811.76154,187.47382 L812.5262,186.76154 L813.23846,187.52618 L812.4738,188.23846 z" fill="none" stroke="black" stroke-width="1"/>
<path d="M811.7692,187.46666 L812.5333,186.76921 L813.2308,187.53334 L812.4667,188.23079 z" fill="none" stroke="black" stroke-width="1"/>
<path d="M811.7769,187.45964 L812.54034,186.7769 L813.2231,187.54036 L812.45966,188.2231 z" fill="none" stroke="black" stroke-width="1"/>
<path d="M811.78455,187.45277 L812.54724,186.78458 L813.21545,187.54723 L812.45276,188.21542 z" fill="none" stroke="black" stroke-width="1"/>
<path d="M811.79224,187.44606 L812.55396,186.79224 L813.20776,187.55394 L812.44604,188.20776 z" fill="none" stroke="black" stroke-width="1"/>
</g>
</svg>