<svg viewBox="0 0 1000 375" xmlns="http://www.w3.org/2000/svg">
<g>
<rect fill="none" height="17.857142857142858" rx="17" ry="17" stroke="black" stroke-width="1" width="17.857142857142858" x="178.57142857142858" y="178.57142857142858"/>
<rect fill="none" height="35.714285714285715" rx="31" ry="31" stroke="black" stroke-width="1" width="35.714285714285715" x="169.64285714285714" y="169.64285714285714"/>
<rect fill="none" height="53.57142857142857" rx="42" ry="42" stroke="black" stroke-width="1" width="53.57142857142857" x="160.71428571428572" y="160.71428571428572"/>
<rect fill="none" height="71.42857142857143" rx="51" ry="51" stroke="black" stroke-width="1" width="71.42857142857143" x="151.78571428571428" y="151.78571428571428"/>
<rect fill="none" height="89.28571428571429" rx="58" ry="58" stroke="black" stroke-width="1" width="89.28571428571429" x="142.85714285714286" y="142.85714285714286"/>
<rect fill="none" height="107.14285714285714" rx="62" ry="62" stroke="black" stroke-width="1" width="107.14285714285714" x="133.92857142857144" y="133.92857142857144"/>
<rect fill="none" height="125" rx="63" ry="63" stroke="black" stroke-width="1" width="125" x="125" y="125"/>
<rect fill="none" height="142.85714285714286" rx="62" ry="62" stroke="black" stroke-width="1" width="142.85714285714286" x="116.07142857142857" y="116.07142857142857"/>
<rect fill="none" height="160.71428571428572" rx="58" ry="58" stroke="black" stroke-width="1" width="160.71428571428572" x="107.14285714285714" y="107.14285714285714"/>
<rect fill="none" height="178.57142857142858" rx="52" ry="52" stroke="black" stroke-width="1" width="178.57142857142858" x="98.21428571428571" y="98.21428571428571"/>
<rect fill="none" height="196.42857142857142" rx="43" ry="43" stroke="black" stroke-width="1" width="196.42857142857142" x="89.28571428571429" y="89.28571428571429"/>
<rect fill="none" height="214.28571428571428" rx="31" ry="31" stroke="black" stroke-width="1" width="214.28571428571428" x="80.35714285714286" y="80.35714285714286"/>
<rect fill="none" height="232.14285714285714" rx="18" ry="18" stroke="black" stroke-width="1" width="232.14285714285714" x="71.42857142857143" y="71.42857142857143"/>
<rect fill="none" height="250" rx="1" ry="1" stroke="black" stroke-width="1" width="250" x="62.5" y="62.5"/>
</g>
<g>
<rect fill="none" height="3.90625" rx="4" ry="4" stroke="black" stroke-width="1" width="3.90625" x="498.046875" y="185.546875"/>
<rect fill="none" height="7.8125" rx="8" ry="8" stroke="black" stroke-width="1" width="7.8125" x="496.09375" y="183.59375"/>
<rect fill="none" height="11.71875" rx="11" ry="11" stroke="black" stroke-width="1" width="11.71875" x="494.140625" y="181.640625"/>
<rect fill="none" height="15.625" rx="15" ry="15" stroke="black" stroke-width="1" width="15.625" x="492.1875" y="179.6875"/>
<rect fill="none" height="19.53125" rx="18" ry="18" stroke="black" stroke-width="1" width="19.53125" x="490.234375" y="177.734375"/>
<rect fill="none" height="23.4375" rx="21" ry="21" stroke="black" stroke-width="1" width="23.4375" x="488.28125" y="175.78125"/>
<rect fill="none" height="27.34375" rx="24" ry="24" stroke="black" stroke-width="1" width="27.34375" x="486.328125" y="173.828125"/>
<rect fill="none" height="31.25" rx="27" ry="27" stroke="black" stroke-width="1" width="31.25" x="484.375" y="171.875"/>
<rect fill="none" height="35.15625" rx="30" ry="30" stroke="black" stroke-width="1" width="35.15625" x="482.421875" y="169.921875"/>
<rect fill="none" height="39.0625" rx="33" ry="33" stroke="black" stroke-width="1" width="39.0625" x="480.46875" y="167.96875"/>
<rect fill="none" height="42.96875" rx="36" ry="36" stroke="black" stroke-width="1" width="42.96875" x="478.515625" y="166.015625"/>
<rect fill="none" height="46.875" rx="38" ry="38" stroke="black" stroke-width="1" width="46.875" x="476.5625" y="164.0625"/>
<rect fill="none" height="50.78125" rx="41" ry="41" stroke="black" stroke-width="1" width="50.78125" x="474.609375" y="162.109375"/>
<rect fill="none" height="54.6875" rx="43" ry="43" stroke="black" stroke-width="1" width="54.6875" x="472.65625" y="160.15625"/>
<rect fill="none" height="58.59375" rx="45" ry="45" stroke="black" stroke-width="1" width="58.59375" x="470.703125" y="158.203125"/>
<rect fill="none" height="62.5" rx="47" ry="47" stroke="black" stroke-width="1" width="62.5" x="468.75" y="156.25"/>
<rect fill="none" height="66.40625" rx="49" ry="49" stroke="black" stroke-width="1" width="66.40625" x="466.796875" y="154.296875"/>
<rect fill="none" height="70.3125" rx="51" ry="51" stroke="black" stroke-width="1" width="70.3125" x="464.84375" y="152.34375"/>
<rect fill="none" height="74.21875" rx="52" ry="52" stroke="black" stroke-width="1" width="74.21875" x="462.890625" y="150.390625"/>
<rect fill="none" height="78.125" rx="54" ry="54" stroke="black" stroke-width="1" width="78.125" x="460.9375" y="148.4375"/>
<rect fill="none" height="82.03125" rx="55" ry="55" stroke="black" stroke-width="1" width="82.03125" x="458.984375" y="146.484375"/>
<rect fill="none" height="85.9375" rx="57" ry="57" stroke="black" stroke-width="1" width="85.9375" x="457.03125" y="144.53125"/>
<rect fill="none" height="89.84375" rx="58" ry="58" stroke="black" stroke-width="1" width="89.84375" x="455.078125" y="142.578125"/>
<rect fill="none" height="93.75" rx="59" ry="59" stroke="black" stroke-width="1" width="93.75" x="453.125" y="140.625"/>
<rect fill="none" height="97.65625" rx="60" ry="60" stroke="black" stroke-width="1" width="97.65625" x="451.171875" y="138.671875"/>
<rect fill="none" height="101.5625" rx="61" ry="61" stroke="black" stroke-width="1" width="101.5625" x="449.21875" y="136.71875"/>
<rect fill="none" height="105.46875" rx="61" ry="61" stroke="black" stroke-width="1" width="105.46875" x="447.265625" y="134.765625"/>
<rect fill="none" height="109.375" rx="62" ry="62" stroke="black" stroke-width="1" width="109.375" x="445.3125" y="132.8125"/>
<rect fill="none" height="113.28125" rx="62" ry="62" stroke="black" stroke-width="1" width="113.28125" x="443.359375" y="130.859375"/>
<rect fill="none" height="117.1875" rx="63" ry="63" stroke="black" stroke-width="1" width="117.1875" x="441.40625" y="128.90625"/>
<rect fill="none" height="121.09375" rx="63" ry="63" stroke="black" stroke-width="1" width="121.09375" x="439.453125" y="126.953125"/>
<rect fill="none" height="125" rx="63" ry="63" stroke="black" stroke-width="1" width="125" x="437.5" y="125"/>
<rect fill="none" height="128.90625" rx="63" ry="63" stroke="black" stroke-width="1" width="128.90625" x="435.546875" y="123.046875"/>
<rect fill="none" height="132.8125" rx="63" ry="63" stroke="black" stroke-width="1" width="132.8125" x="433.59375" y="121.09375"/>
<rect fill="none" height="136.71875" rx="62" ry="62" stroke="black" stroke-width="1" width="136.71875" x="431.640625" y="119.140625"/>
<rect fill="none" height="140.625" rx="62" ry="62" stroke="black" stroke-width="1" width="140.625" x="429.6875" y="117.1875"/>
<rect fill="none" height="144.53125" rx="62" ry="62" stroke="black" stroke-width="1" width="144.53125" x="427.734375" y="115.234375"/>
<rect fill="none" height="148.4375" rx="61" ry="61" stroke="black" stroke-width="1" width="148.4375" x="425.78125" y="113.28125"/>
<rect fill="none" height="152.34375" rx="60" ry="60" stroke="black" stroke-width="1" width="152.34375" x="423.828125" y="111.328125"/>
<rect fill="none" height="156.25" rx="59" ry="59" stroke="black" stroke-width="1" width="156.25" x="421.875" y="109.375"/>
<rect fill="none" height="160.15625" rx="58" ry="58" stroke="black" stroke-width="1" width="160.15625" x="419.921875" y="107.421875"/>
<rect fill="none" height="164.0625" rx="57" ry="57" stroke="black" stroke-width="1" width="164.0625" x="417.96875" y="105.46875"/>
<rect fill="none" height="167.96875" rx="56" ry="56" stroke="black" stroke-width="1" width="167.96875" x="416.015625" y="103.515625"/>
<rect fill="none" height="171.875" rx="54" ry="54" stroke="black" stroke-width="1" width="171.875" x="414.0625" y="101.5625"/>
<rect fill="none" height="175.78125" rx="53" ry="53" stroke="black" stroke-width="1" width="175.78125" x="412.109375" y="99.609375"/>
<rect fill="none" height="179.6875" rx="51" ry="51" stroke="black" stroke-width="1" width="179.6875" x="410.15625" y="97.65625"/>
<rect fill="none" height="183.59375" rx="50" ry="50" stroke="black" stroke-width="1" width="183.59375" x="408.203125" y="95.703125"/>
<rect fill="none" height="187.5" rx="48" ry="48" stroke="black" stroke-width="1" width="187.5" x="406.25" y="93.75"/>
<rect fill="none" height="191.40625" rx="46" ry="46" stroke="black" stroke-width="1" width="191.40625" x="404.296875" y="91.796875"/>
<rect fill="none" height="195.3125" rx="44" ry="44" stroke="black" stroke-width="1" width="195.3125" x="402.34375" y="89.84375"/>
<rect fill="none" height="199.21875" rx="41" ry="41" stroke="black" stroke-width="1" width="199.21875" x="400.390625" y="87.890625"/>
<rect fill="none" height="203.125" rx="39" ry="39" stroke="black" stroke-width="1" width="203.125" x="398.4375" y="85.9375"/>
<rect fill="none" height="207.03125" rx="36" ry="36" stroke="black" stroke-width="1" width="207.03125" x="396.484375" y="83.984375"/>
<rect fill="none" height="210.9375" rx="34" ry="34" stroke="black" stroke-width="1" width="210.9375" x="394.53125" y="82.03125"/>
<rect fill="none" height="214.84375" rx="31" ry="31" stroke="black" stroke-width="1" width="214.84375" x="392.578125" y="80.078125"/>
<rect fill="none" height="218.75" rx="28" ry="28" stroke="black" stroke-width="1" width="218.75" x="390.625" y="78.125"/>
<rect fill="none" height="222.65625" rx="25" ry="25" stroke="black" stroke-width="1" width="222.65625" x="388.671875" y="76.171875"/>
<rect fill="none" height="226.5625" rx="22" ry="22" stroke="black" stroke-width="1" width="226.5625" x="386.71875" y="74.21875"/>
<rect fill="none" height="230.46875" rx="19" ry="19" stroke="black" stroke-width="1" width="230.46875" x="384.765625" y="72.265625"/>
<rect fill="none" height="234.375" rx="16" ry="16" stroke="black" stroke-width="1" width="234.375" x="382.8125" y="70.3125"/>
<rect fill="none" height="238.28125" rx="12" ry="12" stroke="black" stroke-width="1" width="238.28125" x="380.859375" y="68.359375"/>
<rect fill="none" height="242.1875" rx="9" ry="9" stroke="black" stroke-width="1" width="242.1875" x="378.90625" y="66.40625"/>
<rect fill="none" height="246.09375" rx="5" ry="5" stroke="black" stroke-width="1" width="246.09375" x="376.953125" y="64.453125"/>
<rect fill="none" height="250" rx="1" ry="1" stroke="black" stroke-width="1" width="250" x="375" y="62.5"/>
</g>
<g>
<rect fill="none" height="2.192982456140351" rx="2" ry="2" stroke="black" stroke-width="1" width="2.192982456140351" x="811.4035087719299" y="186.40350877192984"/>
<rect fill="none" height="4.385964912280702" rx="4" ry="4" stroke="black" stroke-width="1" width="4.385964912280702" x="810.3070175438596" y="185.30701754385964"/>
<rect fill="none" height="6.578947368421052" rx="6" ry="6" stroke="black" stroke-width="1" width="6.578947368421052" x="809.2105263157895" y="184.21052631578948"/>
<rect fill="none" height="8.771929824561404" rx="8" ry="8" stroke="black" stroke-width="1" width="8.771929824561404" x="808.1140350877193" y="183.1140350877193"/>
<rect fill="none" height="10.964912280701755" rx="11" ry="11" stroke="black" stroke-width="1" width="10.964912280701755" x="807.0175438596491" y="182.01754385964912"/>
<rect fill="none" height="13.157894736842104" rx="13" ry="13" stroke="black" stroke-width="1" width="13.157894736842104" x="805.921052631579" y="180.92105263157896"/>
<rect fill="none" height="15.350877192982455" rx="14" ry="14" stroke="black" stroke-width="1" width="15.350877192982455" x="804.8245614035088" y="179.82456140350877"/>
<rect fill="none" height="17.54385964912281" rx="16" ry="16" stroke="black" stroke-width="1" width="17.54385964912281" x="803.7280701754386" y="178.7280701754386"/>
<rect fill="none" height="19.736842105263158" rx="18" ry="18" stroke="black" stroke-width="1" width="19.736842105263158" x="802.6315789473684" y="177.6315789473684"/>
<rect fill="none" height="21.92982456140351" rx="20" ry="20" stroke="black" stroke-width="1" width="21.92982456140351" x="801.5350877192982" y="176.53508771929825"/>
<rect fill="none" height="24.12280701754386" rx="22" ry="22" stroke="black" stroke-width="1" width="24.12280701754386" x="800.438596491228" y="175.43859649122808"/>
<rect fill="none" height="26.31578947368421" rx="24" ry="24" stroke="black" stroke-width="1" width="26.31578947368421" x="799.3421052631579" y="174.3421052631579"/>
<rect fill="none" height="28.50877192982456" rx="25" ry="25" stroke="black" stroke-width="1" width="28.50877192982456" x="798.2456140350877" y="173.24561403508773"/>
<rect fill="none" height="30.70175438596491" rx="27" ry="27" stroke="black" stroke-width="1" width="30.70175438596491" x="797.1491228070175" y="172.14912280701753"/>
<rect fill="none" height="32.89473684210526" rx="29" ry="29" stroke="black" stroke-width="1" width="32.89473684210526" x="796.0526315789474" y="171.05263157894737"/>
<rect fill="none" height="35.08771929824562" rx="30" ry="30" stroke="black" stroke-width="1" width="35.08771929824562" x="794.9561403508771" y="169.9561403508772"/>
<rect fill="none" height="37.280701754385966" rx="32" ry="32" stroke="black" stroke-width="1" width="37.280701754385966" x="793.859649122807" y="168.859649122807"/>
<rect fill="none" height="39.473684210526315" rx="33" ry="33" stroke="black" stroke-width="1" width="39.473684210526315" x="792.7631578947369" y="167.76315789473685"/>
<rect fill="none" height="41.666666666666664" rx="35" ry="35" stroke="black" stroke-width="1" width="41.666666666666664" x="791.6666666666666" y="166.66666666666666"/>
<rect fill="none" height="43.85964912280702" rx="36" ry="36" stroke="black" stroke-width="1" width="43.85964912280702" x="790.5701754385965" y="165.5701754385965"/>
<rect fill="none" height="46.05263157894737" rx="38" ry="38" stroke="black" stroke-width="1" width="46.05263157894737" x="789.4736842105264" y="164.4736842105263"/>
<rect fill="none" height="48.24561403508772" rx="39" ry="39" stroke="black" stroke-width="1" width="48.24561403508772" x="788.3771929824561" y="163.37719298245614"/>
<rect fill="none" height="50.43859649122807" rx="40" ry="40" stroke="black" stroke-width="1" width="50.43859649122807" x="787.280701754386" y="162.28070175438597"/>
<rect fill="none" height="52.63157894736842" rx="42" ry="42" stroke="black" stroke-width="1" width="52.63157894736842" x="786.1842105263158" y="161.18421052631578"/>
<rect fill="none" height="54.824561403508774" rx="43" ry="43" stroke="black" stroke-width="1" width="54.824561403508774" x="785.0877192982456" y="160.08771929824562"/>
<rect fill="none" height="57.01754385964912" rx="44" ry="44" stroke="black" stroke-width="1" width="57.01754385964912" x="783.9912280701755" y="158.99122807017545"/>
<rect fill="none" height="59.21052631578947" rx="45" ry="45" stroke="black" stroke-width="1" width="59.21052631578947" x="782.8947368421053" y="157.89473684210526"/>
<rect fill="none" height="61.40350877192982" rx="47" ry="47" stroke="black" stroke-width="1" width="61.40350877192982" x="781.7982456140351" y="156.7982456140351"/>
<rect fill="none" height="63.59649122807018" rx="48" ry="48" stroke="black" stroke-width="1" width="63.59649122807018" x="780.7017543859649" y="155.7017543859649"/>
<rect fill="none" height="65.78947368421052" rx="49" ry="49" stroke="black" stroke-width="1" width="65.78947368421052" x="779.6052631578948" y="154.60526315789474"/>
<rect fill="none" height="67.98245614035088" rx="50" ry="50" stroke="black" stroke-width="1" width="67.98245614035088" x="778.5087719298245" y="153.50877192982455"/>
<rect fill="none" height="70.17543859649123" rx="51" ry="51" stroke="black" stroke-width="1" width="70.17543859649123" x="777.4122807017544" y="152.41228070175438"/>
<rect fill="none" height="72.36842105263158" rx="52" ry="52" stroke="black" stroke-width="1" width="72.36842105263158" x="776.3157894736842" y="151.31578947368422"/>
<rect fill="none" height="74.56140350877193" rx="53" ry="53" stroke="black" stroke-width="1" width="74.56140350877193" x="775.219298245614" y="150.21929824561403"/>
<rect fill="none" height="76.75438596491227" rx="53" ry="53" stroke="black" stroke-width="1" width="76.75438596491227" x="774.1228070175439" y="149.12280701754386"/>
<rect fill="none" height="78.94736842105263" rx="54" ry="54" stroke="black" stroke-width="1" width="78.94736842105263" x="773.0263157894736" y="148.0263157894737"/>
<rect fill="none" height="81.14035087719299" rx="55" ry="55" stroke="black" stroke-width="1" width="81.14035087719299" x="771.9298245614035" y="146.9298245614035"/>
<rect fill="none" height="83.33333333333333" rx="56" ry="56" stroke="black" stroke-width="1" width="83.33333333333333" x="770.8333333333334" y="145.83333333333334"/>
<rect fill="none" height="85.52631578947368" rx="57" ry="57" stroke="black" stroke-width="1" width="85.52631578947368" x="769.7368421052631" y="144.73684210526315"/>
<rect fill="none" height="87.71929824561404" rx="57" ry="57" stroke="black" stroke-width="1" width="87.71929824561404" x="768.640350877193" y="143.640350877193"/>
<rect fill="none" height="89.91228070175438" rx="58" ry="58" stroke="black" stroke-width="1" width="89.91228070175438" x="767.5438596491229" y="142.5438596491228"/>
<rect fill="none" height="92.10526315789474" rx="59" ry="59" stroke="black" stroke-width="1" width="92.10526315789474" x="766.4473684210526" y="141.44736842105263"/>
<rect fill="none" height="94.29824561403508" rx="59" ry="59" stroke="black" stroke-width="1" width="94.29824561403508" x="765.3508771929825" y="140.35087719298247"/>
<rect fill="none" height="96.49122807017544" rx="60" ry="60" stroke="black" stroke-width="1" width="96.49122807017544" x="764.2543859649123" y="139.25438596491227"/>
<rect fill="none" height="98.6842105263158" rx="60" ry="60" stroke="black" stroke-width="1" width="98.6842105263158" x="763.1578947368421" y="138.1578947368421"/>
<rect fill="none" height="100.87719298245614" rx="61" ry="61" stroke="black" stroke-width="1" width="100.87719298245614" x="762.061403508772" y="137.06140350877195"/>
<rect fill="none" height="103.0701754385965" rx="61" ry="61" stroke="black" stroke-width="1" width="103.0701754385965" x="760.9649122807018" y="135.96491228070175"/>
<rect fill="none" height="105.26315789473684" rx="61" ry="61" stroke="black" stroke-width="1" width="105.26315789473684" x="759.8684210526316" y="134.8684210526316"/>
<rect fill="none" height="107.45614035087719" rx="62" ry="62" stroke="black" stroke-width="1" width="107.45614035087719" x="758.7719298245614" y="133.7719298245614"/>
<rect fill="none" height="109.64912280701755" rx="62" ry="62" stroke="black" stroke-width="1" width="109.64912280701755" x="757.6754385964912" y="132.67543859649123"/>
<rect fill="none" height="111.84210526315789" rx="62" ry="62" stroke="black" stroke-width="1" width="111.84210526315789" x="756.578947368421" y="131.57894736842104"/>
<rect fill="none" height="114.03508771929825" rx="62" ry="62" stroke="black" stroke-width="1" width="114.03508771929825" x="755.4824561403509" y="130.48245614035088"/>
<rect fill="none" height="116.2280701754386" rx="63" ry="63" stroke="black" stroke-width="1" width="116.2280701754386" x="754.3859649122807" y="129.3859649122807"/>
<rect fill="none" height="118.42105263157895" rx="63" ry="63" stroke="black" stroke-width="1" width="118.42105263157895" x="753.2894736842105" y="128.28947368421052"/>
<rect fill="none" height="120.6140350877193" rx="63" ry="63" stroke="black" stroke-width="1" width="120.6140350877193" x="752.1929824561404" y="127.19298245614036"/>
<rect fill="none" height="122.80701754385964" rx="63" ry="63" stroke="black" stroke-width="1" width="122.80701754385964" x="751.0964912280701" y="126.09649122807018"/>
<rect fill="none" height="125" rx="63" ry="63" stroke="black" stroke-width="1" width="125" x="750" y="125"/>
<rect fill="none" height="127.19298245614036" rx="63" ry="63" stroke="black" stroke-width="1" width="127.19298245614036" x="748.9035087719299" y="123.90350877192982"/>
<rect fill="none" height="129.3859649122807" rx="63" ry="63" stroke="black" stroke-width="1" width="129.3859649122807" x="747.8070175438596" y="122.80701754385964"/>
<rect fill="none" height="131.57894736842104" rx="63" ry="63" stroke="black" stroke-width="1" width="131.57894736842104" x="746.7105263157895" y="121.71052631578948"/>
<rect fill="none" height="133.7719298245614" rx="63" ry="63" stroke="black" stroke-width="1" width="133.7719298245614" x="745.6140350877193" y="120.6140350877193"/>
<rect fill="none" height="135.96491228070175" rx="63" ry="63" stroke="black" stroke-width="1" width="135.96491228070175" x="744.5175438596491" y="119.51754385964912"/>
<rect fill="none" height="138.1578947368421" rx="62" ry="62" stroke="black" stroke-width="1" width="138.1578947368421" x="743.421052631579" y="118.42105263157895"/>
<rect fill="none" height="140.35087719298247" rx="62" ry="62" stroke="black" stroke-width="1" width="140.35087719298247" x="742.3245614035088" y="117.32456140350877"/>
<rect fill="none" height="142.5438596491228" rx="62" ry="62" stroke="black" stroke-width="1" width="142.5438596491228" x="741.2280701754386" y="116.2280701754386"/>
<rect fill="none" height="144.73684210526315" rx="62" ry="62" stroke="black" stroke-width="1" width="144.73684210526315" x="740.1315789473684" y="115.13157894736842"/>
<rect fill="none" height="146.9298245614035" rx="61" ry="61" stroke="black" stroke-width="1" width="146.9298245614035" x="739.0350877192982" y="114.03508771929825"/>
<rect fill="none" height="149.12280701754386" rx="61" ry="61" stroke="black" stroke-width="1" width="149.12280701754386" x="737.938596491228" y="112.93859649122807"/>
<rect fill="none" height="151.31578947368422" rx="60" ry="60" stroke="black" stroke-width="1" width="151.31578947368422" x="736.8421052631579" y="111.84210526315789"/>
<rect fill="none" height="153.50877192982455" rx="60" ry="60" stroke="black" stroke-width="1" width="153.50877192982455" x="735.7456140350878" y="110.74561403508773"/>
<rect fill="none" height="155.7017543859649" rx="59" ry="59" stroke="black" stroke-width="1" width="155.7017543859649" x="734.6491228070175" y="109.64912280701755"/>
<rect fill="none" height="157.89473684210526" rx="59" ry="59" stroke="black" stroke-width="1" width="157.89473684210526" x="733.5526315789474" y="108.55263157894737"/>
<rect fill="none" height="160.08771929824562" rx="58" ry="58" stroke="black" stroke-width="1" width="160.08771929824562" x="732.4561403508771" y="107.45614035087719"/>
<rect fill="none" height="162.28070175438597" rx="58" ry="58" stroke="black" stroke-width="1" width="162.28070175438597" x="731.359649122807" y="106.35964912280701"/>
<rect fill="none" height="164.47368421052633" rx="57" ry="57" stroke="black" stroke-width="1" width="164.47368421052633" x="730.2631578947369" y="105.26315789473684"/>
<rect fill="none" height="166.66666666666666" rx="56" ry="56" stroke="black" stroke-width="1" width="166.66666666666666" x="729.1666666666666" y="104.16666666666667"/>
<rect fill="none" height="168.859649122807" rx="55" ry="55" stroke="black" stroke-width="1" width="168.859649122807" x="728.0701754385965" y="103.0701754385965"/>
<rect fill="none" height="171.05263157894737" rx="55" ry="55" stroke="black" stroke-width="1" width="171.05263157894737" x="726.9736842105264" y="101.97368421052632"/>
<rect fill="none" height="173.24561403508773" rx="54" ry="54" stroke="black" stroke-width="1" width="173.24561403508773" x="725.8771929824561" y="100.87719298245614"/>
<rect fill="none" height="175.43859649122808" rx="53" ry="53" stroke="black" stroke-width="1" width="175.43859649122808" x="724.780701754386" y="99.78070175438596"/>
<rect fill="none" height="177.6315789473684" rx="52" ry="52" stroke="black" stroke-width="1" width="177.6315789473684" x="723.6842105263158" y="98.6842105263158"/>
<rect fill="none" height="179.82456140350877" rx="51" ry="51" stroke="black" stroke-width="1" width="179.82456140350877" x="722.5877192982456" y="97.58771929824562"/>
<rect fill="none" height="182.01754385964912" rx="50" ry="50" stroke="black" stroke-width="1" width="182.01754385964912" x="721.4912280701755" y="96.49122807017544"/>
<rect fill="none" height="184.21052631578948" rx="49" ry="49" stroke="black" stroke-width="1" width="184.21052631578948" x="720.3947368421052" y="95.39473684210526"/>
<rect fill="none" height="186.40350877192984" rx="48" ry="48" stroke="black" stroke-width="1" width="186.40350877192984" x="719.2982456140351" y="94.29824561403508"/>
<rect fill="none" height="188.59649122807016" rx="47" ry="47" stroke="black" stroke-width="1" width="188.59649122807016" x="718.2017543859649" y="93.20175438596492"/>
<rect fill="none" height="190.78947368421052" rx="46" ry="46" stroke="black" stroke-width="1" width="190.78947368421052" x="717.1052631578948" y="92.10526315789474"/>
<rect fill="none" height="192.98245614035088" rx="45" ry="45" stroke="black" stroke-width="1" width="192.98245614035088" x="716.0087719298245" y="91.00877192982456"/>
<rect fill="none" height="195.17543859649123" rx="44" ry="44" stroke="black" stroke-width="1" width="195.17543859649123" x="714.9122807017544" y="89.91228070175438"/>
<rect fill="none" height="197.3684210526316" rx="42" ry="42" stroke="black" stroke-width="1" width="197.3684210526316" x="713.8157894736842" y="88.8157894736842"/>
<rect fill="none" height="199.56140350877192" rx="41" ry="41" stroke="black" stroke-width="1" width="199.56140350877192" x="712.719298245614" y="87.71929824561404"/>
<rect fill="none" height="201.75438596491227" rx="40" ry="40" stroke="black" stroke-width="1" width="201.75438596491227" x="711.6228070175439" y="86.62280701754386"/>
<rect fill="none" height="203.94736842105263" rx="38" ry="38" stroke="black" stroke-width="1" width="203.94736842105263" x="710.5263157894736" y="85.52631578947368"/>
<rect fill="none" height="206.140350877193" rx="37" ry="37" stroke="black" stroke-width="1" width="206.140350877193" x="709.4298245614035" y="84.4298245614035"/>
<rect fill="none" height="208.33333333333334" rx="36" ry="36" stroke="black" stroke-width="1" width="208.33333333333334" x="708.3333333333334" y="83.33333333333333"/>
<rect fill="none" height="210.52631578947367" rx="34" ry="34" stroke="black" stroke-width="1" width="210.52631578947367" x="707.2368421052631" y="82.23684210526316"/>
<rect fill="none" height="212.71929824561403" rx="33" ry="33" stroke="black" stroke-width="1" width="212.71929824561403" x="706.140350877193" y="81.14035087719299"/>
<rect fill="none" height="214.91228070175438" rx="31" ry="31" stroke="black" stroke-width="1" width="214.91228070175438" x="705.0438596491229" y="80.04385964912281"/>
<rect fill="none" height="217.10526315789474" rx="29" ry="29" stroke="black" stroke-width="1" width="217.10526315789474" x="703.9473684210526" y="78.94736842105263"/>
<rect fill="none" height="219.2982456140351" rx="28" ry="28" stroke="black" stroke-width="1" width="219.2982456140351" x="702.8508771929825" y="77.85087719298245"/>
<rect fill="none" height="221.49122807017545" rx="26" ry="26" stroke="black" stroke-width="1" width="221.49122807017545" x="701.7543859649122" y="76.75438596491227"/>
<rect fill="none" height="223.68421052631578" rx="24" ry="24" stroke="black" stroke-width="1" width="223.68421052631578" x="700.6578947368421" y="75.65789473684211"/>
<rect fill="none" height="225.87719298245614" rx="23" ry="23" stroke="black" stroke-width="1" width="225.87719298245614" x="699.561403508772" y="74.56140350877193"/>
<rect fill="none" height="228.0701754385965" rx="21" ry="21" stroke="black" stroke-width="1" width="228.0701754385965" x="698.4649122807018" y="73.46491228070175"/>
<rect fill="none" height="230.26315789473685" rx="19" ry="19" stroke="black" stroke-width="1" width="230.26315789473685" x="697.3684210526316" y="72.36842105263158"/>
<rect fill="none" height="232.4561403508772" rx="17" ry="17" stroke="black" stroke-width="1" width="232.4561403508772" x="696.2719298245614" y="71.2719298245614"/>
<rect fill="none" height="234.64912280701753" rx="15" ry="15" stroke="black" stroke-width="1" width="234.64912280701753" x="695.1754385964912" y="70.17543859649123"/>
<rect fill="none" height="236.8421052631579" rx="13" ry="13" stroke="black" stroke-width="1" width="236.8421052631579" x="694.078947368421" y="69.07894736842105"/>
<rect fill="none" height="239.03508771929825" rx="11" ry="11" stroke="black" stroke-width="1" width="239.03508771929825" x="692.9824561403509" y="67.98245614035088"/>
<rect fill="none" height="241.2280701754386" rx="9" ry="9" stroke="black" stroke-width="1" width="241.2280701754386" x="691.8859649122807" y="66.8859649122807"/>
<rect fill="none" height="243.42105263157896" rx="7" ry="7" stroke="black" stroke-width="1" width="243.42105263157896" x="690.7894736842105" y="65.78947368421052"/>
<rect fill="none" height="245.6140350877193" rx="5" ry="5" stroke="black" stroke-width="1" width="245.6140350877193" x="689.6929824561404" y="64.69298245614036"/>
<rect fill="none" height="247.80701754385964" rx="3" ry="3" stroke="black" stroke-width="1" width="247.80701754385964" x="688.5964912280701" y="63.59649122807018"/>
<rect fill="none" height="250" rx="1" ry="1" stroke="black" stroke-width="1" width="250" x="687.5" y="62.5"/>
</g>
</svg>