<svg viewBox="0 0 1000 375" xmlns="http://www.w3.org/2000/svg">
<g>
<path d="M132.45833,62.5 L132.45833,62.5 L132.45833,62.5 L132.45833,62.5 z" fill="none" stroke="black" stroke-width="1"/>
<path d="M127.4613,62.5 L145.31845,62.5 L145.31845,80.35714 L127.4613,80.35714 z" fill="none" stroke="black" stroke-width="1"/>
<path d="M122.46428,62.5 L158.17856,62.5 L158.17856,98.21429 L122.46428,98.21429 z" fill="none" stroke="black" stroke-width="1"/>
<path d="M117.467255,62.5 L171.03868,62.5 L171.03868,116.07143 L117.467255,116.07143 z" fill="none" stroke="black" stroke-width="1"/>
<path d="M112.47023,62.5 L183.8988,62.5 L183.8988,133.92857 L112.47023,133.92857 z" fill="none" stroke="black" stroke-width="1"/>
<path d="M107.473206,62.5 L196.75893,62.5 L196.75893,151.78572 L107.473206,151.78572 z" fill="none" stroke="black" stroke-width="1"/>
<path d="M102.47619,62.5 L209.61905,62.5 L209.61905,169.64285 L102.47619,169.64285 z" fill="none" stroke="black" stroke-width="1"/>
<path d="M97.479164,62.5 L222.47916,62.5 L222.47916,187.5 L97.479164,187.5 z" fill="none" stroke="black" stroke-width="1"/>
<path d="M92.48214,62.5 L235.33928,62.5 L235.33928,205.35715 L92.48214,205.35715 z" fill="none" stroke="black" stroke-width="1"/>
<path d="M87.485115,62.5 L248.1994,62.5 L248.1994,223.21428 L87.485115,223.21428 z" fill="none" stroke="black" stroke-width="1"/>
<path d="M82.48809,62.5 L261.0595,62.5 L261.0595,241.07143 L82.48809,241.07143 z" fill="none" stroke="black" stroke-width="1"/>
<path d="M77.491066,62.5 L273.91965,62.5 L273.91965,258.92856 L77.491066,258.92856 z" fill="none" stroke="black" stroke-width="1"/>
<path d="M72.49405,62.5 L286.77975,62.5 L286.77975,276.7857 L72.49405,276.7857 z" fill="none" stroke="black" stroke-width="1"/>
<path d="M67.497025,62.5 L299.6399,62.5 L299.6399,294.64285 L67.497025,294.64285 z" fill="none" stroke="black" stroke-width="1"/>
<path d="M62.5,62.5 L312.5,62.5 L312.5,312.5 L62.5,312.5 z" fill="none" stroke="black" stroke-width="1"/>
</g>
<g>
<path d="M554.71075,118.59868 L554.71075,118.59868 L554.71075,118.59868 L554.71075,118.59868 z" fill="none" stroke="black" stroke-width="1"/>
<path d="M551.9028,117.72214 L555.809,117.72214 L555.809,121.62839 L551.9028,121.62839 z" fill="none" stroke="black" stroke-width="1"/>
<path d="M549.0948,116.8456 L556.9073,116.8456 L556.9073,124.6581 L549.0948,124.6581 z" fill="none" stroke="black" stroke-width="1"/>
<path d="M546.2868,115.969055 L558.00555,115.969055 L558.00555,127.687805 L546.2868,127.687805 z" fill="none" stroke="black" stroke-width="1"/>
<path d="M543.4788,115.092514 L559.1038,115.092514 L559.1038,130.71751 L543.4788,130.71751 z" fill="none" stroke="black" stroke-width="1"/>
<path d="M540.67084,114.21597 L560.2021,114.21597 L560.2021,133.74722 L540.67084,133.74722 z" fill="none" stroke="black" stroke-width="1"/>
<path d="M537.86285,113.33943 L561.30035,113.33943 L561.30035,136.77693 L537.86285,136.77693 z" fill="none" stroke="black" stroke-width="1"/>
<path d="M535.0549,112.46289 L562.3986,112.46289 L562.3986,139.80664 L535.0549,139.80664 z" fill="none" stroke="black" stroke-width="1"/>
<path d="M532.2469,111.58634 L563.4969,111.58634 L563.4969,142.83635 L532.2469,142.83635 z" fill="none" stroke="black" stroke-width="1"/>
<path d="M529.4389,110.7098 L564.59515,110.7098 L564.59515,145.86606 L529.4389,145.86606 z" fill="none" stroke="black" stroke-width="1"/>
<path d="M526.6309,109.83326 L565.6934,109.83326 L565.6934,148.89577 L526.6309,148.89577 z" fill="none" stroke="black" stroke-width="1"/>
<path d="M523.82294,108.95672 L566.7917,108.95672 L566.7917,151.92548 L523.82294,151.92548 z" fill="none" stroke="black" stroke-width="1"/>
<path d="M521.01495,108.08018 L567.88995,108.08018 L567.88995,154.95518 L521.01495,154.95518 z" fill="none" stroke="black" stroke-width="1"/>
<path d="M518.207,107.203636 L568.9882,107.203636 L568.9882,157.98488 L518.207,157.98488 z" fill="none" stroke="black" stroke-width="1"/>
<path d="M515.399,106.327095 L570.0865,106.327095 L570.0865,161.01459 L515.399,161.01459 z" fill="none" stroke="black" stroke-width="1"/>
<path d="M512.591,105.450554 L571.18475,105.450554 L571.18475,164.0443 L512.591,164.0443 z" fill="none" stroke="black" stroke-width="1"/>
<path d="M509.78305,104.57401 L572.2831,104.57401 L572.2831,167.074 L509.78305,167.074 z" fill="none" stroke="black" stroke-width="1"/>
<path d="M506.97507,103.69747 L573.38135,103.69747 L573.38135,170.10371 L506.97507,170.10371 z" fill="none" stroke="black" stroke-width="1"/>
<path d="M504.16708,102.82092 L574.4796,102.82092 L574.4796,173.13342 L504.16708,173.13342 z" fill="none" stroke="black" stroke-width="1"/>
<path d="M501.3591,101.94438 L575.5779,101.94438 L575.5779,176.16313 L501.3591,176.16313 z" fill="none" stroke="black" stroke-width="1"/>
<path d="M498.55112,101.06784 L576.67615,101.06784 L576.67615,179.19284 L498.55112,179.19284 z" fill="none" stroke="black" stroke-width="1"/>
<path d="M495.74316,100.1913 L577.7744,100.1913 L577.7744,182.22255 L495.74316,182.22255 z" fill="none" stroke="black" stroke-width="1"/>
<path d="M492.93518,99.31476 L578.8727,99.31476 L578.8727,185.25226 L492.93518,185.25226 z" fill="none" stroke="black" stroke-width="1"/>
<path d="M490.1272,98.43822 L579.97095,98.43822 L579.97095,188.28197 L490.1272,188.28197 z" fill="none" stroke="black" stroke-width="1"/>
<path d="M487.3192,97.561676 L581.0692,97.561676 L581.0692,191.31168 L487.3192,191.31168 z" fill="none" stroke="black" stroke-width="1"/>
<path d="M484.51123,96.685135 L582.1675,96.685135 L582.1675,194.34138 L484.51123,194.34138 z" fill="none" stroke="black" stroke-width="1"/>
<path d="M481.70325,95.80859 L583.26575,95.80859 L583.26575,197.3711 L481.70325,197.3711 z" fill="none" stroke="black" stroke-width="1"/>
<path d="M478.89526,94.93205 L584.364,94.93205 L584.364,200.4008 L478.89526,200.4008 z" fill="none" stroke="black" stroke-width="1"/>
<path d="M476.08728,94.055504 L585.4623,94.055504 L585.4623,203.43051 L476.08728,203.43051 z" fill="none" stroke="black" stroke-width="1"/>
<path d="M473.2793,93.17896 L586.56055,93.17896 L586.56055,206.46022 L473.2793,206.46022 z" fill="none" stroke="black" stroke-width="1"/>
<path d="M470.47134,92.30242 L587.6588,92.30242 L587.6588,209.48993 L470.47134,209.48993 z" fill="none" stroke="black" stroke-width="1"/>
<path d="M467.66336,91.42588 L588.7571,91.42588 L588.7571,212.51964 L467.66336,212.51964 z" fill="none" stroke="black" stroke-width="1"/>
<path d="M464.85538,90.54934 L589.85535,90.54934 L589.85535,215.54935 L464.85538,215.54935 z" fill="none" stroke="black" stroke-width="1"/>
<path d="M462.0474,89.6728 L590.9536,89.6728 L590.9536,218.57906 L462.0474,218.57906 z" fill="none" stroke="black" stroke-width="1"/>
<path d="M459.2394,88.79626 L592.0519,88.79626 L592.0519,221.60875 L459.2394,221.60875 z" fill="none" stroke="black" stroke-width="1"/>
<path d="M456.43143,87.919716 L593.1502,87.919716 L593.1502,224.63846 L456.43143,224.63846 z" fill="none" stroke="black" stroke-width="1"/>
<path d="M453.62344,87.043175 L594.2485,87.043175 L594.2485,227.66817 L453.62344,227.66817 z" fill="none" stroke="black" stroke-width="1"/>
<path d="M450.81546,86.16663 L595.34674,86.16663 L595.34674,230.69788 L450.81546,230.69788 z" fill="none" stroke="black" stroke-width="1"/>
<path d="M448.00748,85.29009 L596.445,85.29009 L596.445,233.72758 L448.00748,233.72758 z" fill="none" stroke="black" stroke-width="1"/>
<path d="M445.1995,84.41354 L597.5433,84.41354 L597.5433,236.7573 L445.1995,236.7573 z" fill="none" stroke="black" stroke-width="1"/>
<path d="M442.39154,83.537 L598.64154,83.537 L598.64154,239.787 L442.39154,239.787 z" fill="none" stroke="black" stroke-width="1"/>
<path d="M439.58356,82.66046 L599.7398,82.66046 L599.7398,242.81671 L439.58356,242.81671 z" fill="none" stroke="black" stroke-width="1"/>
<path d="M436.77557,81.78392 L600.8381,81.78392 L600.8381,245.84642 L436.77557,245.84642 z" fill="none" stroke="black" stroke-width="1"/>
<path d="M433.9676,80.90738 L601.93634,80.90738 L601.93634,248.87613 L433.9676,248.87613 z" fill="none" stroke="black" stroke-width="1"/>
<path d="M431.1596,80.03084 L603.0346,80.03084 L603.0346,251.90584 L431.1596,251.90584 z" fill="none" stroke="black" stroke-width="1"/>
<path d="M428.35162,79.1543 L604.1329,79.1543 L604.1329,254.93555 L428.35162,254.93555 z" fill="none" stroke="black" stroke-width="1"/>
<path d="M425.54364,78.277756 L605.23114,78.277756 L605.23114,257.96524 L425.54364,257.96524 z" fill="none" stroke="black" stroke-width="1"/>
<path d="M422.73566,77.401215 L606.3294,77.401215 L606.3294,260.99496 L422.73566,260.99496 z" fill="none" stroke="black" stroke-width="1"/>
<path d="M419.92767,76.52467 L607.4277,76.52467 L607.4277,264.02466 L419.92767,264.02466 z" fill="none" stroke="black" stroke-width="1"/>
<path d="M417.1197,75.648125 L608.52594,75.648125 L608.52594,267.05438 L417.1197,267.05438 z" fill="none" stroke="black" stroke-width="1"/>
<path d="M414.31174,74.77158 L609.6242,74.77158 L609.6242,270.08408 L414.31174,270.08408 z" fill="none" stroke="black" stroke-width="1"/>
<path d="M411.50375,73.89504 L610.7225,73.89504 L610.7225,273.1138 L411.50375,273.1138 z" fill="none" stroke="black" stroke-width="1"/>
<path d="M408.69577,73.0185 L611.82074,73.0185 L611.82074,276.1435 L408.69577,276.1435 z" fill="none" stroke="black" stroke-width="1"/>
<path d="M405.8878,72.14196 L612.919,72.14196 L612.919,279.17322 L405.8878,279.17322 z" fill="none" stroke="black" stroke-width="1"/>
<path d="M403.0798,71.26542 L614.0173,71.26542 L614.0173,282.2029 L403.0798,282.2029 z" fill="none" stroke="black" stroke-width="1"/>
<path d="M400.27182,70.38888 L615.1156,70.38888 L615.1156,285.23264 L400.27182,285.23264 z" fill="none" stroke="black" stroke-width="1"/>
<path d="M397.46384,69.51234 L616.21387,69.51234 L616.21387,288.26233 L397.46384,288.26233 z" fill="none" stroke="black" stroke-width="1"/>
<path d="M394.65585,68.635796 L617.31213,68.635796 L617.31213,291.29205 L394.65585,291.29205 z" fill="none" stroke="black" stroke-width="1"/>
<path d="M391.84787,67.759254 L618.4104,67.759254 L618.4104,294.32175 L391.84787,294.32175 z" fill="none" stroke="black" stroke-width="1"/>
<path d="M389.0399,66.882706 L619.50867,66.882706 L619.50867,297.35147 L389.0399,297.35147 z" fill="none" stroke="black" stroke-width="1"/>
<path d="M386.23193,66.006165 L620.60693,66.006165 L620.60693,300.38116 L386.23193,300.38116 z" fill="none" stroke="black" stroke-width="1"/>
<path d="M383.42395,65.12962 L621.7052,65.12962 L621.7052,303.4109 L383.42395,303.4109 z" fill="none" stroke="black" stroke-width="1"/>
<path d="M380.61597,64.25308 L622.80347,64.25308 L622.80347,306.44058 L380.61597,306.44058 z" fill="none" stroke="black" stroke-width="1"/>
<path d="M377.80798,63.37654 L623.90173,63.37654 L623.90173,309.4703 L377.80798,309.4703 z" fill="none" stroke="black" stroke-width="1"/>
<path d="M375,62.5 L625,62.5 L625,312.5 L375,312.5 z" fill="none" stroke="black" stroke-width="1"/>
</g>
<g>
<path d="M762.60895,216.31577 L762.60895,216.31577 L762.60895,216.31577 L762.60895,216.31577 z" fill="none" stroke="black" stroke-width="1"/>
<path d="M761.95013,214.9665 L764.1431,214.9665 L764.1431,217.15948 L761.95013,217.15948 z" fill="none" stroke="black" stroke-width="1"/>
<path d="M761.29126,213.61725 L765.67725,213.61725 L765.67725,218.0032 L761.29126,218.0032 z" fill="none" stroke="black" stroke-width="1"/>
<path d="M760.63245,212.26799 L767.21136,212.26799 L767.21136,218.84694 L760.63245,218.84694 z" fill="none" stroke="black" stroke-width="1"/>
<path d="M759.9736,210.91872 L768.7455,210.91872 L768.7455,219.69066 L759.9736,219.69066 z" fill="none" stroke="black" stroke-width="1"/>
<path d="M759.3147,209.56946 L770.2796,209.56946 L770.2796,220.53438 L759.3147,220.53438 z" fill="none" stroke="black" stroke-width="1"/>
<path d="M758.6559,208.2202 L771.8138,208.2202 L771.8138,221.3781 L758.6559,221.3781 z" fill="none" stroke="black" stroke-width="1"/>
<path d="M757.997,206.87094 L773.3479,206.87094 L773.3479,222.22182 L757.997,222.22182 z" fill="none" stroke="black" stroke-width="1"/>
<path d="M757.33813,205.52168 L774.882,205.52168 L774.882,223.06554 L757.33813,223.06554 z" fill="none" stroke="black" stroke-width="1"/>
<path d="M756.6793,204.17242 L776.41614,204.17242 L776.41614,223.90926 L756.6793,223.90926 z" fill="none" stroke="black" stroke-width="1"/>
<path d="M756.02045,202.82315 L777.9503,202.82315 L777.9503,224.75298 L756.02045,224.75298 z" fill="none" stroke="black" stroke-width="1"/>
<path d="M755.36163,201.47389 L779.48444,201.47389 L779.48444,225.59671 L755.36163,225.59671 z" fill="none" stroke="black" stroke-width="1"/>
<path d="M754.70276,200.12463 L781.01855,200.12463 L781.01855,226.44043 L754.70276,226.44043 z" fill="none" stroke="black" stroke-width="1"/>
<path d="M754.0439,198.77538 L782.5527,198.77538 L782.5527,227.28415 L754.0439,227.28415 z" fill="none" stroke="black" stroke-width="1"/>
<path d="M753.3851,197.42612 L784.0868,197.42612 L784.0868,228.12787 L753.3851,228.12787 z" fill="none" stroke="black" stroke-width="1"/>
<path d="M752.7262,196.07686 L785.621,196.07686 L785.621,228.97159 L752.7262,228.97159 z" fill="none" stroke="black" stroke-width="1"/>
<path d="M752.0674,194.72758 L787.1551,194.72758 L787.1551,229.8153 L752.0674,229.8153 z" fill="none" stroke="black" stroke-width="1"/>
<path d="M751.4085,193.37833 L788.6892,193.37833 L788.6892,230.65903 L751.4085,230.65903 z" fill="none" stroke="black" stroke-width="1"/>
<path d="M750.74963,192.02907 L790.2233,192.02907 L790.2233,231.50275 L750.74963,231.50275 z" fill="none" stroke="black" stroke-width="1"/>
<path d="M750.0908,190.67981 L791.75745,190.67981 L791.75745,232.34647 L750.0908,232.34647 z" fill="none" stroke="black" stroke-width="1"/>
<path d="M749.43195,189.33055 L793.2916,189.33055 L793.2916,233.1902 L749.43195,233.1902 z" fill="none" stroke="black" stroke-width="1"/>
<path d="M748.77313,187.98128 L794.82574,187.98128 L794.82574,234.03392 L748.77313,234.03392 z" fill="none" stroke="black" stroke-width="1"/>
<path d="M748.11426,186.63202 L796.35986,186.63202 L796.35986,234.87764 L748.11426,234.87764 z" fill="none" stroke="black" stroke-width="1"/>
<path d="M747.4554,185.28276 L797.894,185.28276 L797.894,235.72136 L747.4554,235.72136 z" fill="none" stroke="black" stroke-width="1"/>
<path d="M746.7966,183.9335 L799.42816,183.9335 L799.42816,236.56508 L746.7966,236.56508 z" fill="none" stroke="black" stroke-width="1"/>
<path d="M746.1377,182.58424 L800.9623,182.58424 L800.9623,237.4088 L746.1377,237.4088 z" fill="none" stroke="black" stroke-width="1"/>
<path d="M745.4789,181.23499 L802.4964,181.23499 L802.4964,238.25252 L745.4789,238.25252 z" fill="none" stroke="black" stroke-width="1"/>
<path d="M744.82,179.88571 L804.0305,179.88571 L804.0305,239.09624 L744.82,239.09624 z" fill="none" stroke="black" stroke-width="1"/>
<path d="M744.16113,178.53645 L805.56464,178.53645 L805.56464,239.93997 L744.16113,239.93997 z" fill="none" stroke="black" stroke-width="1"/>
<path d="M743.5023,177.1872 L807.0988,177.1872 L807.0988,240.78369 L743.5023,240.78369 z" fill="none" stroke="black" stroke-width="1"/>
<path d="M742.84344,175.83794 L808.63293,175.83794 L808.63293,241.62741 L742.84344,241.62741 z" fill="none" stroke="black" stroke-width="1"/>
<path d="M742.1846,174.48868 L810.16705,174.48868 L810.16705,242.47113 L742.1846,242.47113 z" fill="none" stroke="black" stroke-width="1"/>
<path d="M741.52576,173.13942 L811.7012,173.13942 L811.7012,243.31485 L741.52576,243.31485 z" fill="none" stroke="black" stroke-width="1"/>
<path d="M740.8669,171.79015 L813.2353,171.79015 L813.2353,244.15857 L740.8669,244.15857 z" fill="none" stroke="black" stroke-width="1"/>
<path d="M740.20807,170.44089 L814.7695,170.44089 L814.7695,245.00229 L740.20807,245.00229 z" fill="none" stroke="black" stroke-width="1"/>
<path d="M739.5492,169.09163 L816.3036,169.09163 L816.3036,245.84601 L739.5492,245.84601 z" fill="none" stroke="black" stroke-width="1"/>
<path d="M738.8903,167.74237 L817.8377,167.74237 L817.8377,246.68974 L738.8903,246.68974 z" fill="none" stroke="black" stroke-width="1"/>
<path d="M738.2315,166.39311 L819.3718,166.39311 L819.3718,247.53346 L738.2315,247.53346 z" fill="none" stroke="black" stroke-width="1"/>
<path d="M737.57263,165.04384 L820.906,165.04384 L820.906,248.37718 L737.57263,248.37718 z" fill="none" stroke="black" stroke-width="1"/>
<path d="M736.9138,163.69458 L822.4401,163.69458 L822.4401,249.2209 L736.9138,249.2209 z" fill="none" stroke="black" stroke-width="1"/>
<path d="M736.25494,162.34532 L823.97424,162.34532 L823.97424,250.06462 L736.25494,250.06462 z" fill="none" stroke="black" stroke-width="1"/>
<path d="M735.59607,160.99606 L825.50836,160.99606 L825.50836,250.90834 L735.59607,250.90834 z" fill="none" stroke="black" stroke-width="1"/>
<path d="M734.93726,159.6468 L827.0425,159.6468 L827.0425,251.75206 L734.93726,251.75206 z" fill="none" stroke="black" stroke-width="1"/>
<path d="M734.2784,158.29755 L828.57666,158.29755 L828.57666,252.59578 L734.2784,252.59578 z" fill="none" stroke="black" stroke-width="1"/>
<path d="M733.61957,156.94827 L830.1108,156.94827 L830.1108,253.43951 L733.61957,253.43951 z" fill="none" stroke="black" stroke-width="1"/>
<path d="M732.9607,155.59901 L831.6449,155.59901 L831.6449,254.28323 L732.9607,254.28323 z" fill="none" stroke="black" stroke-width="1"/>
<path d="M732.3018,154.24976 L833.179,154.24976 L833.179,255.12695 L732.3018,255.12695 z" fill="none" stroke="black" stroke-width="1"/>
<path d="M731.643,152.9005 L834.7132,152.9005 L834.7132,255.97067 L731.643,255.97067 z" fill="none" stroke="black" stroke-width="1"/>
<path d="M730.98413,151.55124 L836.2473,151.55124 L836.2473,256.8144 L730.98413,256.8144 z" fill="none" stroke="black" stroke-width="1"/>
<path d="M730.3253,150.20197 L837.78143,150.20197 L837.78143,257.6581 L730.3253,257.6581 z" fill="none" stroke="black" stroke-width="1"/>
<path d="M729.66644,148.8527 L839.31555,148.8527 L839.31555,258.50183 L729.66644,258.50183 z" fill="none" stroke="black" stroke-width="1"/>
<path d="M729.00757,147.50345 L840.8497,147.50345 L840.8497,259.34555 L729.00757,259.34555 z" fill="none" stroke="black" stroke-width="1"/>
<path d="M728.34875,146.15419 L842.38385,146.15419 L842.38385,260.18927 L728.34875,260.18927 z" fill="none" stroke="black" stroke-width="1"/>
<path d="M727.6899,144.80493 L843.91797,144.80493 L843.91797,261.033 L727.6899,261.033 z" fill="none" stroke="black" stroke-width="1"/>
<path d="M727.03107,143.45567 L845.4521,143.45567 L845.4521,261.8767 L727.03107,261.8767 z" fill="none" stroke="black" stroke-width="1"/>
<path d="M726.3722,142.1064 L846.9862,142.1064 L846.9862,262.72043 L726.3722,262.72043 z" fill="none" stroke="black" stroke-width="1"/>
<path d="M725.7133,140.75714 L848.5203,140.75714 L848.5203,263.56415 L725.7133,263.56415 z" fill="none" stroke="black" stroke-width="1"/>
<path d="M725.0545,139.40788 L850.0545,139.40788 L850.0545,264.4079 L725.0545,264.4079 z" fill="none" stroke="black" stroke-width="1"/>
<path d="M724.3956,138.05862 L851.5886,138.05862 L851.5886,265.25162 L724.3956,265.25162 z" fill="none" stroke="black" stroke-width="1"/>
<path d="M723.73676,136.70937 L853.12274,136.70937 L853.12274,266.09534 L723.73676,266.09534 z" fill="none" stroke="black" stroke-width="1"/>
<path d="M723.07794,135.3601 L854.65686,135.3601 L854.65686,266.93906 L723.07794,266.93906 z" fill="none" stroke="black" stroke-width="1"/>
<path d="M722.41907,134.01083 L856.19104,134.01083 L856.19104,267.78278 L722.41907,267.78278 z" fill="none" stroke="black" stroke-width="1"/>
<path d="M721.76025,132.66158 L857.72516,132.66158 L857.72516,268.6265 L721.76025,268.6265 z" fill="none" stroke="black" stroke-width="1"/>
<path d="M721.1014,131.31232 L859.2593,131.31232 L859.2593,269.4702 L721.1014,269.4702 z" fill="none" stroke="black" stroke-width="1"/>
<path d="M720.4425,129.96306 L860.7934,129.96306 L860.7934,270.31393 L720.4425,270.31393 z" fill="none" stroke="black" stroke-width="1"/>
<path d="M719.7837,128.6138 L862.3275,128.6138 L862.3275,271.15765 L719.7837,271.15765 z" fill="none" stroke="black" stroke-width="1"/>
<path d="M719.1248,127.264534 L863.8617,127.264534 L863.8617,272.00137 L719.1248,272.00137 z" fill="none" stroke="black" stroke-width="1"/>
<path d="M718.466,125.915276 L865.3958,125.915276 L865.3958,272.8451 L718.466,272.8451 z" fill="none" stroke="black" stroke-width="1"/>
<path d="M717.8071,124.56601 L866.92993,124.56601 L866.92993,273.6888 L717.8071,273.6888 z" fill="none" stroke="black" stroke-width="1"/>
<path d="M717.14825,123.21675 L868.46405,123.21675 L868.46405,274.53253 L717.14825,274.53253 z" fill="none" stroke="black" stroke-width="1"/>
<path d="M716.48944,121.86749 L869.99817,121.86749 L869.99817,275.37625 L716.48944,275.37625 z" fill="none" stroke="black" stroke-width="1"/>
<path d="M715.83057,120.51823 L871.53235,120.51823 L871.53235,276.21997 L715.83057,276.21997 z" fill="none" stroke="black" stroke-width="1"/>
<path d="M715.17175,119.16897 L873.06647,119.16897 L873.06647,277.0637 L715.17175,277.0637 z" fill="none" stroke="black" stroke-width="1"/>
<path d="M714.5129,117.81971 L874.6006,117.81971 L874.6006,277.90744 L714.5129,277.90744 z" fill="none" stroke="black" stroke-width="1"/>
<path d="M713.854,116.47044 L876.1347,116.47044 L876.1347,278.75116 L713.854,278.75116 z" fill="none" stroke="black" stroke-width="1"/>
<path d="M713.1952,115.121185 L877.6689,115.121185 L877.6689,279.59488 L713.1952,279.59488 z" fill="none" stroke="black" stroke-width="1"/>
<path d="M712.5363,113.77192 L879.203,113.77192 L879.203,280.4386 L712.5363,280.4386 z" fill="none" stroke="black" stroke-width="1"/>
<path d="M711.8775,112.42266 L880.7371,112.42266 L880.7371,281.28232 L711.8775,281.28232 z" fill="none" stroke="black" stroke-width="1"/>
<path d="M711.2186,111.0734 L882.27124,111.0734 L882.27124,282.12604 L711.2186,282.12604 z" fill="none" stroke="black" stroke-width="1"/>
<path d="M710.55975,109.72414 L883.80536,109.72414 L883.80536,282.96976 L710.55975,282.96976 z" fill="none" stroke="black" stroke-width="1"/>
<path d="M709.90094,108.37488 L885.33954,108.37488 L885.33954,283.81348 L709.90094,283.81348 z" fill="none" stroke="black" stroke-width="1"/>
<path d="M709.24207,107.02562 L886.87366,107.02562 L886.87366,284.6572 L709.24207,284.6572 z" fill="none" stroke="black" stroke-width="1"/>
<path d="M708.5832,105.67635 L888.4078,105.67635 L888.4078,285.50092 L708.5832,285.50092 z" fill="none" stroke="black" stroke-width="1"/>
<path d="M707.9244,104.327095 L889.9419,104.327095 L889.9419,286.34464 L707.9244,286.34464 z" fill="none" stroke="black" stroke-width="1"/>
<path d="M707.2655,102.97784 L891.4761,102.97784 L891.4761,287.18835 L707.2655,287.18835 z" fill="none" stroke="black" stroke-width="1"/>
<path d="M706.6067,101.62857 L893.0102,101.62857 L893.0102,288.03207 L706.6067,288.03207 z" fill="none" stroke="black" stroke-width="1"/>
<path d="M705.9478,100.27931 L894.5443,100.27931 L894.5443,288.8758 L705.9478,288.8758 z" fill="none" stroke="black" stroke-width="1"/>
<path d="M705.28894,98.93005 L896.0784,98.93005 L896.0784,289.7195 L705.28894,289.7195 z" fill="none" stroke="black" stroke-width="1"/>
<path d="M704.6301,97.58079 L897.61255,97.58079 L897.61255,290.56323 L704.6301,290.56323 z" fill="none" stroke="black" stroke-width="1"/>
<path d="M703.97125,96.23153 L899.1467,96.23153 L899.1467,291.40695 L703.97125,291.40695 z" fill="none" stroke="black" stroke-width="1"/>
<path d="M703.31244,94.88226 L900.68085,94.88226 L900.68085,292.2507 L703.31244,292.2507 z" fill="none" stroke="black" stroke-width="1"/>
<path d="M702.65356,93.533005 L902.21497,93.533005 L902.21497,293.09442 L702.65356,293.09442 z" fill="none" stroke="black" stroke-width="1"/>
<path d="M701.9947,92.18375 L903.7491,92.18375 L903.7491,293.93814 L701.9947,293.93814 z" fill="none" stroke="black" stroke-width="1"/>
<path d="M701.3359,90.83448 L905.2832,90.83448 L905.2832,294.78186 L701.3359,294.78186 z" fill="none" stroke="black" stroke-width="1"/>
<path d="M700.677,89.48522 L906.8174,89.48522 L906.8174,295.62558 L700.677,295.62558 z" fill="none" stroke="black" stroke-width="1"/>
<path d="M700.0182,88.13596 L908.3515,88.13596 L908.3515,296.4693 L700.0182,296.4693 z" fill="none" stroke="black" stroke-width="1"/>
<path d="M699.3593,86.7867 L909.8856,86.7867 L909.8856,297.31302 L699.3593,297.31302 z" fill="none" stroke="black" stroke-width="1"/>
<path d="M698.70044,85.43744 L911.41974,85.43744 L911.41974,298.15674 L698.70044,298.15674 z" fill="none" stroke="black" stroke-width="1"/>
<path d="M698.0416,84.08818 L912.9539,84.08818 L912.9539,299.00046 L698.0416,299.00046 z" fill="none" stroke="black" stroke-width="1"/>
<path d="M697.38275,82.738914 L914.48804,82.738914 L914.48804,299.84418 L697.38275,299.84418 z" fill="none" stroke="black" stroke-width="1"/>
<path d="M696.72394,81.389656 L916.02216,81.389656 L916.02216,300.6879 L696.72394,300.6879 z" fill="none" stroke="black" stroke-width="1"/>
<path d="M696.06506,80.0404 L917.5563,80.0404 L917.5563,301.53162 L696.06506,301.53162 z" fill="none" stroke="black" stroke-width="1"/>
<path d="M695.4062,78.69113 L919.0904,78.69113 L919.0904,302.37534 L695.4062,302.37534 z" fill="none" stroke="black" stroke-width="1"/>
<path d="M694.7474,77.34187 L920.6246,77.34187 L920.6246,303.21906 L694.7474,303.21906 z" fill="none" stroke="black" stroke-width="1"/>
<path d="M694.0885,75.992615 L922.1587,75.992615 L922.1587,304.06277 L694.0885,304.06277 z" fill="none" stroke="black" stroke-width="1"/>
<path d="M693.4296,74.64335 L923.6928,74.64335 L923.6928,304.9065 L693.4296,304.9065 z" fill="none" stroke="black" stroke-width="1"/>
<path d="M692.7708,73.29409 L925.2269,73.29409 L925.2269,305.75024 L692.7708,305.75024 z" fill="none" stroke="black" stroke-width="1"/>
<path d="M692.11194,71.944824 L926.76105,71.944824 L926.76105,306.59396 L692.11194,306.59396 z" fill="none" stroke="black" stroke-width="1"/>
<path d="M691.4531,70.595566 L928.2952,70.595566 L928.2952,307.43768 L691.4531,307.43768 z" fill="none" stroke="black" stroke-width="1"/>
<path d="M690.79425,69.24631 L929.82935,69.24631 L929.82935,308.2814 L690.79425,308.2814 z" fill="none" stroke="black" stroke-width="1"/>
<path d="M690.1354,67.89704 L931.36346,67.89704 L931.36346,309.12512 L690.1354,309.12512 z" fill="none" stroke="black" stroke-width="1"/>
<path d="M689.47656,66.54778 L932.8976,66.54778 L932.8976,309.96884 L689.47656,309.96884 z" fill="none" stroke="black" stroke-width="1"/>
<path d="M688.8177,65.198524 L934.43176,65.198524 L934.43176,310.81256 L688.8177,310.81256 z" fill="none" stroke="black" stroke-width="1"/>
<path d="M688.1589,63.849262 L935.9659,63.849262 L935.9659,311.65628 L688.1589,311.65628 z" fill="none" stroke="black" stroke-width="1"/>
<path d="M687.5,62.5 L937.5,62.5 L937.5,312.5 L687.5,312.5 z" fill="none" stroke="black" stroke-width="1"/>
</g>
</svg>