<svg xmlns="http://www.w3.org/2000/svg" width="21" height="21" viewBox="0 0 21 21" role="img" aria-hidden="true" focusable="false" class="icon twitter"><title></title> <path fill="none" stroke="#978B94" stroke-linecap="round" stroke-linejoin="round" stroke-width="1.25" d="M7.13880794,17.8564127 C13.9765029,17.8564127 17.7157349,12.1965029 17.7157349,7.28867955 C17.7157349,7.12784922 17.7124734,6.96774303 17.7051532,6.80850579 C18.4309376,6.28430463 19.0618497,5.6301937 19.5596215,4.88542109 C18.8935581,5.1810129 18.1766884,5.38029479 17.4248123,5.47015992 C18.192271,5.01040675 18.7815812,4.28279614 19.0594579,3.41557234 C18.3409937,3.84100152 17.5457764,4.15049671 16.6990279,4.31704771 C16.0206434,3.59515776 15.0545254,3.14358732 13.9854901,3.14358732 C11.9323624,3.14358732 10.2674939,4.8069973 10.2674939,6.85752972 C10.2674939,7.14906637 10.300181,7.43242031 10.3639607,7.70440532 C7.27448483,7.54922324 4.5347828,6.07119177 2.70155027,3.82383952 C2.3819993,4.37258885 2.19805274,5.01040675 2.19805274,5.69065895 C2.19805274,6.97925677 2.8544042,8.11680007 3.85233963,8.78227992 C3.24259087,8.76352483 2.6696604,8.59610487 2.16862709,8.31760264 C2.16782985,8.33309913 2.16782985,8.34866802 2.16782985,8.36496105 C2.16782985,10.1640015 3.44936767,11.6657122 5.15025725,12.0062728 C4.83802646,12.0911413 4.50948834,12.136979 4.17029611,12.136979 C3.93075972,12.136979 3.69781873,12.1132275 3.47147315,12.0699242 C3.9446753,13.545566 5.31695429,14.6193854 6.94427974,14.6496543 C5.67165659,15.6459189 4.06890083,16.2395646 2.32720671,16.2395646 C2.02722452,16.2395646 1.73137352,16.2224026 1.44037848,16.1880786 C3.08567822,17.2415499 5.03907758,17.8564127 7.13880794,17.8564127 Z"></path> </svg>
