<svg version="1.1" viewBox="0.0 0.0 710.0 439.0" fill="none" stroke="none" stroke-linecap="square" stroke-miterlimit="10" width="710" height="439" xmlns:xlink="http://www.w3.org/1999/xlink" xmlns="http://www.w3.org/2000/svg"><path fill="#ffffff" fill-opacity="0.0" d="M0 0L710.0 0L710.0 439.0L0 439.0L0 0Z" fill-rule="nonzero"/><path stroke="#333333" stroke-width="1.0" stroke-linecap="butt" d="M82.5 377.5L688.5 377.5" fill-rule="nonzero"/><path stroke="#cccccc" stroke-width="1.0" stroke-linecap="butt" d="M82.5 308.5L688.5 308.5" fill-rule="nonzero"/><path stroke="#cccccc" stroke-width="1.0" stroke-linecap="butt" d="M82.5 239.5L688.5 239.5" fill-rule="nonzero"/><path stroke="#cccccc" stroke-width="1.0" stroke-linecap="butt" d="M82.5 171.5L688.5 171.5" fill-rule="nonzero"/><path stroke="#cccccc" stroke-width="1.0" stroke-linecap="butt" d="M82.5 102.5L688.5 102.5" fill-rule="nonzero"/><path stroke="#cccccc" stroke-width="1.0" stroke-linecap="butt" d="M82.5 33.5L688.5 33.5" fill-rule="nonzero"/><clipPath id="id_0"><path d="M82.95 33.95L688.05 33.95L688.05 377.05L82.95 377.05L82.95 33.95Z" clip-rule="nonzero"/></clipPath><path stroke="#000000" stroke-width="0.0" stroke-linecap="butt" stroke-opacity="0.0" clip-path="url(#id_0)" d="M264.0 377.0L147.0 377.0L147.0 284.0C147.0 282.89542 147.89543 282.0 149.0 282.0L262.0 282.0C263.10458 282.0 264.0 282.89542 264.0 284.0Z" fill-rule="nonzero"/><path fill="#bf9000" clip-path="url(#id_0)" d="M264.0 377.0L147.0 377.0L147.0 284.0C147.0 282.89542 147.89543 282.0 149.0 282.0L262.0 282.0C263.10458 282.0 264.0 282.89542 264.0 284.0Z" fill-rule="nonzero"/><path stroke="#000000" stroke-width="0.0" stroke-linecap="butt" stroke-opacity="0.0" clip-path="url(#id_0)" d="M445.0 377.0L328.0 377.0L328.0 178.0C328.0 176.89543 328.89542 176.0 330.0 176.0L443.0 176.0C444.10458 176.0 445.0 176.89543 445.0 178.0Z" fill-rule="nonzero"/><path fill="#bf9000" clip-path="url(#id_0)" d="M445.0 377.0L328.0 377.0L328.0 178.0C328.0 176.89543 328.89542 176.0 330.0 176.0L443.0 176.0C444.10458 176.0 445.0 176.89543 445.0 178.0Z" fill-rule="nonzero"/><path stroke="#000000" stroke-width="0.0" stroke-linecap="butt" stroke-opacity="0.0" clip-path="url(#id_0)" d="M625.0 377.0L508.0 377.0L508.0 332.0C508.0 330.89542 508.89542 330.0 510.0 330.0L623.0 330.0C624.10455 330.0 625.0 330.89542 625.0 332.0Z" fill-rule="nonzero"/><path fill="#bf9000" clip-path="url(#id_0)" d="M625.0 377.0L508.0 377.0L508.0 332.0C508.0 330.89542 508.89542 330.0 510.0 330.0L623.0 330.0C624.10455 330.0 625.0 330.89542 625.0 332.0Z" fill-rule="nonzero"/><path fill="#000000" d="M44.778126 376.9875Q44.778126 374.45624 45.29375 372.90936Q45.825 371.34686 46.85625 370.51874Q47.8875 369.675 49.45 369.675Q50.60625 369.675 51.465626 370.14374Q52.340626 370.59686 52.903126 371.47186Q53.465626 372.34686 53.79375 373.6125Q54.121876 374.8625 54.121876 376.9875Q54.121876 379.5031 53.590626 381.05Q53.075 382.59686 52.04375 383.45624Q51.028126 384.3 49.45 384.3Q47.371876 384.3 46.2 382.8156Q44.778126 381.01874 44.778126 376.9875ZM46.590626 376.9875Q46.590626 380.51874 47.403126 381.6906Q48.23125 382.84686 49.45 382.84686Q50.653126 382.84686 51.48125 381.675Q52.309376 380.5031 52.309376 376.9875Q52.309376 373.45624 51.48125 372.3Q50.653126 371.1281 49.434376 371.1281Q48.215626 371.1281 47.496876 372.15936Q46.590626 373.45624 46.590626 376.9875ZM56.10625 373.175Q56.10625 371.64374 56.871876 370.5656Q57.653126 369.4875 59.121876 369.4875Q60.465626 369.4875 61.340626 370.45624Q62.23125 371.40936 62.23125 373.28436Q62.23125 375.09686 61.340626 376.08124Q60.45 377.05 59.1375 377.05Q57.840626 377.05 56.965626 376.09686Q56.10625 375.1281 56.10625 373.175ZM59.16875 370.70624Q58.5125 370.70624 58.075 371.26874Q57.653126 371.83124 57.653126 373.34686Q57.653126 374.72186 58.090626 375.28436Q58.528126 375.84686 59.16875 375.84686Q59.840626 375.84686 60.2625 375.28436Q60.7 374.70624 60.7 373.20624Q60.7 371.8156 60.2625 371.26874Q59.825 370.70624 59.16875 370.70624ZM59.184376 384.58124L67.0125 369.4875L68.43437 369.4875L60.6375 384.58124L59.184376 384.58124ZM65.37187 380.6906Q65.37187 379.14374 66.1375 378.08124Q66.91875 377.0031 68.3875 377.0031Q69.73125 377.0031 70.60625 377.97186Q71.49687 378.925 71.49687 380.8Q71.49687 382.6125 70.60625 383.59686Q69.71562 384.58124 68.40312 384.58124Q67.10625 384.58124 66.23125 383.6125Q65.37187 382.6281 65.37187 380.6906ZM68.43437 378.22186Q67.77812 378.22186 67.34062 378.78436Q66.90312 379.34686 66.90312 380.8625Q66.90312 382.2375 67.34062 382.8Q67.77812 383.3625 68.43437 383.3625Q69.10625 383.3625 69.52812 382.8Q69.96562 382.2375 69.96562 380.72186Q69.96562 379.34686 69.52812 378.78436Q69.09062 378.22186 68.43437 378.22186Z" fill-rule="nonzero"/><path fill="#000000" d="M43.0125 313.7425L43.0125 315.43L33.559376 315.43Q33.54375 314.78937 33.7625 314.21124Q34.121876 313.2425 34.91875 312.305Q35.715626 311.3675 37.215626 310.13312Q39.559376 308.22687 40.371876 307.1175Q41.2 305.9925 41.2 304.9925Q41.2 303.94562 40.45 303.22687Q39.7 302.50812 38.496876 302.50812Q37.23125 302.50812 36.465626 303.27374Q35.7 304.03937 35.7 305.38312L33.8875 305.19562Q34.075 303.18 35.278126 302.1175Q36.496876 301.055 38.54375 301.055Q40.590626 301.055 41.79375 302.19562Q42.996876 303.33624 42.996876 305.02374Q42.996876 305.88312 42.6375 306.72687Q42.29375 307.555 41.48125 308.47687Q40.66875 309.38312 38.778126 310.9925Q37.184376 312.32062 36.73125 312.78937Q36.29375 313.25812 35.996876 313.7425L43.0125 313.7425ZM44.778126 308.3675Q44.778126 305.83624 45.29375 304.28937Q45.825 302.72687 46.85625 301.89874Q47.8875 301.055 49.45 301.055Q50.60625 301.055 51.465626 301.52374Q52.340626 301.97687 52.903126 302.85187Q53.465626 303.72687 53.79375 304.9925Q54.121876 306.2425 54.121876 308.3675Q54.121876 310.88312 53.590626 312.43Q53.075 313.97687 52.04375 314.83624Q51.028126 315.68 49.45 315.68Q47.371876 315.68 46.2 314.19562Q44.778126 312.39874 44.778126 308.3675ZM46.590626 308.3675Q46.590626 311.89874 47.403126 313.07062Q48.23125 314.22687 49.45 314.22687Q50.653126 314.22687 51.48125 313.055Q52.309376 311.88312 52.309376 308.3675Q52.309376 304.83624 51.48125 303.68Q50.653126 302.50812 49.434376 302.50812Q48.215626 302.50812 47.496876 303.53937Q46.590626 304.83624 46.590626 308.3675ZM56.10625 304.555Q56.10625 303.02374 56.871876 301.94562Q57.653126 300.8675 59.121876 300.8675Q60.465626 300.8675 61.340626 301.83624Q62.23125 302.78937 62.23125 304.66437Q62.23125 306.47687 61.340626 307.46124Q60.45 308.43 59.1375 308.43Q57.840626 308.43 56.965626 307.47687Q56.10625 306.50812 56.10625 304.555ZM59.16875 302.08624Q58.5125 302.08624 58.075 302.64874Q57.653126 303.21124 57.653126 304.72687Q57.653126 306.10187 58.090626 306.66437Q58.528126 307.22687 59.16875 307.22687Q59.840626 307.22687 60.2625 306.66437Q60.7 306.08624 60.7 304.58624Q60.7 303.19562 60.2625 302.64874Q59.825 302.08624 59.16875 302.08624ZM59.184376 315.96124L67.0125 300.8675L68.43437 300.8675L60.6375 315.96124L59.184376 315.96124ZM65.37187 312.07062Q65.37187 310.52374 66.1375 309.46124Q66.91875 308.38312 68.3875 308.38312Q69.73125 308.38312 70.60625 309.35187Q71.49687 310.305 71.49687 312.18Q71.49687 313.9925 70.60625 314.97687Q69.71562 315.96124 68.40312 315.96124Q67.10625 315.96124 66.23125 314.9925Q65.37187 314.00812 65.37187 312.07062ZM68.43437 309.60187Q67.77812 309.60187 67.34062 310.16437Q66.90312 310.72687 66.90312 312.2425Q66.90312 313.6175 67.34062 314.18Q67.77812 314.7425 68.43437 314.7425Q69.10625 314.7425 69.52812 314.18Q69.96562 313.6175 69.96562 312.10187Q69.96562 310.72687 69.52812 310.16437Q69.09062 309.60187 68.43437 309.60187Z" fill-rule="nonzero"/><path fill="#000000" d="M39.41875 246.81L39.41875 243.38812L33.2 243.38812L33.2 241.76312L39.73125 232.4975L41.16875 232.4975L41.16875 241.76312L43.10625 241.76312L43.10625 243.38812L41.16875 243.38812L41.16875 246.81L39.41875 246.81ZM39.41875 241.76312L39.41875 235.31L34.934376 241.76312L39.41875 241.76312ZM44.778126 239.7475Q44.778126 237.21625 45.29375 235.66937Q45.825 234.10687 46.85625 233.27875Q47.8875 232.435 49.45 232.435Q50.60625 232.435 51.465626 232.90375Q52.340626 233.35687 52.903126 234.23187Q53.465626 235.10687 53.79375 236.3725Q54.121876 237.6225 54.121876 239.7475Q54.121876 242.26312 53.590626 243.81Q53.075 245.35687 52.04375 246.21625Q51.028126 247.06 49.45 247.06Q47.371876 247.06 46.2 245.57562Q44.778126 243.77875 44.778126 239.7475ZM46.590626 239.7475Q46.590626 243.27875 47.403126 244.45062Q48.23125 245.60687 49.45 245.60687Q50.653126 245.60687 51.48125 244.435Q52.309376 243.26312 52.309376 239.7475Q52.309376 236.21625 51.48125 235.06Q50.653126 233.88812 49.434376 233.88812Q48.215626 233.88812 47.496876 234.91937Q46.590626 236.21625 46.590626 239.7475ZM56.10625 235.935Q56.10625 234.40375 56.871876 233.32562Q57.653126 232.2475 59.121876 232.2475Q60.465626 232.2475 61.340626 233.21625Q62.23125 234.16937 62.23125 236.04437Q62.23125 237.85687 61.340626 238.84125Q60.45 239.81 59.1375 239.81Q57.840626 239.81 56.965626 238.85687Q56.10625 237.88812 56.10625 235.935ZM59.16875 233.46625Q58.5125 233.46625 58.075 234.02875Q57.653126 234.59125 57.653126 236.10687Q57.653126 237.48187 58.090626 238.04437Q58.528126 238.60687 59.16875 238.60687Q59.840626 238.60687 60.2625 238.04437Q60.7 237.46625 60.7 235.96625Q60.7 234.57562 60.2625 234.02875Q59.825 233.46625 59.16875 233.46625ZM59.184376 247.34125L67.0125 232.2475L68.43437 232.2475L60.6375 247.34125L59.184376 247.34125ZM65.37187 243.45062Q65.37187 241.90375 66.1375 240.84125Q66.91875 239.76312 68.3875 239.76312Q69.73125 239.76312 70.60625 240.73187Q71.49687 241.685 71.49687 243.56Q71.49687 245.3725 70.60625 246.35687Q69.71562 247.34125 68.40312 247.34125Q67.10625 247.34125 66.23125 246.3725Q65.37187 245.38812 65.37187 243.45062ZM68.43437 240.98187Q67.77812 240.98187 67.34062 241.54437Q66.90312 242.10687 66.90312 243.6225Q66.90312 244.9975 67.34062 245.56Q67.77812 246.1225 68.43437 246.1225Q69.10625 246.1225 69.52812 245.56Q69.96562 244.9975 69.96562 243.48187Q69.96562 242.10687 69.52812 241.54437Q69.09062 240.98187 68.43437 240.98187Z" fill-rule="nonzero"/><path fill="#000000" d="M42.903126 167.3775L41.153126 167.51813Q40.91875 166.48688 40.496876 166.01813Q39.778126 165.2525 38.73125 165.2525Q37.8875 165.2525 37.2625 165.72125Q36.434376 166.33063 35.95 167.5025Q35.465626 168.65875 35.45 170.79938Q36.090626 169.84625 36.996876 169.3775Q37.91875 168.90875 38.934376 168.90875Q40.684376 168.90875 41.91875 170.20563Q43.153126 171.48688 43.153126 173.53375Q43.153126 174.89313 42.575 176.04938Q41.996876 177.20563 40.98125 177.83063Q39.965626 178.44 38.66875 178.44Q36.48125 178.44 35.090626 176.83063Q33.7 175.20563 33.7 171.48688Q33.7 167.34625 35.23125 165.45563Q36.575 163.815 38.840626 163.815Q40.528126 163.815 41.60625 164.76813Q42.684376 165.70563 42.903126 167.3775ZM35.73125 173.54938Q35.73125 174.45563 36.10625 175.28375Q36.496876 176.11188 37.184376 176.54938Q37.8875 176.98688 38.6375 176.98688Q39.7625 176.98688 40.559376 176.09625Q41.35625 175.19 41.35625 173.64313Q41.35625 172.15875 40.559376 171.315Q39.778126 170.45563 38.575 170.45563Q37.3875 170.45563 36.559376 171.315Q35.73125 172.15875 35.73125 173.54938ZM44.778126 171.1275Q44.778126 168.59625 45.29375 167.04938Q45.825 165.48688 46.85625 164.65875Q47.8875 163.815 49.45 163.815Q50.60625 163.815 51.465626 164.28375Q52.340626 164.73688 52.903126 165.61188Q53.465626 166.48688 53.79375 167.7525Q54.121876 169.0025 54.121876 171.1275Q54.121876 173.64313 53.590626 175.19Q53.075 176.73688 52.04375 177.59625Q51.028126 178.44 49.45 178.44Q47.371876 178.44 46.2 176.95563Q44.778126 175.15875 44.778126 171.1275ZM46.590626 171.1275Q46.590626 174.65875 47.403126 175.83063Q48.23125 176.98688 49.45 176.98688Q50.653126 176.98688 51.48125 175.815Q52.309376 174.64313 52.309376 171.1275Q52.309376 167.59625 51.48125 166.44Q50.653126 165.26813 49.434376 165.26813Q48.215626 165.26813 47.496876 166.29938Q46.590626 167.59625 46.590626 171.1275ZM56.10625 167.315Q56.10625 165.78375 56.871876 164.70563Q57.653126 163.6275 59.121876 163.6275Q60.465626 163.6275 61.340626 164.59625Q62.23125 165.54938 62.23125 167.42438Q62.23125 169.23688 61.340626 170.22125Q60.45 171.19 59.1375 171.19Q57.840626 171.19 56.965626 170.23688Q56.10625 169.26813 56.10625 167.315ZM59.16875 164.84625Q58.5125 164.84625 58.075 165.40875Q57.653126 165.97125 57.653126 167.48688Q57.653126 168.86188 58.090626 169.42438Q58.528126 169.98688 59.16875 169.98688Q59.840626 169.98688 60.2625 169.42438Q60.7 168.84625 60.7 167.34625Q60.7 165.95563 60.2625 165.40875Q59.825 164.84625 59.16875 164.84625ZM59.184376 178.72125L67.0125 163.6275L68.43437 163.6275L60.6375 178.72125L59.184376 178.72125ZM65.37187 174.83063Q65.37187 173.28375 66.1375 172.22125Q66.91875 171.14313 68.3875 171.14313Q69.73125 171.14313 70.60625 172.11188Q71.49687 173.065 71.49687 174.94Q71.49687 176.7525 70.60625 177.73688Q69.71562 178.72125 68.40312 178.72125Q67.10625 178.72125 66.23125 177.7525Q65.37187 176.76813 65.37187 174.83063ZM68.43437 172.36188Q67.77812 172.36188 67.34062 172.92438Q66.90312 173.48688 66.90312 175.0025Q66.90312 176.3775 67.34062 176.94Q67.77812 177.5025 68.43437 177.5025Q69.10625 177.5025 69.52812 176.94Q69.96562 176.3775 69.96562 174.86188Q69.96562 173.48688 69.52812 172.92438Q69.09062 172.36188 68.43437 172.36188Z" fill-rule="nonzero"/><path fill="#000000" d="M36.48125 101.804375Q35.3875 101.398125 34.85625 100.66375Q34.340626 99.91375 34.340626 98.8825Q34.340626 97.32 35.465626 96.2575Q36.590626 95.195 38.45 95.195Q40.325 95.195 41.465626 96.28875Q42.60625 97.366875 42.60625 98.929375Q42.60625 99.929375 42.075 100.66375Q41.559376 101.398125 40.496876 101.804375Q41.825 102.241875 42.5125 103.195Q43.2 104.148125 43.2 105.47625Q43.2 107.32 41.8875 108.57Q40.590626 109.82 38.48125 109.82Q36.35625 109.82 35.059376 108.57Q33.7625 107.304375 33.7625 105.429375Q33.7625 104.03875 34.465626 103.10125Q35.184376 102.148125 36.48125 101.804375ZM36.1375 98.82Q36.1375 99.835625 36.79375 100.491875Q37.45 101.1325 38.48125 101.1325Q39.496876 101.1325 40.153126 100.491875Q40.809376 99.85125 40.809376 98.929375Q40.809376 97.960625 40.1375 97.304375Q39.465626 96.6325 38.465626 96.6325Q37.465626 96.6325 36.79375 97.28875Q36.1375 97.929375 36.1375 98.82ZM35.575 105.445Q35.575 106.195 35.91875 106.898125Q36.278126 107.60125 36.98125 107.991875Q37.684376 108.366875 38.496876 108.366875Q39.7625 108.366875 40.575 107.554375Q41.403126 106.741875 41.403126 105.491875Q41.403126 104.22625 40.559376 103.398125Q39.715626 102.57 38.434376 102.57Q37.2 102.57 36.3875 103.398125Q35.575 104.210625 35.575 105.445ZM44.778126 102.5075Q44.778126 99.97625 45.29375 98.429375Q45.825 96.866875 46.85625 96.03875Q47.8875 95.195 49.45 95.195Q50.60625 95.195 51.465626 95.66375Q52.340626 96.116875 52.903126 96.991875Q53.465626 97.866875 53.79375 99.1325Q54.121876 100.3825 54.121876 102.5075Q54.121876 105.023125 53.590626 106.57Q53.075 108.116875 52.04375 108.97625Q51.028126 109.82 49.45 109.82Q47.371876 109.82 46.2 108.335625Q44.778126 106.53875 44.778126 102.5075ZM46.590626 102.5075Q46.590626 106.03875 47.403126 107.210625Q48.23125 108.366875 49.45 108.366875Q50.653126 108.366875 51.48125 107.195Q52.309376 106.023125 52.309376 102.5075Q52.309376 98.97625 51.48125 97.82Q50.653126 96.648125 49.434376 96.648125Q48.215626 96.648125 47.496876 97.679375Q46.590626 98.97625 46.590626 102.5075ZM56.10625 98.695Q56.10625 97.16375 56.871876 96.085625Q57.653126 95.0075 59.121876 95.0075Q60.465626 95.0075 61.340626 95.97625Q62.23125 96.929375 62.23125 98.804375Q62.23125 100.616875 61.340626 101.60125Q60.45 102.57 59.1375 102.57Q57.840626 102.57 56.965626 101.616875Q56.10625 100.648125 56.10625 98.695ZM59.16875 96.22625Q58.5125 96.22625 58.075 96.78875Q57.653126 97.35125 57.653126 98.866875Q57.653126 100.241875 58.090626 100.804375Q58.528126 101.366875 59.16875 101.366875Q59.840626 101.366875 60.2625 100.804375Q60.7 100.22625 60.7 98.72625Q60.7 97.335625 60.2625 96.78875Q59.825 96.22625 59.16875 96.22625ZM59.184376 110.10125L67.0125 95.0075L68.43437 95.0075L60.6375 110.10125L59.184376 110.10125ZM65.37187 106.210625Q65.37187 104.66375 66.1375 103.60125Q66.91875 102.523125 68.3875 102.523125Q69.73125 102.523125 70.60625 103.491875Q71.49687 104.445 71.49687 106.32Q71.49687 108.1325 70.60625 109.116875Q69.71562 110.10125 68.40312 110.10125Q67.10625 110.10125 66.23125 109.1325Q65.37187 108.148125 65.37187 106.210625ZM68.43437 103.741875Q67.77812 103.741875 67.34062 104.304375Q66.90312 104.866875 66.90312 106.3825Q66.90312 107.7575 67.34062 108.32Q67.77812 108.8825 68.43437 108.8825Q69.10625 108.8825 69.52812 108.32Q69.96562 107.7575 69.96562 106.241875Q69.96562 104.866875 69.52812 104.304375Q69.09062 103.741875 68.43437 103.741875Z" fill-rule="nonzero"/><path fill="#000000" d="M29.403126 40.95L27.6375 40.95L27.6375 29.746876Q27.0125 30.35625 25.98125 30.965626Q24.95 31.559376 24.121876 31.871876L24.121876 30.16875Q25.60625 29.48125 26.7 28.496876Q27.809376 27.496876 28.2625 26.575L29.403126 26.575L29.403126 40.95ZM33.778126 33.8875Q33.778126 31.35625 34.29375 29.809376Q34.825 28.246876 35.85625 27.41875Q36.8875 26.575 38.45 26.575Q39.60625 26.575 40.465626 27.04375Q41.340626 27.496876 41.903126 28.371876Q42.465626 29.246876 42.79375 30.5125Q43.121876 31.7625 43.121876 33.8875Q43.121876 36.403126 42.590626 37.95Q42.075 39.496876 41.04375 40.35625Q40.028126 41.2 38.45 41.2Q36.371876 41.2 35.2 39.715626Q33.778126 37.91875 33.778126 33.8875ZM35.590626 33.8875Q35.590626 37.41875 36.403126 38.590626Q37.23125 39.746876 38.45 39.746876Q39.653126 39.746876 40.48125 38.575Q41.309376 37.403126 41.309376 33.8875Q41.309376 30.35625 40.48125 29.2Q39.653126 28.028126 38.434376 28.028126Q37.215626 28.028126 36.496876 29.059376Q35.590626 30.35625 35.590626 33.8875ZM44.778126 33.8875Q44.778126 31.35625 45.29375 29.809376Q45.825 28.246876 46.85625 27.41875Q47.8875 26.575 49.45 26.575Q50.60625 26.575 51.465626 27.04375Q52.340626 27.496876 52.903126 28.371876Q53.465626 29.246876 53.79375 30.5125Q54.121876 31.7625 54.121876 33.8875Q54.121876 36.403126 53.590626 37.95Q53.075 39.496876 52.04375 40.35625Q51.028126 41.2 49.45 41.2Q47.371876 41.2 46.2 39.715626Q44.778126 37.91875 44.778126 33.8875ZM46.590626 33.8875Q46.590626 37.41875 47.403126 38.590626Q48.23125 39.746876 49.45 39.746876Q50.653126 39.746876 51.48125 38.575Q52.309376 37.403126 52.309376 33.8875Q52.309376 30.35625 51.48125 29.2Q50.653126 28.028126 49.434376 28.028126Q48.215626 28.028126 47.496876 29.059376Q46.590626 30.35625 46.590626 33.8875ZM56.10625 30.075Q56.10625 28.54375 56.871876 27.465626Q57.653126 26.3875 59.121876 26.3875Q60.465626 26.3875 61.340626 27.35625Q62.23125 28.309376 62.23125 30.184376Q62.23125 31.996876 61.340626 32.98125Q60.45 33.95 59.1375 33.95Q57.840626 33.95 56.965626 32.996876Q56.10625 32.028126 56.10625 30.075ZM59.16875 27.60625Q58.5125 27.60625 58.075 28.16875Q57.653126 28.73125 57.653126 30.246876Q57.653126 31.621876 58.090626 32.184376Q58.528126 32.746876 59.16875 32.746876Q59.840626 32.746876 60.2625 32.184376Q60.7 31.60625 60.7 30.10625Q60.7 28.715626 60.2625 28.16875Q59.825 27.60625 59.16875 27.60625ZM59.184376 41.48125L67.0125 26.3875L68.43437 26.3875L60.6375 41.48125L59.184376 41.48125ZM65.37187 37.590626Q65.37187 36.04375 66.1375 34.98125Q66.91875 33.903126 68.3875 33.903126Q69.73125 33.903126 70.60625 34.871876Q71.49687 35.825 71.49687 37.7Q71.49687 39.5125 70.60625 40.496876Q69.71562 41.48125 68.40312 41.48125Q67.10625 41.48125 66.23125 40.5125Q65.37187 39.528126 65.37187 37.590626ZM68.43437 35.121876Q67.77812 35.121876 67.34062 35.684376Q66.90312 36.246876 66.90312 37.7625Q66.90312 39.1375 67.34062 39.7Q67.77812 40.2625 68.43437 40.2625Q69.10625 40.2625 69.52812 39.7Q69.96562 39.1375 69.96562 37.621876Q69.96562 36.246876 69.52812 35.684376Q69.09062 35.121876 68.43437 35.121876Z" fill-rule="nonzero"/><path fill="#000000" d="M146.34189 411.05L152.93564 393.8625L155.38876 393.8625L162.42001 411.05L159.82626 411.05L157.82626 405.84686L150.63876 405.84686L148.74814 411.05L146.34189 411.05ZM151.29501 403.9875L157.12314 403.9875L155.32626 399.2375Q154.51376 397.0656 154.10751 395.675Q153.77939 397.33124 153.18564 398.95624L151.29501 403.9875ZM163.90439 411.05L163.90439 393.8625L166.01376 393.8625L166.01376 411.05L163.90439 411.05ZM168.57626 412.08124L170.62314 412.39374Q170.74814 413.33124 171.34189 413.76874Q172.12314 414.3625 173.48251 414.3625Q174.95126 414.3625 175.74814 413.76874Q176.54501 413.1906 176.82626 412.1281Q176.98251 411.4875 176.96689 409.425Q175.59189 411.05 173.52939 411.05Q170.96689 411.05 169.56064 409.20624Q168.15439 407.34686 168.15439 404.7531Q168.15439 402.97186 168.79501 401.47186Q169.43564 399.95624 170.65439 399.14374Q171.88876 398.3156 173.54501 398.3156Q175.74814 398.3156 177.17001 400.09686L177.17001 398.59686L179.12314 398.59686L179.12314 409.3625Q179.12314 412.26874 178.52939 413.47186Q177.93564 414.6906 176.65439 415.39374Q175.37314 416.09686 173.49814 416.09686Q171.26376 416.09686 169.88876 415.09686Q168.52939 414.09686 168.57626 412.08124ZM170.31064 404.59686Q170.31064 407.05 171.27939 408.175Q172.26376 409.3 173.73251 409.3Q175.18564 409.3 176.17001 408.1906Q177.15439 407.0656 177.15439 404.675Q177.15439 402.39374 176.13876 401.2375Q175.12314 400.0656 173.68564 400.0656Q172.27939 400.0656 171.29501 401.20624Q170.31064 402.34686 170.31064 404.59686ZM181.17001 404.83124Q181.17001 401.3625 183.09189 399.70624Q184.70126 398.3156 187.01376 398.3156Q189.57626 398.3156 191.20126 400.0031Q192.82626 401.6906 192.82626 404.64374Q192.82626 407.05 192.10751 408.425Q191.38876 409.8 190.01376 410.5656Q188.63876 411.33124 187.01376 411.33124Q184.38876 411.33124 182.77939 409.65936Q181.17001 407.97186 181.17001 404.83124ZM183.34189 404.83124Q183.34189 407.22186 184.37314 408.40936Q185.42001 409.59686 187.01376 409.59686Q188.57626 409.59686 189.62314 408.40936Q190.67001 407.20624 190.67001 404.7531Q190.67001 402.4406 189.60751 401.2531Q188.56064 400.0656 187.01376 400.0656Q185.42001 400.0656 184.37314 401.2531Q183.34189 402.4406 183.34189 404.83124ZM194.93564 411.05L194.93564 398.59686L196.82626 398.59686L196.82626 400.4875Q197.56064 399.15936 198.17001 398.7375Q198.79501 398.3156 199.52939 398.3156Q200.59189 398.3156 201.70126 399.0031L200.96689 400.95624Q200.20126 400.5031 199.42001 400.5031Q198.73251 400.5031 198.17001 400.925Q197.62314 401.33124 197.38876 402.0656Q197.04501 403.1906 197.04501 404.53436L197.04501 411.05L194.93564 411.05ZM202.96689 396.3L202.96689 393.8625L205.07626 393.8625L205.07626 396.3L202.96689 396.3ZM202.96689 411.05L202.96689 398.59686L205.07626 398.59686L205.07626 411.05L202.96689 411.05ZM212.56064 409.15936L212.87314 411.01874Q211.98251 411.22186 211.27939 411.22186Q210.12314 411.22186 209.48251 410.8625Q208.85751 410.4875 208.59189 409.89374Q208.34189 409.3 208.34189 407.40936L208.34189 400.2375L206.79501 400.2375L206.79501 398.59686L208.34189 398.59686L208.34189 395.51874L210.43564 394.2531L210.43564 398.59686L212.56064 398.59686L212.56064 400.2375L210.43564 400.2375L210.43564 407.51874Q210.43564 408.425 210.54501 408.6906Q210.67001 408.9406 210.92001 409.09686Q211.17001 409.2375 211.63876 409.2375Q211.98251 409.2375 212.56064 409.15936ZM214.95126 411.05L214.95126 393.8625L217.06064 393.8625L217.06064 400.03436Q218.54501 398.3156 220.79501 398.3156Q222.17001 398.3156 223.18564 398.8625Q224.21689 399.40936 224.65439 400.3781Q225.09189 401.33124 225.09189 403.15936L225.09189 411.05L222.98251 411.05L222.98251 403.15936Q222.98251 401.58124 222.29501 400.8625Q221.60751 400.14374 220.35751 400.14374Q219.42001 400.14374 218.59189 400.6281Q217.76376 401.1125 217.40439 401.9406Q217.06064 402.76874 217.06064 404.2375L217.06064 411.05L214.95126 411.05ZM227.95126 411.05L227.95126 398.59686L229.84189 398.59686L229.84189 400.34686Q230.43564 399.4406 231.40439 398.8781Q232.37314 398.3156 233.62314 398.3156Q234.99814 398.3156 235.87314 398.89374Q236.76376 399.47186 237.13876 400.5031Q238.60751 398.3156 240.98251 398.3156Q242.82626 398.3156 243.82626 399.34686Q244.82626 400.3781 244.82626 402.5031L244.82626 411.05L242.71689 411.05L242.71689 403.20624Q242.71689 401.9406 242.51376 401.39374Q242.31064 400.83124 241.76376 400.4875Q241.23251 400.14374 240.51376 400.14374Q239.20126 400.14374 238.32626 401.01874Q237.46689 401.89374 237.46689 403.8156L237.46689 411.05L235.35751 411.05L235.35751 402.95624Q235.35751 401.55 234.84189 400.84686Q234.32626 400.14374 233.15439 400.14374Q232.26376 400.14374 231.49814 400.6125Q230.74814 401.08124 230.40439 401.9875Q230.06064 402.89374 230.06064 404.59686L230.06064 411.05L227.95126 411.05ZM247.96689 396.3L247.96689 393.8625L250.07626 393.8625L250.07626 396.3L247.96689 396.3ZM247.96689 411.05L247.96689 398.59686L250.07626 398.59686L250.07626 411.05L247.96689 411.05ZM261.07626 406.4875L263.1544 406.7531Q262.81064 408.90936 261.4044 410.1281Q260.01376 411.33124 257.9669 411.33124Q255.42001 411.33124 253.85751 409.65936Q252.31064 407.9875 252.31064 404.8781Q252.31064 402.8625 252.98251 401.34686Q253.65439 399.83124 255.01376 399.08124Q256.37314 398.3156 257.9825 398.3156Q260.01376 398.3156 261.295 399.34686Q262.5919 400.3781 262.95126 402.2531L260.9044 402.58124Q260.6075 401.3156 259.8575 400.6906Q259.12314 400.05 258.06064 400.05Q256.4669 400.05 255.46689 401.20624Q254.48251 402.34686 254.48251 404.8156Q254.48251 407.3156 255.43564 408.45624Q256.4044 409.59686 257.95126 409.59686Q259.18564 409.59686 260.01376 408.83124Q260.8575 408.0656 261.07626 406.4875Z" fill-rule="nonzero"/><path fill="#000000" d="M352.10938 405.01874L354.39062 405.59686Q353.67188 408.39374 351.8125 409.8781Q349.95312 411.34686 347.26562 411.34686Q344.5 411.34686 342.75 410.22186Q341.01562 409.08124 340.10938 406.9406Q339.20312 404.78436 339.20312 402.33124Q339.20312 399.64374 340.21875 397.64374Q341.25 395.64374 343.14062 394.6125Q345.03125 393.58124 347.3125 393.58124Q349.89062 393.58124 351.64062 394.89374Q353.40625 396.20624 354.09375 398.58124L351.85938 399.1125Q351.25 397.2375 350.10938 396.3781Q348.98438 395.51874 347.26562 395.51874Q345.28125 395.51874 343.95312 396.47186Q342.625 397.425 342.07812 399.01874Q341.54688 400.6125 341.54688 402.3156Q341.54688 404.5031 342.17188 406.14374Q342.8125 407.78436 344.15625 408.59686Q345.51562 409.39374 347.07812 409.39374Q349.0 409.39374 350.3125 408.3Q351.64062 407.1906 352.10938 405.01874ZM355.79688 404.83124Q355.79688 401.3625 357.71875 399.70624Q359.32812 398.3156 361.64062 398.3156Q364.20312 398.3156 365.82812 400.0031Q367.45312 401.6906 367.45312 404.64374Q367.45312 407.05 366.73438 408.425Q366.01562 409.8 364.64062 410.5656Q363.26562 411.33124 361.64062 411.33124Q359.01562 411.33124 357.40625 409.65936Q355.79688 407.97186 355.79688 404.83124ZM357.96875 404.83124Q357.96875 407.22186 359.0 408.40936Q360.04688 409.59686 361.64062 409.59686Q363.20312 409.59686 364.25 408.40936Q365.29688 407.20624 365.29688 404.7531Q365.29688 402.4406 364.23438 401.2531Q363.1875 400.0656 361.64062 400.0656Q360.04688 400.0656 359.0 401.2531Q357.96875 402.4406 357.96875 404.83124ZM369.57812 411.05L369.57812 398.59686L371.48438 398.59686L371.48438 400.3781Q372.85938 398.3156 375.4375 398.3156Q376.5625 398.3156 377.5 398.72186Q378.45312 399.1281 378.92188 399.78436Q379.39062 400.4406 379.57812 401.34686Q379.70312 401.925 379.70312 403.39374L379.70312 411.05L377.59375 411.05L377.59375 403.47186Q377.59375 402.1906 377.34375 401.55Q377.09375 400.90936 376.46875 400.53436Q375.84375 400.14374 375.0 400.14374Q373.65625 400.14374 372.67188 401.0031Q371.6875 401.8625 371.6875 404.2531L371.6875 411.05L369.57812 411.05ZM381.73438 407.33124L383.82812 407.0031Q384.0 408.2531 384.79688 408.925Q385.60938 409.59686 387.04688 409.59686Q388.5 409.59686 389.20312 409.0031Q389.90625 408.40936 389.90625 407.6125Q389.90625 406.89374 389.28125 406.4875Q388.85938 406.20624 387.125 405.76874Q384.8125 405.1906 383.90625 404.76874Q383.01562 404.33124 382.54688 403.58124Q382.09375 402.8156 382.09375 401.90936Q382.09375 401.08124 382.46875 400.3781Q382.85938 399.65936 383.51562 399.1906Q384.0 398.83124 384.84375 398.58124Q385.70312 398.3156 386.67188 398.3156Q388.14062 398.3156 389.25 398.7375Q390.35938 399.15936 390.875 399.89374Q391.40625 400.6125 391.60938 401.8156L389.54688 402.09686Q389.40625 401.1281 388.73438 400.59686Q388.0625 400.05 386.82812 400.05Q385.375 400.05 384.75 400.53436Q384.125 401.01874 384.125 401.65936Q384.125 402.0656 384.39062 402.39374Q384.64062 402.7375 385.20312 402.95624Q385.51562 403.08124 387.0625 403.5031Q389.29688 404.09686 390.17188 404.4875Q391.0625 404.8625 391.5625 405.59686Q392.07812 406.3156 392.07812 407.39374Q392.07812 408.4406 391.45312 409.3781Q390.84375 410.3156 389.6875 410.83124Q388.53125 411.33124 387.0625 411.33124Q384.64062 411.33124 383.35938 410.33124Q382.09375 409.3156 381.73438 407.33124ZM399.1875 409.15936L399.5 411.01874Q398.60938 411.22186 397.90625 411.22186Q396.75 411.22186 396.10938 410.8625Q395.48438 410.4875 395.21875 409.89374Q394.96875 409.3 394.96875 407.40936L394.96875 400.2375L393.42188 400.2375L393.42188 398.59686L394.96875 398.59686L394.96875 395.51874L397.0625 394.2531L397.0625 398.59686L399.1875 398.59686L399.1875 400.2375L397.0625 400.2375L397.0625 407.51874Q397.0625 408.425 397.17188 408.6906Q397.29688 408.9406 397.54688 409.09686Q397.79688 409.2375 398.26562 409.2375Q398.60938 409.2375 399.1875 409.15936ZM409.70312 409.51874Q408.53125 410.5031 407.4375 410.925Q406.35938 411.33124 405.125 411.33124Q403.07812 411.33124 401.96875 410.33124Q400.875 409.33124 400.875 407.76874Q400.875 406.84686 401.28125 406.09686Q401.70312 405.34686 402.375 404.89374Q403.04688 404.425 403.89062 404.1906Q404.51562 404.03436 405.76562 403.8781Q408.32812 403.5656 409.53125 403.14374Q409.54688 402.72186 409.54688 402.59686Q409.54688 401.3156 408.9375 400.78436Q408.14062 400.0656 406.54688 400.0656Q405.04688 400.0656 404.34375 400.59686Q403.64062 401.1125 403.29688 402.4406L401.23438 402.15936Q401.51562 400.83124 402.15625 400.01874Q402.79688 399.20624 404.01562 398.76874Q405.23438 398.3156 406.84375 398.3156Q408.4375 398.3156 409.4375 398.6906Q410.4375 399.0656 410.90625 399.64374Q411.375 400.20624 411.5625 401.08124Q411.65625 401.6125 411.65625 403.01874L411.65625 405.83124Q411.65625 408.76874 411.79688 409.55Q411.9375 410.33124 412.32812 411.05L410.125 411.05Q409.79688 410.39374 409.70312 409.51874ZM409.53125 404.8Q408.375 405.26874 406.07812 405.59686Q404.78125 405.78436 404.23438 406.01874Q403.70312 406.2531 403.40625 406.70624Q403.125 407.15936 403.125 407.70624Q403.125 408.55 403.75 409.1125Q404.39062 409.675 405.625 409.675Q406.84375 409.675 407.79688 409.14374Q408.75 408.6125 409.1875 407.6906Q409.53125 406.97186 409.53125 405.58124L409.53125 404.8ZM414.57812 411.05L414.57812 398.59686L416.48438 398.59686L416.48438 400.3781Q417.85938 398.3156 420.4375 398.3156Q421.5625 398.3156 422.5 398.72186Q423.45312 399.1281 423.92188 399.78436Q424.39062 400.4406 424.57812 401.34686Q424.70312 401.925 424.70312 403.39374L424.70312 411.05L422.59375 411.05L422.59375 403.47186Q422.59375 402.1906 422.34375 401.55Q422.09375 400.90936 421.46875 400.53436Q420.84375 400.14374 420.0 400.14374Q418.65625 400.14374 417.67188 401.0031Q416.6875 401.8625 416.6875 404.2531L416.6875 411.05L414.57812 411.05ZM432.1875 409.15936L432.5 411.01874Q431.60938 411.22186 430.90625 411.22186Q429.75 411.22186 429.10938 410.8625Q428.48438 410.4875 428.21875 409.89374Q427.96875 409.3 427.96875 407.40936L427.96875 400.2375L426.42188 400.2375L426.42188 398.59686L427.96875 398.59686L427.96875 395.51874L430.0625 394.2531L430.0625 398.59686L432.1875 398.59686L432.1875 400.2375L430.0625 400.2375L430.0625 407.51874Q430.0625 408.425 430.17188 408.6906Q430.29688 408.9406 430.54688 409.09686Q430.79688 409.2375 431.26562 409.2375Q431.60938 409.2375 432.1875 409.15936Z" fill-rule="nonzero"/><path fill="#000000" d="M511.0956 411.05L511.0956 393.8625L522.68933 393.8625L522.68933 395.89374L513.37683 395.89374L513.37683 401.22186L521.43933 401.22186L521.43933 403.2375L513.37683 403.2375L513.37683 411.05L511.0956 411.05ZM524.9237 404.83124Q524.9237 401.3625 526.8456 399.70624Q528.45496 398.3156 530.76746 398.3156Q533.32996 398.3156 534.95496 400.0031Q536.57996 401.6906 536.57996 404.64374Q536.57996 407.05 535.8612 408.425Q535.14246 409.8 533.76746 410.5656Q532.39246 411.33124 530.76746 411.33124Q528.14246 411.33124 526.5331 409.65936Q524.9237 407.97186 524.9237 404.83124ZM527.0956 404.83124Q527.0956 407.22186 528.12683 408.40936Q529.1737 409.59686 530.76746 409.59686Q532.32996 409.59686 533.37683 408.40936Q534.4237 407.20624 534.4237 404.7531Q534.4237 402.4406 533.3612 401.2531Q532.31433 400.0656 530.76746 400.0656Q529.1737 400.0656 528.12683 401.2531Q527.0956 402.4406 527.0956 404.83124ZM538.68933 411.05L538.68933 398.59686L540.57996 398.59686L540.57996 400.4875Q541.31433 399.15936 541.9237 398.7375Q542.5487 398.3156 543.2831 398.3156Q544.3456 398.3156 545.45496 399.0031L544.7206 400.95624Q543.95496 400.5031 543.1737 400.5031Q542.4862 400.5031 541.9237 400.925Q541.37683 401.33124 541.14246 402.0656Q540.7987 403.1906 540.7987 404.53436L540.7987 411.05L538.68933 411.05ZM546.70496 411.05L546.70496 398.59686L548.5956 398.59686L548.5956 400.34686Q549.18933 399.4406 550.1581 398.8781Q551.12683 398.3156 552.37683 398.3156Q553.75183 398.3156 554.62683 398.89374Q555.51746 399.47186 555.89246 400.5031Q557.3612 398.3156 559.7362 398.3156Q561.57996 398.3156 562.57996 399.34686Q563.57996 400.3781 563.57996 402.5031L563.57996 411.05L561.4706 411.05L561.4706 403.20624Q561.4706 401.9406 561.26746 401.39374Q561.06433 400.83124 560.51746 400.4875Q559.9862 400.14374 559.26746 400.14374Q557.95496 400.14374 557.07996 401.01874Q556.2206 401.89374 556.2206 403.8156L556.2206 411.05L554.1112 411.05L554.1112 402.95624Q554.1112 401.55 553.5956 400.84686Q553.07996 400.14374 551.9081 400.14374Q551.01746 400.14374 550.25183 400.6125Q549.50183 401.08124 549.1581 401.9875Q548.81433 402.89374 548.81433 404.59686L548.81433 411.05L546.70496 411.05ZM574.82996 409.51874Q573.6581 410.5031 572.56433 410.925Q571.4862 411.33124 570.25183 411.33124Q568.20496 411.33124 567.0956 410.33124Q566.00183 409.33124 566.00183 407.76874Q566.00183 406.84686 566.4081 406.09686Q566.82996 405.34686 567.50183 404.89374Q568.1737 404.425 569.01746 404.1906Q569.64246 404.03436 570.89246 403.8781Q573.45496 403.5656 574.6581 403.14374Q574.6737 402.72186 574.6737 402.59686Q574.6737 401.3156 574.06433 400.78436Q573.26746 400.0656 571.6737 400.0656Q570.1737 400.0656 569.4706 400.59686Q568.76746 401.1125 568.4237 402.4406L566.3612 402.15936Q566.64246 400.83124 567.2831 400.01874Q567.9237 399.20624 569.14246 398.76874Q570.3612 398.3156 571.9706 398.3156Q573.56433 398.3156 574.56433 398.6906Q575.56433 399.0656 576.0331 399.64374Q576.50183 400.20624 576.68933 401.08124Q576.7831 401.6125 576.7831 403.01874L576.7831 405.83124Q576.7831 408.76874 576.9237 409.55Q577.06433 410.33124 577.45496 411.05L575.25183 411.05Q574.9237 410.39374 574.82996 409.51874ZM574.6581 404.8Q573.50183 405.26874 571.20496 405.59686Q569.9081 405.78436 569.3612 406.01874Q568.82996 406.2531 568.5331 406.70624Q568.25183 407.15936 568.25183 407.70624Q568.25183 408.55 568.87683 409.1125Q569.51746 409.675 570.75183 409.675Q571.9706 409.675 572.9237 409.14374Q573.87683 408.6125 574.31433 407.6906Q574.6581 406.97186 574.6581 405.58124L574.6581 404.8ZM584.31433 409.15936L584.62683 411.01874Q583.7362 411.22186 583.0331 411.22186Q581.87683 411.22186 581.2362 410.8625Q580.6112 410.4875 580.3456 409.89374Q580.0956 409.3 580.0956 407.40936L580.0956 400.2375L578.5487 400.2375L578.5487 398.59686L580.0956 398.59686L580.0956 395.51874L582.18933 394.2531L582.18933 398.59686L584.31433 398.59686L584.31433 400.2375L582.18933 400.2375L582.18933 407.51874Q582.18933 408.425 582.2987 408.6906Q582.4237 408.9406 582.6737 409.09686Q582.9237 409.2375 583.39246 409.2375Q583.7362 409.2375 584.31433 409.15936ZM591.31433 409.15936L591.62683 411.01874Q590.7362 411.22186 590.0331 411.22186Q588.87683 411.22186 588.2362 410.8625Q587.6112 410.4875 587.3456 409.89374Q587.0956 409.3 587.0956 407.40936L587.0956 400.2375L585.5487 400.2375L585.5487 398.59686L587.0956 398.59686L587.0956 395.51874L589.18933 394.2531L589.18933 398.59686L591.31433 398.59686L591.31433 400.2375L589.18933 400.2375L589.18933 407.51874Q589.18933 408.425 589.2987 408.6906Q589.4237 408.9406 589.6737 409.09686Q589.9237 409.2375 590.39246 409.2375Q590.7362 409.2375 591.31433 409.15936ZM593.7206 396.3L593.7206 393.8625L595.82996 393.8625L595.82996 396.3L593.7206 396.3ZM593.7206 411.05L593.7206 398.59686L595.82996 398.59686L595.82996 411.05L593.7206 411.05ZM598.70496 411.05L598.70496 398.59686L600.6112 398.59686L600.6112 400.3781Q601.9862 398.3156 604.56433 398.3156Q605.68933 398.3156 606.62683 398.72186Q607.57996 399.1281 608.0487 399.78436Q608.51746 400.4406 608.70496 401.34686Q608.82996 401.925 608.82996 403.39374L608.82996 411.05L606.7206 411.05L606.7206 403.47186Q606.7206 402.1906 606.4706 401.55Q606.2206 400.90936 605.5956 400.53436Q604.9706 400.14374 604.12683 400.14374Q602.7831 400.14374 601.7987 401.0031Q600.81433 401.8625 600.81433 404.2531L600.81433 411.05L598.70496 411.05ZM611.32996 412.08124L613.37683 412.39374Q613.50183 413.33124 614.0956 413.76874Q614.87683 414.3625 616.2362 414.3625Q617.70496 414.3625 618.50183 413.76874Q619.2987 413.1906 619.57996 412.1281Q619.7362 411.4875 619.7206 409.425Q618.3456 411.05 616.2831 411.05Q613.7206 411.05 612.31433 409.20624Q610.9081 407.34686 610.9081 404.7531Q610.9081 402.97186 611.5487 401.47186Q612.18933 399.95624 613.4081 399.14374Q614.64246 398.3156 616.2987 398.3156Q618.50183 398.3156 619.9237 400.09686L619.9237 398.59686L621.87683 398.59686L621.87683 409.3625Q621.87683 412.26874 621.2831 413.47186Q620.68933 414.6906 619.4081 415.39374Q618.12683 416.09686 616.25183 416.09686Q614.01746 416.09686 612.64246 415.09686Q611.2831 414.09686 611.32996 412.08124ZM613.06433 404.59686Q613.06433 407.05 614.0331 408.175Q615.01746 409.3 616.4862 409.3Q617.93933 409.3 618.9237 408.1906Q619.9081 407.0656 619.9081 404.675Q619.9081 402.39374 618.89246 401.2375Q617.87683 400.0656 616.43933 400.0656Q615.0331 400.0656 614.0487 401.20624Q613.06433 402.34686 613.06433 404.59686Z" fill-rule="nonzero"/></svg>