<svg version="1.1" viewBox="0.0 0.0 600.0 371.0" fill="none" stroke="none" stroke-linecap="square" stroke-miterlimit="10" width="600" height="371" xmlns:xlink="http://www.w3.org/1999/xlink" xmlns="http://www.w3.org/2000/svg"><path fill="#ffffff" d="M0 0L600.0 0L600.0 371.0L0 371.0L0 0Z" fill-rule="nonzero"/><path stroke="#333333" stroke-width="1.0" stroke-linecap="butt" d="M77.5 332.5L581.5 332.5" fill-rule="nonzero"/><path stroke="#cccccc" stroke-width="1.0" stroke-linecap="butt" d="M77.5 230.5L581.5 230.5" fill-rule="nonzero"/><path stroke="#cccccc" stroke-width="1.0" stroke-linecap="butt" d="M77.5 127.5L581.5 127.5" fill-rule="nonzero"/><path stroke="#cccccc" stroke-width="1.0" stroke-linecap="butt" d="M77.5 25.5L581.5 25.5" fill-rule="nonzero"/><clipPath id="id_0"><path d="M77.55 25.55L581.45 25.55L581.45 332.45L77.55 332.45L77.55 25.55Z" clip-rule="nonzero"/></clipPath><path stroke="#000000" stroke-width="0.0" stroke-linecap="butt" stroke-opacity="0.0" clip-path="url(#id_0)" d="M228.0 332.0L130.0 332.0L130.0 193.0C130.0 191.89543 130.89543 191.0 132.0 191.0L226.0 191.0C227.10457 191.0 228.0 191.89543 228.0 193.0Z" fill-rule="nonzero"/><path fill="#4285f4" clip-path="url(#id_0)" d="M228.0 332.0L130.0 332.0L130.0 193.0C130.0 191.89543 130.89543 191.0 132.0 191.0L226.0 191.0C227.10457 191.0 228.0 191.89543 228.0 193.0Z" fill-rule="nonzero"/><path stroke="#000000" stroke-width="0.0" stroke-linecap="butt" stroke-opacity="0.0" clip-path="url(#id_0)" d="M379.0 332.0L281.0 332.0L281.0 35.0C281.0 33.89543 281.89542 33.0 283.0 33.0L377.0 33.0C378.10458 33.0 379.0 33.89543 379.0 35.0Z" fill-rule="nonzero"/><path fill="#4285f4" clip-path="url(#id_0)" d="M379.0 332.0L281.0 332.0L281.0 35.0C281.0 33.89543 281.89542 33.0 283.0 33.0L377.0 33.0C378.10458 33.0 379.0 33.89543 379.0 35.0Z" fill-rule="nonzero"/><path stroke="#000000" stroke-width="0.0" stroke-linecap="butt" stroke-opacity="0.0" clip-path="url(#id_0)" d="M529.0 332.0L431.0 332.0L431.0 264.0C431.0 262.89542 431.89542 262.0 433.0 262.0L527.0 262.0C528.10455 262.0 529.0 262.89542 529.0 264.0Z" fill-rule="nonzero"/><path fill="#4285f4" clip-path="url(#id_0)" d="M529.0 332.0L431.0 332.0L431.0 264.0C431.0 262.89542 431.89542 262.0 433.0 262.0L527.0 262.0C528.10455 262.0 529.0 262.89542 529.0 264.0Z" fill-rule="nonzero"/><path fill="#000000" d="M23.018763 190.29688Q22.096888 190.29688 21.456263 189.84375Q20.815638 189.375 20.815638 188.5Q20.815638 187.6875 21.393763 187.15625Q21.971888 186.625 23.081263 186.625Q24.175013 186.625 24.768763 187.17188Q25.346888 187.70312 25.346888 188.48438Q25.346888 189.26562 24.768763 189.78125Q24.190638 190.29688 23.018763 190.29688ZM21.534388 188.46875Q21.534388 188.85938 21.878138 189.125Q22.221888 189.375 23.128138 189.375Q23.956263 189.375 24.300013 189.125Q24.628138 188.85938 24.628138 188.46875Q24.628138 188.0625 24.284388 187.8125Q23.940638 187.54688 23.050013 187.54688Q22.206263 187.54688 21.878138 187.8125Q21.534388 188.07812 21.534388 188.46875ZM29.862513 188.46875L20.815638 183.76562L20.815638 182.90625L29.862513 187.59375L29.862513 188.46875ZM27.534388 184.75Q26.612513 184.75 25.971888 184.29688Q25.331263 183.82812 25.331263 182.9375Q25.331263 182.125 25.909388 181.59375Q26.471888 181.0625 27.596888 181.0625Q28.690638 181.0625 29.284388 181.60938Q29.862513 182.14062 29.862513 182.9375Q29.862513 183.70312 29.284388 184.23438Q28.706263 184.75 27.534388 184.75ZM26.050013 182.90625Q26.050013 183.3125 26.393763 183.57812Q26.737513 183.82812 27.643763 183.82812Q28.456263 183.82812 28.800013 183.5625Q29.143763 183.29688 29.143763 182.90625Q29.143763 182.51562 28.800013 182.25Q28.456263 181.98438 27.550013 181.98438Q26.721888 181.98438 26.393763 182.25Q26.050013 182.51562 26.050013 182.90625Z" fill-rule="nonzero"/><path fill="#000000" d="M65.05 332.21564Q65.05 330.6844 65.3625 329.7625Q65.675 328.825 66.28438 328.325Q66.90938 327.825 67.84688 327.825Q68.53438 327.825 69.05 328.10626Q69.58125 328.3875 69.925 328.91876Q70.26875 329.4344 70.45625 330.1844Q70.64375 330.9344 70.64375 332.21564Q70.64375 333.73126 70.33125 334.65314Q70.03438 335.575 69.40938 336.09064Q68.8 336.59064 67.84688 336.59064Q66.6125 336.59064 65.89375 335.7Q65.05 334.6375 65.05 332.21564ZM66.12813 332.21564Q66.12813 334.325 66.62813 335.02814Q67.12813 335.73126 67.84688 335.73126Q68.58125 335.73126 69.06563 335.02814Q69.56563 334.325 69.56563 332.21564Q69.56563 330.09064 69.06563 329.40314Q68.58125 328.7 67.83125 328.7Q67.1125 328.7 66.675 329.3094Q66.12813 330.09064 66.12813 332.21564Z" fill-rule="nonzero"/><path fill="#000000" d="M63.596874 233.13437L63.596874 234.15L57.909374 234.15Q57.909374 233.775 58.034374 233.41562Q58.253124 232.8375 58.721874 232.275Q59.20625 231.7125 60.1125 230.97812Q61.51875 229.82187 62.003124 229.15Q62.503124 228.47812 62.503124 227.88437Q62.503124 227.25937 62.05 226.8375Q61.596874 226.4 60.878124 226.4Q60.1125 226.4 59.659374 226.85312Q59.20625 227.30624 59.190624 228.11874L58.1125 228.00937Q58.221874 226.79062 58.940624 226.16562Q59.675 225.525 60.909374 225.525Q62.14375 225.525 62.8625 226.2125Q63.58125 226.9 63.58125 227.91562Q63.58125 228.43124 63.3625 228.93124Q63.159374 229.41562 62.659374 229.97812Q62.175 230.525 61.05 231.47812Q60.096874 232.275 59.815624 232.57187Q59.55 232.85312 59.378124 233.13437L63.596874 233.13437ZM65.05 229.91562Q65.05 228.38437 65.3625 227.4625Q65.675 226.525 66.28438 226.025Q66.90938 225.525 67.84688 225.525Q68.53438 225.525 69.05 225.80624Q69.58125 226.0875 69.925 226.61874Q70.26875 227.13437 70.45625 227.88437Q70.64375 228.63437 70.64375 229.91562Q70.64375 231.43124 70.33125 232.35312Q70.03438 233.275 69.40938 233.79062Q68.8 234.29062 67.84688 234.29062Q66.6125 234.29062 65.89375 233.4Q65.05 232.3375 65.05 229.91562ZM66.12813 229.91562Q66.12813 232.025 66.62813 232.72812Q67.12813 233.43124 67.84688 233.43124Q68.58125 233.43124 69.06563 232.72812Q69.56563 232.025 69.56563 229.91562Q69.56563 227.79062 69.06563 227.10312Q68.58125 226.4 67.83125 226.4Q67.1125 226.4 66.675 227.00937Q66.12813 227.79062 66.12813 229.91562Z" fill-rule="nonzero"/><path fill="#000000" d="M61.425 131.85L61.425 129.7875L57.70625 129.7875L57.70625 128.81876L61.628124 123.256256L62.4875 123.256256L62.4875 128.81876L63.64375 128.81876L63.64375 129.7875L62.4875 129.7875L62.4875 131.85L61.425 131.85ZM61.425 128.81876L61.425 124.95938L58.7375 128.81876L61.425 128.81876ZM65.05 127.61563Q65.05 126.08438 65.3625 125.162506Q65.675 124.225006 66.28438 123.725006Q66.90938 123.225006 67.84688 123.225006Q68.53438 123.225006 69.05 123.506256Q69.58125 123.787506 69.925 124.318756Q70.26875 124.83438 70.45625 125.58438Q70.64375 126.33438 70.64375 127.61563Q70.64375 129.13126 70.33125 130.05313Q70.03438 130.975 69.40938 131.49063Q68.8 131.99063 67.84688 131.99063Q66.6125 131.99063 65.89375 131.1Q65.05 130.0375 65.05 127.61563ZM66.12813 127.61563Q66.12813 129.725 66.62813 130.42813Q67.12813 131.13126 67.84688 131.13126Q68.58125 131.13126 69.06563 130.42813Q69.56563 129.725 69.56563 127.61563Q69.56563 125.49063 69.06563 124.80313Q68.58125 124.100006 67.83125 124.100006Q67.1125 124.100006 66.675 124.70938Q66.12813 125.49063 66.12813 127.61563Z" fill-rule="nonzero"/><path fill="#000000" d="M63.51875 23.065624L62.471874 23.14375Q62.33125 22.51875 62.08125 22.2375Q61.64375 21.784374 61.01875 21.784374Q60.51875 21.784374 60.128124 22.065624Q59.64375 22.440624 59.346874 23.14375Q59.065624 23.83125 59.05 25.1125Q59.425 24.534374 59.971874 24.253124Q60.534374 23.971874 61.14375 23.971874Q62.190624 23.971874 62.925 24.753124Q63.675 25.534374 63.675 26.753124Q63.675 27.565624 63.315624 28.26875Q62.971874 28.95625 62.3625 29.33125Q61.753124 29.690624 60.9875 29.690624Q59.659374 29.690624 58.83125 28.721874Q58.003124 27.753124 58.003124 25.534374Q58.003124 23.034374 58.925 21.909374Q59.721874 20.925 61.08125 20.925Q62.096874 20.925 62.7375 21.503124Q63.39375 22.065624 63.51875 23.065624ZM59.221874 26.76875Q59.221874 27.315624 59.440624 27.815624Q59.675 28.3 60.08125 28.565624Q60.503124 28.83125 60.971874 28.83125Q61.628124 28.83125 62.1125 28.3Q62.596874 27.753124 62.596874 26.83125Q62.596874 25.940624 62.1125 25.425Q61.64375 24.909374 60.925 24.909374Q60.20625 24.909374 59.70625 25.425Q59.221874 25.940624 59.221874 26.76875ZM65.05 25.315624Q65.05 23.784374 65.3625 22.8625Q65.675 21.925 66.28438 21.425Q66.90938 20.925 67.84688 20.925Q68.53438 20.925 69.05 21.20625Q69.58125 21.4875 69.925 22.01875Q70.26875 22.534374 70.45625 23.284374Q70.64375 24.034374 70.64375 25.315624Q70.64375 26.83125 70.33125 27.753124Q70.03438 28.675 69.40938 29.190624Q68.8 29.690624 67.84688 29.690624Q66.6125 29.690624 65.89375 28.8Q65.05 27.7375 65.05 25.315624ZM66.12813 25.315624Q66.12813 27.425 66.62813 28.128124Q67.12813 28.83125 67.84688 28.83125Q68.58125 28.83125 69.06563 28.128124Q69.56563 27.425 69.56563 25.315624Q69.56563 23.190624 69.06563 22.503124Q68.58125 21.8 67.83125 21.8Q67.1125 21.8 66.675 22.409374Q66.12813 23.190624 66.12813 25.315624Z" fill-rule="nonzero"/><path fill="#000000" d="M148.56647 349.45L151.86334 340.85626L153.08209 340.85626L156.59772 349.45L155.31647 349.45L154.30084 346.84064L150.72272 346.84064L149.76959 349.45L148.56647 349.45ZM151.05084 345.91876L153.95709 345.91876L153.06647 343.54376Q152.64459 342.46564 152.45709 341.7625Q152.28522 342.59064 151.98834 343.40314L151.05084 345.91876ZM157.34772 349.45L157.34772 340.85626L158.41022 340.85626L158.41022 349.45L157.34772 349.45ZM160.17584 349.96564L161.20709 350.1219Q161.26959 350.59064 161.56647 350.8094Q161.95709 351.10626 162.62897 351.10626Q163.36334 351.10626 163.75397 350.8094Q164.16022 350.5125 164.30084 349.9969Q164.39459 349.66876 164.37897 348.6375Q163.69147 349.45 162.66022 349.45Q161.37897 349.45 160.67584 348.52814Q159.97272 347.59064 159.97272 346.3094Q159.97272 345.41876 160.28522 344.66876Q160.61334 343.90314 161.22272 343.4969Q161.83209 343.09064 162.66022 343.09064Q163.76959 343.09064 164.48834 343.98126L164.48834 343.23126L165.45709 343.23126L165.45709 348.60626Q165.45709 350.0594 165.16022 350.66876Q164.86334 351.27814 164.22272 351.6219Q163.58209 351.98126 162.64459 351.98126Q161.53522 351.98126 160.84772 351.48126Q160.16022 350.98126 160.17584 349.96564ZM161.05084 346.23126Q161.05084 347.45 161.53522 348.0125Q162.01959 348.575 162.75397 348.575Q163.48834 348.575 163.97272 348.0125Q164.47272 347.45 164.47272 346.2625Q164.47272 345.1219 163.95709 344.54376Q163.45709 343.96564 162.73834 343.96564Q162.03522 343.96564 161.53522 344.54376Q161.05084 345.10626 161.05084 346.23126ZM166.98834 346.34064Q166.98834 344.60626 167.94147 343.77814Q168.73834 343.09064 169.89459 343.09064Q171.17584 343.09064 171.98834 343.9344Q172.81647 344.7625 172.81647 346.2469Q172.81647 347.45 172.45709 348.1375Q172.09772 348.825 171.39459 349.21564Q170.70709 349.59064 169.89459 349.59064Q168.59772 349.59064 167.78522 348.7625Q166.98834 347.91876 166.98834 346.34064ZM168.06647 346.34064Q168.06647 347.52814 168.58209 348.1219Q169.11334 348.71564 169.89459 348.71564Q170.69147 348.71564 171.20709 348.1219Q171.72272 347.52814 171.72272 346.3094Q171.72272 345.15314 171.19147 344.5594Q170.67584 343.96564 169.89459 343.96564Q169.11334 343.96564 168.58209 344.5594Q168.06647 345.1375 168.06647 346.34064ZM174.36334 349.45L174.36334 343.23126L175.31647 343.23126L175.31647 344.16876Q175.67584 343.5125 175.97272 343.3094Q176.28522 343.09064 176.66022 343.09064Q177.19147 343.09064 177.73834 343.41876L177.37897 344.40314Q176.98834 344.16876 176.61334 344.16876Q176.25397 344.16876 175.97272 344.3875Q175.70709 344.59064 175.59772 344.96564Q175.41022 345.52814 175.41022 346.1844L175.41022 349.45L174.36334 349.45ZM178.37897 342.075L178.37897 340.85626L179.44147 340.85626L179.44147 342.075L178.37897 342.075ZM178.37897 349.45L178.37897 343.23126L179.44147 343.23126L179.44147 349.45L178.37897 349.45ZM183.67584 348.5125L183.83209 349.4344Q183.37897 349.52814 183.03522 349.52814Q182.45709 349.52814 182.14459 349.35626Q181.83209 349.16876 181.69147 348.8719Q181.56647 348.575 181.56647 347.6219L181.56647 344.04376L180.80084 344.04376L180.80084 343.23126L181.56647 343.23126L181.56647 341.6844L182.61334 341.0594L182.61334 343.23126L183.67584 343.23126L183.67584 344.04376L182.61334 344.04376L182.61334 347.6844Q182.61334 348.1375 182.66022 348.2625Q182.72272 348.3875 182.84772 348.46564Q182.97272 348.54376 183.20709 348.54376Q183.39459 348.54376 183.67584 348.5125ZM184.37897 349.45L184.37897 340.85626L185.42584 340.85626L185.42584 343.9344Q186.16022 343.09064 187.28522 343.09064Q187.98834 343.09064 188.48834 343.3719Q189.00397 343.6375 189.22272 344.1219Q189.44147 344.59064 189.44147 345.5125L189.44147 349.45L188.39459 349.45L188.39459 345.5125Q188.39459 344.71564 188.05084 344.35626Q187.70709 343.9969 187.08209 343.9969Q186.61334 343.9969 186.19147 344.2469Q185.78522 344.48126 185.59772 344.90314Q185.42584 345.3094 185.42584 346.04376L185.42584 349.45L184.37897 349.45ZM191.37897 349.45L191.37897 343.23126L192.31647 343.23126L192.31647 344.10626Q192.61334 343.6375 193.09772 343.3719Q193.58209 343.09064 194.20709 343.09064Q194.89459 343.09064 195.33209 343.3719Q195.78522 343.65314 195.95709 344.16876Q196.70709 343.09064 197.87897 343.09064Q198.81647 343.09064 199.30084 343.60626Q199.80084 344.10626 199.80084 345.1844L199.80084 349.45L198.75397 349.45L198.75397 345.52814Q198.75397 344.90314 198.64459 344.6219Q198.55084 344.34064 198.28522 344.16876Q198.01959 343.9969 197.64459 343.9969Q196.98834 343.9969 196.55084 344.4344Q196.12897 344.8719 196.12897 345.84064L196.12897 349.45L195.06647 349.45L195.06647 345.40314Q195.06647 344.7 194.80084 344.35626Q194.55084 343.9969 193.97272 343.9969Q193.51959 343.9969 193.14459 344.23126Q192.76959 344.46564 192.59772 344.91876Q192.42584 345.3719 192.42584 346.21564L192.42584 349.45L191.37897 349.45ZM201.37897 342.075L201.37897 340.85626L202.44147 340.85626L202.44147 342.075L201.37897 342.075ZM201.37897 349.45L201.37897 343.23126L202.44147 343.23126L202.44147 349.45L201.37897 349.45ZM208.44147 347.16876L209.47272 347.3094Q209.30084 348.3719 208.59772 348.98126Q207.89459 349.59064 206.87897 349.59064Q205.59772 349.59064 204.81647 348.7625Q204.05084 347.91876 204.05084 346.35626Q204.05084 345.35626 204.37897 344.60626Q204.72272 343.84064 205.39459 343.46564Q206.08209 343.09064 206.89459 343.09064Q207.89459 343.09064 208.53522 343.60626Q209.19147 344.10626 209.37897 345.0594L208.34772 345.21564Q208.20709 344.59064 207.83209 344.27814Q207.45709 343.95 206.92584 343.95Q206.12897 343.95 205.62897 344.52814Q205.12897 345.09064 205.12897 346.325Q205.12897 347.59064 205.61334 348.15314Q206.09772 348.71564 206.86334 348.71564Q207.48834 348.71564 207.89459 348.34064Q208.31647 347.96564 208.44147 347.16876Z" fill-rule="nonzero"/><path fill="#000000" d="M312.0625 346.4344L313.1875 346.73126Q312.82812 348.1219 311.90625 348.85626Q310.98438 349.59064 309.64062 349.59064Q308.25 349.59064 307.375 349.02814Q306.5 348.46564 306.04688 347.40314Q305.59375 346.325 305.59375 345.09064Q305.59375 343.7469 306.10938 342.7469Q306.625 341.7469 307.5625 341.23126Q308.51562 340.71564 309.65625 340.71564Q310.9375 340.71564 311.8125 341.3719Q312.70312 342.02814 313.04688 343.21564L311.92188 343.48126Q311.625 342.54376 311.04688 342.1219Q310.48438 341.6844 309.625 341.6844Q308.64062 341.6844 307.96875 342.16876Q307.3125 342.6375 307.03125 343.4344Q306.76562 344.23126 306.76562 345.09064Q306.76562 346.1844 307.07812 346.9969Q307.40625 347.8094 308.07812 348.21564Q308.75 348.6219 309.54688 348.6219Q310.5 348.6219 311.15625 348.075Q311.82812 347.52814 312.0625 346.4344ZM314.40625 346.34064Q314.40625 344.60626 315.35938 343.77814Q316.15625 343.09064 317.3125 343.09064Q318.59375 343.09064 319.40625 343.9344Q320.23438 344.7625 320.23438 346.2469Q320.23438 347.45 319.875 348.1375Q319.51562 348.825 318.8125 349.21564Q318.125 349.59064 317.3125 349.59064Q316.01562 349.59064 315.20312 348.7625Q314.40625 347.91876 314.40625 346.34064ZM315.48438 346.34064Q315.48438 347.52814 316.0 348.1219Q316.53125 348.71564 317.3125 348.71564Q318.10938 348.71564 318.625 348.1219Q319.14062 347.52814 319.14062 346.3094Q319.14062 345.15314 318.60938 344.5594Q318.09375 343.96564 317.3125 343.96564Q316.53125 343.96564 316.0 344.5594Q315.48438 345.1375 315.48438 346.34064ZM321.79688 349.45L321.79688 343.23126L322.73438 343.23126L322.73438 344.10626Q323.42188 343.09064 324.71875 343.09064Q325.28125 343.09064 325.75 343.29376Q326.23438 343.4969 326.46875 343.825Q326.70312 344.15314 326.79688 344.59064Q326.84375 344.8875 326.84375 345.6219L326.84375 349.45L325.79688 349.45L325.79688 345.66876Q325.79688 345.0125 325.67188 344.7Q325.54688 344.3875 325.23438 344.2Q324.92188 343.9969 324.5 343.9969Q323.82812 343.9969 323.32812 344.4344Q322.84375 344.85626 322.84375 346.04376L322.84375 349.45L321.79688 349.45ZM328.375 347.59064L329.40625 347.4344Q329.5 348.0594 329.89062 348.3875Q330.29688 348.71564 331.03125 348.71564Q331.75 348.71564 332.09375 348.4344Q332.45312 348.1375 332.45312 347.73126Q332.45312 347.3719 332.14062 347.16876Q331.92188 347.02814 331.0625 346.8094Q329.90625 346.5125 329.45312 346.3094Q329.01562 346.09064 328.78125 345.71564Q328.54688 345.34064 328.54688 344.8719Q328.54688 344.46564 328.73438 344.10626Q328.92188 343.7469 329.25 343.5125Q329.5 343.34064 329.92188 343.21564Q330.34375 343.09064 330.84375 343.09064Q331.5625 343.09064 332.10938 343.3094Q332.67188 343.5125 332.9375 343.8719Q333.20312 344.23126 333.29688 344.825L332.26562 344.96564Q332.20312 344.4969 331.85938 344.23126Q331.53125 343.95 330.90625 343.95Q330.1875 343.95 329.875 344.2Q329.5625 344.4344 329.5625 344.7625Q329.5625 344.96564 329.6875 345.1219Q329.82812 345.29376 330.09375 345.40314Q330.25 345.46564 331.03125 345.66876Q332.15625 345.98126 332.59375 346.16876Q333.03125 346.35626 333.28125 346.71564Q333.53125 347.075 333.53125 347.6219Q333.53125 348.15314 333.21875 348.6219Q332.92188 349.075 332.34375 349.34064Q331.76562 349.59064 331.03125 349.59064Q329.8125 349.59064 329.17188 349.09064Q328.54688 348.575 328.375 347.59064ZM337.09375 348.5125L337.25 349.4344Q336.79688 349.52814 336.45312 349.52814Q335.875 349.52814 335.5625 349.35626Q335.25 349.16876 335.10938 348.8719Q334.98438 348.575 334.98438 347.6219L334.98438 344.04376L334.21875 344.04376L334.21875 343.23126L334.98438 343.23126L334.98438 341.6844L336.03125 341.0594L336.03125 343.23126L337.09375 343.23126L337.09375 344.04376L336.03125 344.04376L336.03125 347.6844Q336.03125 348.1375 336.07812 348.2625Q336.14062 348.3875 336.26562 348.46564Q336.39062 348.54376 336.625 348.54376Q336.8125 348.54376 337.09375 348.5125ZM341.85938 348.6844Q341.26562 349.1844 340.71875 349.3875Q340.1875 349.59064 339.5625 349.59064Q338.53125 349.59064 337.98438 349.09064Q337.4375 348.59064 337.4375 347.8094Q337.4375 347.35626 337.64062 346.98126Q337.84375 346.59064 338.1875 346.3719Q338.53125 346.1375 338.95312 346.02814Q339.25 345.9344 339.89062 345.85626Q341.15625 345.71564 341.76562 345.4969Q341.76562 345.27814 341.76562 345.23126Q341.76562 344.575 341.46875 344.3094Q341.0625 343.96564 340.26562 343.96564Q339.53125 343.96564 339.17188 344.23126Q338.8125 344.48126 338.64062 345.1375L337.60938 344.9969Q337.75 344.34064 338.07812 343.9344Q338.40625 343.52814 339.01562 343.3094Q339.625 343.09064 340.42188 343.09064Q341.21875 343.09064 341.71875 343.27814Q342.21875 343.46564 342.45312 343.7469Q342.6875 344.02814 342.78125 344.46564Q342.82812 344.73126 342.82812 345.4344L342.82812 346.84064Q342.82812 348.3094 342.89062 348.7Q342.96875 349.09064 343.17188 349.45L342.0625 349.45Q341.90625 349.1219 341.85938 348.6844ZM341.76562 346.325Q341.1875 346.5594 340.04688 346.73126Q339.39062 346.825 339.125 346.95Q338.85938 347.0594 338.70312 347.27814Q338.5625 347.4969 338.5625 347.77814Q338.5625 348.2 338.875 348.48126Q339.20312 348.7625 339.8125 348.7625Q340.42188 348.7625 340.89062 348.4969Q341.375 348.23126 341.59375 347.7625Q341.76562 347.40314 341.76562 346.71564L341.76562 346.325ZM344.79688 349.45L344.79688 343.23126L345.73438 343.23126L345.73438 344.10626Q346.42188 343.09064 347.71875 343.09064Q348.28125 343.09064 348.75 343.29376Q349.23438 343.4969 349.46875 343.825Q349.70312 344.15314 349.79688 344.59064Q349.84375 344.8875 349.84375 345.6219L349.84375 349.45L348.79688 349.45L348.79688 345.66876Q348.79688 345.0125 348.67188 344.7Q348.54688 344.3875 348.23438 344.2Q347.92188 343.9969 347.5 343.9969Q346.82812 343.9969 346.32812 344.4344Q345.84375 344.85626 345.84375 346.04376L345.84375 349.45L344.79688 349.45ZM354.09375 348.5125L354.25 349.4344Q353.79688 349.52814 353.45312 349.52814Q352.875 349.52814 352.5625 349.35626Q352.25 349.16876 352.10938 348.8719Q351.98438 348.575 351.98438 347.6219L351.98438 344.04376L351.21875 344.04376L351.21875 343.23126L351.98438 343.23126L351.98438 341.6844L353.03125 341.0594L353.03125 343.23126L354.09375 343.23126L354.09375 344.04376L353.03125 344.04376L353.03125 347.6844Q353.03125 348.1375 353.07812 348.2625Q353.14062 348.3875 353.26562 348.46564Q353.39062 348.54376 353.625 348.54376Q353.8125 348.54376 354.09375 348.5125Z" fill-rule="nonzero"/><path fill="#000000" d="M451.90228 349.45L451.90228 340.85626L457.69916 340.85626L457.69916 341.8719L453.0429 341.8719L453.0429 344.52814L457.07416 344.52814L457.07416 345.54376L453.0429 345.54376L453.0429 349.45L451.90228 349.45ZM458.32416 346.34064Q458.32416 344.60626 459.27728 343.77814Q460.07416 343.09064 461.2304 343.09064Q462.51166 343.09064 463.32416 343.9344Q464.15228 344.7625 464.15228 346.2469Q464.15228 347.45 463.7929 348.1375Q463.43353 348.825 462.7304 349.21564Q462.0429 349.59064 461.2304 349.59064Q459.93353 349.59064 459.12103 348.7625Q458.32416 347.91876 458.32416 346.34064ZM459.40228 346.34064Q459.40228 347.52814 459.9179 348.1219Q460.44916 348.71564 461.2304 348.71564Q462.02728 348.71564 462.5429 348.1219Q463.05853 347.52814 463.05853 346.3094Q463.05853 345.15314 462.52728 344.5594Q462.01166 343.96564 461.2304 343.96564Q460.44916 343.96564 459.9179 344.5594Q459.40228 345.1375 459.40228 346.34064ZM465.69916 349.45L465.69916 343.23126L466.65228 343.23126L466.65228 344.16876Q467.01166 343.5125 467.30853 343.3094Q467.62103 343.09064 467.99603 343.09064Q468.52728 343.09064 469.07416 343.41876L468.71478 344.40314Q468.32416 344.16876 467.94916 344.16876Q467.58978 344.16876 467.30853 344.3875Q467.0429 344.59064 466.93353 344.96564Q466.74603 345.52814 466.74603 346.1844L466.74603 349.45L465.69916 349.45ZM469.71478 349.45L469.71478 343.23126L470.65228 343.23126L470.65228 344.10626Q470.94916 343.6375 471.43353 343.3719Q471.9179 343.09064 472.5429 343.09064Q473.2304 343.09064 473.6679 343.3719Q474.12103 343.65314 474.2929 344.16876Q475.0429 343.09064 476.21478 343.09064Q477.15228 343.09064 477.63666 343.60626Q478.13666 344.10626 478.13666 345.1844L478.13666 349.45L477.08978 349.45L477.08978 345.52814Q477.08978 344.90314 476.9804 344.6219Q476.88666 344.34064 476.62103 344.16876Q476.3554 343.9969 475.9804 343.9969Q475.32416 343.9969 474.88666 344.4344Q474.46478 344.8719 474.46478 345.84064L474.46478 349.45L473.40228 349.45L473.40228 345.40314Q473.40228 344.7 473.13666 344.35626Q472.88666 343.9969 472.30853 343.9969Q471.8554 343.9969 471.4804 344.23126Q471.1054 344.46564 470.93353 344.91876Q470.76166 345.3719 470.76166 346.21564L470.76166 349.45L469.71478 349.45ZM483.77728 348.6844Q483.18353 349.1844 482.63666 349.3875Q482.1054 349.59064 481.4804 349.59064Q480.44916 349.59064 479.90228 349.09064Q479.3554 348.59064 479.3554 347.8094Q479.3554 347.35626 479.55853 346.98126Q479.76166 346.59064 480.1054 346.3719Q480.44916 346.1375 480.87103 346.02814Q481.1679 345.9344 481.80853 345.85626Q483.07416 345.71564 483.68353 345.4969Q483.68353 345.27814 483.68353 345.23126Q483.68353 344.575 483.38666 344.3094Q482.9804 343.96564 482.18353 343.96564Q481.44916 343.96564 481.08978 344.23126Q480.7304 344.48126 480.55853 345.1375L479.52728 344.9969Q479.6679 344.34064 479.99603 343.9344Q480.32416 343.52814 480.93353 343.3094Q481.5429 343.09064 482.33978 343.09064Q483.13666 343.09064 483.63666 343.27814Q484.13666 343.46564 484.37103 343.7469Q484.6054 344.02814 484.69916 344.46564Q484.74603 344.73126 484.74603 345.4344L484.74603 346.84064Q484.74603 348.3094 484.80853 348.7Q484.88666 349.09064 485.08978 349.45L483.9804 349.45Q483.82416 349.1219 483.77728 348.6844ZM483.68353 346.325Q483.1054 346.5594 481.96478 346.73126Q481.30853 346.825 481.0429 346.95Q480.77728 347.0594 480.62103 347.27814Q480.4804 347.4969 480.4804 347.77814Q480.4804 348.2 480.7929 348.48126Q481.12103 348.7625 481.7304 348.7625Q482.33978 348.7625 482.80853 348.4969Q483.2929 348.23126 483.51166 347.7625Q483.68353 347.40314 483.68353 346.71564L483.68353 346.325ZM489.01166 348.5125L489.1679 349.4344Q488.71478 349.52814 488.37103 349.52814Q487.7929 349.52814 487.4804 349.35626Q487.1679 349.16876 487.02728 348.8719Q486.90228 348.575 486.90228 347.6219L486.90228 344.04376L486.13666 344.04376L486.13666 343.23126L486.90228 343.23126L486.90228 341.6844L487.94916 341.0594L487.94916 343.23126L489.01166 343.23126L489.01166 344.04376L487.94916 344.04376L487.94916 347.6844Q487.94916 348.1375 487.99603 348.2625Q488.05853 348.3875 488.18353 348.46564Q488.30853 348.54376 488.5429 348.54376Q488.7304 348.54376 489.01166 348.5125ZM492.01166 348.5125L492.1679 349.4344Q491.71478 349.52814 491.37103 349.52814Q490.7929 349.52814 490.4804 349.35626Q490.1679 349.16876 490.02728 348.8719Q489.90228 348.575 489.90228 347.6219L489.90228 344.04376L489.13666 344.04376L489.13666 343.23126L489.90228 343.23126L489.90228 341.6844L490.94916 341.0594L490.94916 343.23126L492.01166 343.23126L492.01166 344.04376L490.94916 344.04376L490.94916 347.6844Q490.94916 348.1375 490.99603 348.2625Q491.05853 348.3875 491.18353 348.46564Q491.30853 348.54376 491.5429 348.54376Q491.7304 348.54376 492.01166 348.5125ZM492.71478 342.075L492.71478 340.85626L493.77728 340.85626L493.77728 342.075L492.71478 342.075ZM492.71478 349.45L492.71478 343.23126L493.77728 343.23126L493.77728 349.45L492.71478 349.45ZM495.71478 349.45L495.71478 343.23126L496.65228 343.23126L496.65228 344.10626Q497.33978 343.09064 498.63666 343.09064Q499.19916 343.09064 499.6679 343.29376Q500.15228 343.4969 500.38666 343.825Q500.62103 344.15314 500.71478 344.59064Q500.76166 344.8875 500.76166 345.6219L500.76166 349.45L499.71478 349.45L499.71478 345.66876Q499.71478 345.0125 499.58978 344.7Q499.46478 344.3875 499.15228 344.2Q498.83978 343.9969 498.4179 343.9969Q497.74603 343.9969 497.24603 344.4344Q496.76166 344.85626 496.76166 346.04376L496.76166 349.45L495.71478 349.45ZM502.51166 349.96564L503.5429 350.1219Q503.6054 350.59064 503.90228 350.8094Q504.2929 351.10626 504.96478 351.10626Q505.69916 351.10626 506.08978 350.8094Q506.49603 350.5125 506.63666 349.9969Q506.7304 349.66876 506.71478 348.6375Q506.02728 349.45 504.99603 349.45Q503.71478 349.45 503.01166 348.52814Q502.30853 347.59064 502.30853 346.3094Q502.30853 345.41876 502.62103 344.66876Q502.94916 343.90314 503.55853 343.4969Q504.1679 343.09064 504.99603 343.09064Q506.1054 343.09064 506.82416 343.98126L506.82416 343.23126L507.7929 343.23126L507.7929 348.60626Q507.7929 350.0594 507.49603 350.66876Q507.19916 351.27814 506.55853 351.6219Q505.9179 351.98126 504.9804 351.98126Q503.87103 351.98126 503.18353 351.48126Q502.49603 350.98126 502.51166 349.96564ZM503.38666 346.23126Q503.38666 347.45 503.87103 348.0125Q504.3554 348.575 505.08978 348.575Q505.82416 348.575 506.30853 348.0125Q506.80853 347.45 506.80853 346.2625Q506.80853 345.1219 506.2929 344.54376Q505.7929 343.96564 505.07416 343.96564Q504.37103 343.96564 503.87103 344.54376Q503.38666 345.10626 503.38666 346.23126Z" fill-rule="nonzero"/></svg>