<svg version="1.1" viewBox="0.0 0.0 710.0 439.0" fill="none" stroke="none" stroke-linecap="square" stroke-miterlimit="10" width="710" height="439" xmlns:xlink="http://www.w3.org/1999/xlink" xmlns="http://www.w3.org/2000/svg"><path fill="#ffffff" fill-opacity="0.0" d="M0 0L710.0 0L710.0 439.0L0 439.0L0 0Z" fill-rule="nonzero"/><path stroke="#333333" stroke-width="1.0" stroke-linecap="butt" d="M116.5 343.5L688.5 343.5" fill-rule="nonzero"/><path fill="#eeeeee" d="M82.5 377.5L116.5 344.5L688.5 344.5L654.5 377.5Z" fill-rule="nonzero"/><path stroke="#cccccc" stroke-width="1.0" stroke-linecap="butt" d="M116.5 281.5L688.5 281.5" fill-rule="nonzero"/><path stroke="#cccccc" stroke-width="1.0" stroke-linecap="butt" d="M116.5 219.5L688.5 219.5" fill-rule="nonzero"/><path stroke="#cccccc" stroke-width="1.0" stroke-linecap="butt" d="M116.5 157.5L688.5 157.5" fill-rule="nonzero"/><path stroke="#cccccc" stroke-width="1.0" stroke-linecap="butt" d="M116.5 95.5L688.5 95.5" fill-rule="nonzero"/><path stroke="#cccccc" stroke-width="1.0" stroke-linecap="butt" d="M116.5 33.5L688.5 33.5" fill-rule="nonzero"/><clipPath id="id_0"><path d="M82.95 33.95L688.05 33.95L688.05 377.05L82.95 377.05L82.95 33.95Z" clip-rule="nonzero"/></clipPath><path fill="#7c5e00" clip-path="url(#id_0)" d="M278.0 257.0L278.0 343.0L249.0 372.0L249.0 286.0Z" fill-rule="nonzero"/><path fill="#cca633" clip-path="url(#id_0)" d="M249.0 286.0L132.0 286.0L161.0 257.0L278.0 257.0Z" fill-rule="nonzero"/><path stroke="#000000" stroke-width="0.0" stroke-linecap="butt" stroke-opacity="0.0" clip-path="url(#id_0)" d="M249.0 372.0L132.0 372.0L132.0 286.0L249.0 286.0Z" fill-rule="nonzero"/><path fill="#bf9000" clip-path="url(#id_0)" d="M249.0 372.0L132.0 372.0L132.0 286.0L249.0 286.0Z" fill-rule="nonzero"/><path fill="#7c5e00" clip-path="url(#id_0)" d="M459.0 162.0L459.0 343.0L430.0 372.0L430.0 191.0Z" fill-rule="nonzero"/><path fill="#cca633" clip-path="url(#id_0)" d="M430.0 191.0L313.0 191.0L342.0 162.0L459.0 162.0Z" fill-rule="nonzero"/><path stroke="#000000" stroke-width="0.0" stroke-linecap="butt" stroke-opacity="0.0" clip-path="url(#id_0)" d="M430.0 372.0L313.0 372.0L313.0 191.0L430.0 191.0Z" fill-rule="nonzero"/><path fill="#bf9000" clip-path="url(#id_0)" d="M430.0 372.0L313.0 372.0L313.0 191.0L430.0 191.0Z" fill-rule="nonzero"/><path fill="#7c5e00" clip-path="url(#id_0)" d="M640.0 300.0L640.0 343.0L611.0 372.0L611.0 329.0Z" fill-rule="nonzero"/><path fill="#cca633" clip-path="url(#id_0)" d="M611.0 329.0L494.0 329.0L523.0 300.0L640.0 300.0Z" fill-rule="nonzero"/><path stroke="#000000" stroke-width="0.0" stroke-linecap="butt" stroke-opacity="0.0" clip-path="url(#id_0)" d="M611.0 372.0L494.0 372.0L494.0 329.0L611.0 329.0Z" fill-rule="nonzero"/><path fill="#bf9000" clip-path="url(#id_0)" d="M611.0 372.0L494.0 372.0L494.0 329.0L611.0 329.0Z" fill-rule="nonzero"/><path fill="#000000" d="M44.778126 342.9875Q44.778126 340.45624 45.29375 338.90936Q45.825 337.34686 46.85625 336.51874Q47.8875 335.675 49.45 335.675Q50.60625 335.675 51.465626 336.14374Q52.340626 336.59686 52.903126 337.47186Q53.465626 338.34686 53.79375 339.6125Q54.121876 340.8625 54.121876 342.9875Q54.121876 345.5031 53.590626 347.05Q53.075 348.59686 52.04375 349.45624Q51.028126 350.3 49.45 350.3Q47.371876 350.3 46.2 348.8156Q44.778126 347.01874 44.778126 342.9875ZM46.590626 342.9875Q46.590626 346.51874 47.403126 347.6906Q48.23125 348.84686 49.45 348.84686Q50.653126 348.84686 51.48125 347.675Q52.309376 346.5031 52.309376 342.9875Q52.309376 339.45624 51.48125 338.3Q50.653126 337.1281 49.434376 337.1281Q48.215626 337.1281 47.496876 338.15936Q46.590626 339.45624 46.590626 342.9875ZM56.10625 339.175Q56.10625 337.64374 56.871876 336.5656Q57.653126 335.4875 59.121876 335.4875Q60.465626 335.4875 61.340626 336.45624Q62.23125 337.40936 62.23125 339.28436Q62.23125 341.09686 61.340626 342.08124Q60.45 343.05 59.1375 343.05Q57.840626 343.05 56.965626 342.09686Q56.10625 341.1281 56.10625 339.175ZM59.16875 336.70624Q58.5125 336.70624 58.075 337.26874Q57.653126 337.83124 57.653126 339.34686Q57.653126 340.72186 58.090626 341.28436Q58.528126 341.84686 59.16875 341.84686Q59.840626 341.84686 60.2625 341.28436Q60.7 340.70624 60.7 339.20624Q60.7 337.8156 60.2625 337.26874Q59.825 336.70624 59.16875 336.70624ZM59.184376 350.58124L67.0125 335.4875L68.43437 335.4875L60.6375 350.58124L59.184376 350.58124ZM65.37187 346.6906Q65.37187 345.14374 66.1375 344.08124Q66.91875 343.0031 68.3875 343.0031Q69.73125 343.0031 70.60625 343.97186Q71.49687 344.925 71.49687 346.8Q71.49687 348.6125 70.60625 349.59686Q69.71562 350.58124 68.40312 350.58124Q67.10625 350.58124 66.23125 349.6125Q65.37187 348.6281 65.37187 346.6906ZM68.43437 344.22186Q67.77812 344.22186 67.34062 344.78436Q66.90312 345.34686 66.90312 346.8625Q66.90312 348.2375 67.34062 348.8Q67.77812 349.3625 68.43437 349.3625Q69.10625 349.3625 69.52812 348.8Q69.96562 348.2375 69.96562 346.72186Q69.96562 345.34686 69.52812 344.78436Q69.09062 344.22186 68.43437 344.22186Z" fill-rule="nonzero"/><path fill="#000000" d="M43.0125 286.5425L43.0125 288.23L33.559376 288.23Q33.54375 287.5894 33.7625 287.01126Q34.121876 286.0425 34.91875 285.105Q35.715626 284.1675 37.215626 282.93314Q39.559376 281.0269 40.371876 279.9175Q41.2 278.7925 41.2 277.7925Q41.2 276.74564 40.45 276.0269Q39.7 275.30814 38.496876 275.30814Q37.23125 275.30814 36.465626 276.07376Q35.7 276.8394 35.7 278.18314L33.8875 277.99564Q34.075 275.98 35.278126 274.9175Q36.496876 273.855 38.54375 273.855Q40.590626 273.855 41.79375 274.99564Q42.996876 276.13626 42.996876 277.82376Q42.996876 278.68314 42.6375 279.5269Q42.29375 280.355 41.48125 281.2769Q40.66875 282.18314 38.778126 283.7925Q37.184376 285.12064 36.73125 285.5894Q36.29375 286.05814 35.996876 286.5425L43.0125 286.5425ZM44.778126 281.1675Q44.778126 278.63626 45.29375 277.0894Q45.825 275.5269 46.85625 274.69876Q47.8875 273.855 49.45 273.855Q50.60625 273.855 51.465626 274.32376Q52.340626 274.7769 52.903126 275.6519Q53.465626 276.5269 53.79375 277.7925Q54.121876 279.0425 54.121876 281.1675Q54.121876 283.68314 53.590626 285.23Q53.075 286.7769 52.04375 287.63626Q51.028126 288.48 49.45 288.48Q47.371876 288.48 46.2 286.99564Q44.778126 285.19876 44.778126 281.1675ZM46.590626 281.1675Q46.590626 284.69876 47.403126 285.87064Q48.23125 287.0269 49.45 287.0269Q50.653126 287.0269 51.48125 285.855Q52.309376 284.68314 52.309376 281.1675Q52.309376 277.63626 51.48125 276.48Q50.653126 275.30814 49.434376 275.30814Q48.215626 275.30814 47.496876 276.3394Q46.590626 277.63626 46.590626 281.1675ZM56.10625 277.355Q56.10625 275.82376 56.871876 274.74564Q57.653126 273.6675 59.121876 273.6675Q60.465626 273.6675 61.340626 274.63626Q62.23125 275.5894 62.23125 277.4644Q62.23125 279.2769 61.340626 280.26126Q60.45 281.23 59.1375 281.23Q57.840626 281.23 56.965626 280.2769Q56.10625 279.30814 56.10625 277.355ZM59.16875 274.88626Q58.5125 274.88626 58.075 275.44876Q57.653126 276.01126 57.653126 277.5269Q57.653126 278.9019 58.090626 279.4644Q58.528126 280.0269 59.16875 280.0269Q59.840626 280.0269 60.2625 279.4644Q60.7 278.88626 60.7 277.38626Q60.7 275.99564 60.2625 275.44876Q59.825 274.88626 59.16875 274.88626ZM59.184376 288.76126L67.0125 273.6675L68.43437 273.6675L60.6375 288.76126L59.184376 288.76126ZM65.37187 284.87064Q65.37187 283.32376 66.1375 282.26126Q66.91875 281.18314 68.3875 281.18314Q69.73125 281.18314 70.60625 282.1519Q71.49687 283.105 71.49687 284.98Q71.49687 286.7925 70.60625 287.7769Q69.71562 288.76126 68.40312 288.76126Q67.10625 288.76126 66.23125 287.7925Q65.37187 286.80814 65.37187 284.87064ZM68.43437 282.4019Q67.77812 282.4019 67.34062 282.9644Q66.90312 283.5269 66.90312 285.0425Q66.90312 286.4175 67.34062 286.98Q67.77812 287.5425 68.43437 287.5425Q69.10625 287.5425 69.52812 286.98Q69.96562 286.4175 69.96562 284.9019Q69.96562 283.5269 69.52812 282.9644Q69.09062 282.4019 68.43437 282.4019Z" fill-rule="nonzero"/><path fill="#000000" d="M39.41875 226.41L39.41875 222.98813L33.2 222.98813L33.2 221.36313L39.73125 212.0975L41.16875 212.0975L41.16875 221.36313L43.10625 221.36313L43.10625 222.98813L41.16875 222.98813L41.16875 226.41L39.41875 226.41ZM39.41875 221.36313L39.41875 214.91L34.934376 221.36313L39.41875 221.36313ZM44.778126 219.3475Q44.778126 216.81625 45.29375 215.26938Q45.825 213.70688 46.85625 212.87875Q47.8875 212.035 49.45 212.035Q50.60625 212.035 51.465626 212.50375Q52.340626 212.95688 52.903126 213.83188Q53.465626 214.70688 53.79375 215.9725Q54.121876 217.2225 54.121876 219.3475Q54.121876 221.86313 53.590626 223.41Q53.075 224.95688 52.04375 225.81625Q51.028126 226.66 49.45 226.66Q47.371876 226.66 46.2 225.17563Q44.778126 223.37875 44.778126 219.3475ZM46.590626 219.3475Q46.590626 222.87875 47.403126 224.05063Q48.23125 225.20688 49.45 225.20688Q50.653126 225.20688 51.48125 224.035Q52.309376 222.86313 52.309376 219.3475Q52.309376 215.81625 51.48125 214.66Q50.653126 213.48813 49.434376 213.48813Q48.215626 213.48813 47.496876 214.51938Q46.590626 215.81625 46.590626 219.3475ZM56.10625 215.535Q56.10625 214.00375 56.871876 212.92563Q57.653126 211.8475 59.121876 211.8475Q60.465626 211.8475 61.340626 212.81625Q62.23125 213.76938 62.23125 215.64438Q62.23125 217.45688 61.340626 218.44125Q60.45 219.41 59.1375 219.41Q57.840626 219.41 56.965626 218.45688Q56.10625 217.48813 56.10625 215.535ZM59.16875 213.06625Q58.5125 213.06625 58.075 213.62875Q57.653126 214.19125 57.653126 215.70688Q57.653126 217.08188 58.090626 217.64438Q58.528126 218.20688 59.16875 218.20688Q59.840626 218.20688 60.2625 217.64438Q60.7 217.06625 60.7 215.56625Q60.7 214.17563 60.2625 213.62875Q59.825 213.06625 59.16875 213.06625ZM59.184376 226.94125L67.0125 211.8475L68.43437 211.8475L60.6375 226.94125L59.184376 226.94125ZM65.37187 223.05063Q65.37187 221.50375 66.1375 220.44125Q66.91875 219.36313 68.3875 219.36313Q69.73125 219.36313 70.60625 220.33188Q71.49687 221.285 71.49687 223.16Q71.49687 224.9725 70.60625 225.95688Q69.71562 226.94125 68.40312 226.94125Q67.10625 226.94125 66.23125 225.9725Q65.37187 224.98813 65.37187 223.05063ZM68.43437 220.58188Q67.77812 220.58188 67.34062 221.14438Q66.90312 221.70688 66.90312 223.2225Q66.90312 224.5975 67.34062 225.16Q67.77812 225.7225 68.43437 225.7225Q69.10625 225.7225 69.52812 225.16Q69.96562 224.5975 69.96562 223.08188Q69.96562 221.70688 69.52812 221.14438Q69.09062 220.58188 68.43437 220.58188Z" fill-rule="nonzero"/><path fill="#000000" d="M42.903126 153.7775L41.153126 153.91812Q40.91875 152.88687 40.496876 152.41812Q39.778126 151.6525 38.73125 151.6525Q37.8875 151.6525 37.2625 152.12125Q36.434376 152.73062 35.95 153.9025Q35.465626 155.05875 35.45 157.19937Q36.090626 156.24625 36.996876 155.7775Q37.91875 155.30875 38.934376 155.30875Q40.684376 155.30875 41.91875 156.60562Q43.153126 157.88687 43.153126 159.93375Q43.153126 161.29312 42.575 162.44937Q41.996876 163.60562 40.98125 164.23062Q39.965626 164.84 38.66875 164.84Q36.48125 164.84 35.090626 163.23062Q33.7 161.60562 33.7 157.88687Q33.7 153.74625 35.23125 151.85562Q36.575 150.215 38.840626 150.215Q40.528126 150.215 41.60625 151.16812Q42.684376 152.10562 42.903126 153.7775ZM35.73125 159.94937Q35.73125 160.85562 36.10625 161.68375Q36.496876 162.51187 37.184376 162.94937Q37.8875 163.38687 38.6375 163.38687Q39.7625 163.38687 40.559376 162.49625Q41.35625 161.59 41.35625 160.04312Q41.35625 158.55875 40.559376 157.715Q39.778126 156.85562 38.575 156.85562Q37.3875 156.85562 36.559376 157.715Q35.73125 158.55875 35.73125 159.94937ZM44.778126 157.5275Q44.778126 154.99625 45.29375 153.44937Q45.825 151.88687 46.85625 151.05875Q47.8875 150.215 49.45 150.215Q50.60625 150.215 51.465626 150.68375Q52.340626 151.13687 52.903126 152.01187Q53.465626 152.88687 53.79375 154.1525Q54.121876 155.4025 54.121876 157.5275Q54.121876 160.04312 53.590626 161.59Q53.075 163.13687 52.04375 163.99625Q51.028126 164.84 49.45 164.84Q47.371876 164.84 46.2 163.35562Q44.778126 161.55875 44.778126 157.5275ZM46.590626 157.5275Q46.590626 161.05875 47.403126 162.23062Q48.23125 163.38687 49.45 163.38687Q50.653126 163.38687 51.48125 162.215Q52.309376 161.04312 52.309376 157.5275Q52.309376 153.99625 51.48125 152.84Q50.653126 151.66812 49.434376 151.66812Q48.215626 151.66812 47.496876 152.69937Q46.590626 153.99625 46.590626 157.5275ZM56.10625 153.715Q56.10625 152.18375 56.871876 151.10562Q57.653126 150.0275 59.121876 150.0275Q60.465626 150.0275 61.340626 150.99625Q62.23125 151.94937 62.23125 153.82437Q62.23125 155.63687 61.340626 156.62125Q60.45 157.59 59.1375 157.59Q57.840626 157.59 56.965626 156.63687Q56.10625 155.66812 56.10625 153.715ZM59.16875 151.24625Q58.5125 151.24625 58.075 151.80875Q57.653126 152.37125 57.653126 153.88687Q57.653126 155.26187 58.090626 155.82437Q58.528126 156.38687 59.16875 156.38687Q59.840626 156.38687 60.2625 155.82437Q60.7 155.24625 60.7 153.74625Q60.7 152.35562 60.2625 151.80875Q59.825 151.24625 59.16875 151.24625ZM59.184376 165.12125L67.0125 150.0275L68.43437 150.0275L60.6375 165.12125L59.184376 165.12125ZM65.37187 161.23062Q65.37187 159.68375 66.1375 158.62125Q66.91875 157.54312 68.3875 157.54312Q69.73125 157.54312 70.60625 158.51187Q71.49687 159.465 71.49687 161.34Q71.49687 163.1525 70.60625 164.13687Q69.71562 165.12125 68.40312 165.12125Q67.10625 165.12125 66.23125 164.1525Q65.37187 163.16812 65.37187 161.23062ZM68.43437 158.76187Q67.77812 158.76187 67.34062 159.32437Q66.90312 159.88687 66.90312 161.4025Q66.90312 162.7775 67.34062 163.34Q67.77812 163.9025 68.43437 163.9025Q69.10625 163.9025 69.52812 163.34Q69.96562 162.7775 69.96562 161.26187Q69.96562 159.88687 69.52812 159.32437Q69.09062 158.76187 68.43437 158.76187Z" fill-rule="nonzero"/><path fill="#000000" d="M36.48125 95.00437Q35.3875 94.59812 34.85625 93.86375Q34.340626 93.11375 34.340626 92.0825Q34.340626 90.52 35.465626 89.4575Q36.590626 88.395 38.45 88.395Q40.325 88.395 41.465626 89.48875Q42.60625 90.56687 42.60625 92.12937Q42.60625 93.12937 42.075 93.86375Q41.559376 94.59812 40.496876 95.00437Q41.825 95.44187 42.5125 96.395Q43.2 97.34812 43.2 98.67625Q43.2 100.52 41.8875 101.77Q40.590626 103.02 38.48125 103.02Q36.35625 103.02 35.059376 101.77Q33.7625 100.50437 33.7625 98.62937Q33.7625 97.23875 34.465626 96.30125Q35.184376 95.34812 36.48125 95.00437ZM36.1375 92.02Q36.1375 93.03562 36.79375 93.69187Q37.45 94.3325 38.48125 94.3325Q39.496876 94.3325 40.153126 93.69187Q40.809376 93.05125 40.809376 92.12937Q40.809376 91.16062 40.1375 90.50437Q39.465626 89.8325 38.465626 89.8325Q37.465626 89.8325 36.79375 90.48875Q36.1375 91.12937 36.1375 92.02ZM35.575 98.645Q35.575 99.395 35.91875 100.09812Q36.278126 100.80125 36.98125 101.19187Q37.684376 101.56687 38.496876 101.56687Q39.7625 101.56687 40.575 100.75437Q41.403126 99.94187 41.403126 98.69187Q41.403126 97.42625 40.559376 96.59812Q39.715626 95.77 38.434376 95.77Q37.2 95.77 36.3875 96.59812Q35.575 97.41062 35.575 98.645ZM44.778126 95.7075Q44.778126 93.17625 45.29375 91.62937Q45.825 90.06687 46.85625 89.23875Q47.8875 88.395 49.45 88.395Q50.60625 88.395 51.465626 88.86375Q52.340626 89.31687 52.903126 90.19187Q53.465626 91.06687 53.79375 92.3325Q54.121876 93.5825 54.121876 95.7075Q54.121876 98.22312 53.590626 99.77Q53.075 101.31687 52.04375 102.17625Q51.028126 103.02 49.45 103.02Q47.371876 103.02 46.2 101.53562Q44.778126 99.73875 44.778126 95.7075ZM46.590626 95.7075Q46.590626 99.23875 47.403126 100.41062Q48.23125 101.56687 49.45 101.56687Q50.653126 101.56687 51.48125 100.395Q52.309376 99.22312 52.309376 95.7075Q52.309376 92.17625 51.48125 91.02Q50.653126 89.84812 49.434376 89.84812Q48.215626 89.84812 47.496876 90.87937Q46.590626 92.17625 46.590626 95.7075ZM56.10625 91.895Q56.10625 90.36375 56.871876 89.28562Q57.653126 88.2075 59.121876 88.2075Q60.465626 88.2075 61.340626 89.17625Q62.23125 90.12937 62.23125 92.00437Q62.23125 93.81687 61.340626 94.80125Q60.45 95.77 59.1375 95.77Q57.840626 95.77 56.965626 94.81687Q56.10625 93.84812 56.10625 91.895ZM59.16875 89.42625Q58.5125 89.42625 58.075 89.98875Q57.653126 90.55125 57.653126 92.06687Q57.653126 93.44187 58.090626 94.00437Q58.528126 94.56687 59.16875 94.56687Q59.840626 94.56687 60.2625 94.00437Q60.7 93.42625 60.7 91.92625Q60.7 90.53562 60.2625 89.98875Q59.825 89.42625 59.16875 89.42625ZM59.184376 103.30125L67.0125 88.2075L68.43437 88.2075L60.6375 103.30125L59.184376 103.30125ZM65.37187 99.41062Q65.37187 97.86375 66.1375 96.80125Q66.91875 95.72312 68.3875 95.72312Q69.73125 95.72312 70.60625 96.69187Q71.49687 97.645 71.49687 99.52Q71.49687 101.3325 70.60625 102.31687Q69.71562 103.30125 68.40312 103.30125Q67.10625 103.30125 66.23125 102.3325Q65.37187 101.34812 65.37187 99.41062ZM68.43437 96.94187Q67.77812 96.94187 67.34062 97.50437Q66.90312 98.06687 66.90312 99.5825Q66.90312 100.9575 67.34062 101.52Q67.77812 102.0825 68.43437 102.0825Q69.10625 102.0825 69.52812 101.52Q69.96562 100.9575 69.96562 99.44187Q69.96562 98.06687 69.52812 97.50437Q69.09062 96.94187 68.43437 96.94187Z" fill-rule="nonzero"/><path fill="#000000" d="M29.403126 40.95L27.6375 40.95L27.6375 29.746876Q27.0125 30.35625 25.98125 30.965626Q24.95 31.559376 24.121876 31.871876L24.121876 30.16875Q25.60625 29.48125 26.7 28.496876Q27.809376 27.496876 28.2625 26.575L29.403126 26.575L29.403126 40.95ZM33.778126 33.8875Q33.778126 31.35625 34.29375 29.809376Q34.825 28.246876 35.85625 27.41875Q36.8875 26.575 38.45 26.575Q39.60625 26.575 40.465626 27.04375Q41.340626 27.496876 41.903126 28.371876Q42.465626 29.246876 42.79375 30.5125Q43.121876 31.7625 43.121876 33.8875Q43.121876 36.403126 42.590626 37.95Q42.075 39.496876 41.04375 40.35625Q40.028126 41.2 38.45 41.2Q36.371876 41.2 35.2 39.715626Q33.778126 37.91875 33.778126 33.8875ZM35.590626 33.8875Q35.590626 37.41875 36.403126 38.590626Q37.23125 39.746876 38.45 39.746876Q39.653126 39.746876 40.48125 38.575Q41.309376 37.403126 41.309376 33.8875Q41.309376 30.35625 40.48125 29.2Q39.653126 28.028126 38.434376 28.028126Q37.215626 28.028126 36.496876 29.059376Q35.590626 30.35625 35.590626 33.8875ZM44.778126 33.8875Q44.778126 31.35625 45.29375 29.809376Q45.825 28.246876 46.85625 27.41875Q47.8875 26.575 49.45 26.575Q50.60625 26.575 51.465626 27.04375Q52.340626 27.496876 52.903126 28.371876Q53.465626 29.246876 53.79375 30.5125Q54.121876 31.7625 54.121876 33.8875Q54.121876 36.403126 53.590626 37.95Q53.075 39.496876 52.04375 40.35625Q51.028126 41.2 49.45 41.2Q47.371876 41.2 46.2 39.715626Q44.778126 37.91875 44.778126 33.8875ZM46.590626 33.8875Q46.590626 37.41875 47.403126 38.590626Q48.23125 39.746876 49.45 39.746876Q50.653126 39.746876 51.48125 38.575Q52.309376 37.403126 52.309376 33.8875Q52.309376 30.35625 51.48125 29.2Q50.653126 28.028126 49.434376 28.028126Q48.215626 28.028126 47.496876 29.059376Q46.590626 30.35625 46.590626 33.8875ZM56.10625 30.075Q56.10625 28.54375 56.871876 27.465626Q57.653126 26.3875 59.121876 26.3875Q60.465626 26.3875 61.340626 27.35625Q62.23125 28.309376 62.23125 30.184376Q62.23125 31.996876 61.340626 32.98125Q60.45 33.95 59.1375 33.95Q57.840626 33.95 56.965626 32.996876Q56.10625 32.028126 56.10625 30.075ZM59.16875 27.60625Q58.5125 27.60625 58.075 28.16875Q57.653126 28.73125 57.653126 30.246876Q57.653126 31.621876 58.090626 32.184376Q58.528126 32.746876 59.16875 32.746876Q59.840626 32.746876 60.2625 32.184376Q60.7 31.60625 60.7 30.10625Q60.7 28.715626 60.2625 28.16875Q59.825 27.60625 59.16875 27.60625ZM59.184376 41.48125L67.0125 26.3875L68.43437 26.3875L60.6375 41.48125L59.184376 41.48125ZM65.37187 37.590626Q65.37187 36.04375 66.1375 34.98125Q66.91875 33.903126 68.3875 33.903126Q69.73125 33.903126 70.60625 34.871876Q71.49687 35.825 71.49687 37.7Q71.49687 39.5125 70.60625 40.496876Q69.71562 41.48125 68.40312 41.48125Q67.10625 41.48125 66.23125 40.5125Q65.37187 39.528126 65.37187 37.590626ZM68.43437 35.121876Q67.77812 35.121876 67.34062 35.684376Q66.90312 36.246876 66.90312 37.7625Q66.90312 39.1375 67.34062 39.7Q67.77812 40.2625 68.43437 40.2625Q69.10625 40.2625 69.52812 39.7Q69.96562 39.1375 69.96562 37.621876Q69.96562 36.246876 69.52812 35.684376Q69.09062 35.121876 68.43437 35.121876Z" fill-rule="nonzero"/><path fill="#000000" d="M131.84189 411.05L138.43564 393.8625L140.88876 393.8625L147.92001 411.05L145.32626 411.05L143.32626 405.84686L136.13876 405.84686L134.24814 411.05L131.84189 411.05ZM136.79501 403.9875L142.62314 403.9875L140.82626 399.2375Q140.01376 397.0656 139.60751 395.675Q139.27939 397.33124 138.68564 398.95624L136.79501 403.9875ZM149.40439 411.05L149.40439 393.8625L151.51376 393.8625L151.51376 411.05L149.40439 411.05ZM154.07626 412.08124L156.12314 412.39374Q156.24814 413.33124 156.84189 413.76874Q157.62314 414.3625 158.98251 414.3625Q160.45126 414.3625 161.24814 413.76874Q162.04501 413.1906 162.32626 412.1281Q162.48251 411.4875 162.46689 409.425Q161.09189 411.05 159.02939 411.05Q156.46689 411.05 155.06064 409.20624Q153.65439 407.34686 153.65439 404.7531Q153.65439 402.97186 154.29501 401.47186Q154.93564 399.95624 156.15439 399.14374Q157.38876 398.3156 159.04501 398.3156Q161.24814 398.3156 162.67001 400.09686L162.67001 398.59686L164.62314 398.59686L164.62314 409.3625Q164.62314 412.26874 164.02939 413.47186Q163.43564 414.6906 162.15439 415.39374Q160.87314 416.09686 158.99814 416.09686Q156.76376 416.09686 155.38876 415.09686Q154.02939 414.09686 154.07626 412.08124ZM155.81064 404.59686Q155.81064 407.05 156.77939 408.175Q157.76376 409.3 159.23251 409.3Q160.68564 409.3 161.67001 408.1906Q162.65439 407.0656 162.65439 404.675Q162.65439 402.39374 161.63876 401.2375Q160.62314 400.0656 159.18564 400.0656Q157.77939 400.0656 156.79501 401.20624Q155.81064 402.34686 155.81064 404.59686ZM166.67001 404.83124Q166.67001 401.3625 168.59189 399.70624Q170.20126 398.3156 172.51376 398.3156Q175.07626 398.3156 176.70126 400.0031Q178.32626 401.6906 178.32626 404.64374Q178.32626 407.05 177.60751 408.425Q176.88876 409.8 175.51376 410.5656Q174.13876 411.33124 172.51376 411.33124Q169.88876 411.33124 168.27939 409.65936Q166.67001 407.97186 166.67001 404.83124ZM168.84189 404.83124Q168.84189 407.22186 169.87314 408.40936Q170.92001 409.59686 172.51376 409.59686Q174.07626 409.59686 175.12314 408.40936Q176.17001 407.20624 176.17001 404.7531Q176.17001 402.4406 175.10751 401.2531Q174.06064 400.0656 172.51376 400.0656Q170.92001 400.0656 169.87314 401.2531Q168.84189 402.4406 168.84189 404.83124ZM180.43564 411.05L180.43564 398.59686L182.32626 398.59686L182.32626 400.4875Q183.06064 399.15936 183.67001 398.7375Q184.29501 398.3156 185.02939 398.3156Q186.09189 398.3156 187.20126 399.0031L186.46689 400.95624Q185.70126 400.5031 184.92001 400.5031Q184.23251 400.5031 183.67001 400.925Q183.12314 401.33124 182.88876 402.0656Q182.54501 403.1906 182.54501 404.53436L182.54501 411.05L180.43564 411.05ZM188.46689 396.3L188.46689 393.8625L190.57626 393.8625L190.57626 396.3L188.46689 396.3ZM188.46689 411.05L188.46689 398.59686L190.57626 398.59686L190.57626 411.05L188.46689 411.05ZM198.06064 409.15936L198.37314 411.01874Q197.48251 411.22186 196.77939 411.22186Q195.62314 411.22186 194.98251 410.8625Q194.35751 410.4875 194.09189 409.89374Q193.84189 409.3 193.84189 407.40936L193.84189 400.2375L192.29501 400.2375L192.29501 398.59686L193.84189 398.59686L193.84189 395.51874L195.93564 394.2531L195.93564 398.59686L198.06064 398.59686L198.06064 400.2375L195.93564 400.2375L195.93564 407.51874Q195.93564 408.425 196.04501 408.6906Q196.17001 408.9406 196.42001 409.09686Q196.67001 409.2375 197.13876 409.2375Q197.48251 409.2375 198.06064 409.15936ZM200.45126 411.05L200.45126 393.8625L202.56064 393.8625L202.56064 400.03436Q204.04501 398.3156 206.29501 398.3156Q207.67001 398.3156 208.68564 398.8625Q209.71689 399.40936 210.15439 400.3781Q210.59189 401.33124 210.59189 403.15936L210.59189 411.05L208.48251 411.05L208.48251 403.15936Q208.48251 401.58124 207.79501 400.8625Q207.10751 400.14374 205.85751 400.14374Q204.92001 400.14374 204.09189 400.6281Q203.26376 401.1125 202.90439 401.9406Q202.56064 402.76874 202.56064 404.2375L202.56064 411.05L200.45126 411.05ZM213.45126 411.05L213.45126 398.59686L215.34189 398.59686L215.34189 400.34686Q215.93564 399.4406 216.90439 398.8781Q217.87314 398.3156 219.12314 398.3156Q220.49814 398.3156 221.37314 398.89374Q222.26376 399.47186 222.63876 400.5031Q224.10751 398.3156 226.48251 398.3156Q228.32626 398.3156 229.32626 399.34686Q230.32626 400.3781 230.32626 402.5031L230.32626 411.05L228.21689 411.05L228.21689 403.20624Q228.21689 401.9406 228.01376 401.39374Q227.81064 400.83124 227.26376 400.4875Q226.73251 400.14374 226.01376 400.14374Q224.70126 400.14374 223.82626 401.01874Q222.96689 401.89374 222.96689 403.8156L222.96689 411.05L220.85751 411.05L220.85751 402.95624Q220.85751 401.55 220.34189 400.84686Q219.82626 400.14374 218.65439 400.14374Q217.76376 400.14374 216.99814 400.6125Q216.24814 401.08124 215.90439 401.9875Q215.56064 402.89374 215.56064 404.59686L215.56064 411.05L213.45126 411.05ZM233.46689 396.3L233.46689 393.8625L235.57626 393.8625L235.57626 396.3L233.46689 396.3ZM233.46689 411.05L233.46689 398.59686L235.57626 398.59686L235.57626 411.05L233.46689 411.05ZM246.57626 406.4875L248.65439 406.7531Q248.31064 408.90936 246.90439 410.1281Q245.51376 411.33124 243.46689 411.33124Q240.92001 411.33124 239.35751 409.65936Q237.81064 407.9875 237.81064 404.8781Q237.81064 402.8625 238.48251 401.34686Q239.15439 399.83124 240.51376 399.08124Q241.87314 398.3156 243.48251 398.3156Q245.51376 398.3156 246.79501 399.34686Q248.09189 400.3781 248.45126 402.2531L246.40439 402.58124Q246.10751 401.3156 245.35751 400.6906Q244.62314 400.05 243.56064 400.05Q241.96689 400.05 240.96689 401.20624Q239.98251 402.34686 239.98251 404.8156Q239.98251 407.3156 240.93564 408.45624Q241.90439 409.59686 243.45126 409.59686Q244.68564 409.59686 245.51376 408.83124Q246.35751 408.0656 246.57626 406.4875Z" fill-rule="nonzero"/><path fill="#000000" d="M337.60938 405.01874L339.89062 405.59686Q339.17188 408.39374 337.3125 409.8781Q335.45312 411.34686 332.76562 411.34686Q330.0 411.34686 328.25 410.22186Q326.51562 409.08124 325.60938 406.9406Q324.70312 404.78436 324.70312 402.33124Q324.70312 399.64374 325.71875 397.64374Q326.75 395.64374 328.64062 394.6125Q330.53125 393.58124 332.8125 393.58124Q335.39062 393.58124 337.14062 394.89374Q338.90625 396.20624 339.59375 398.58124L337.35938 399.1125Q336.75 397.2375 335.60938 396.3781Q334.48438 395.51874 332.76562 395.51874Q330.78125 395.51874 329.45312 396.47186Q328.125 397.425 327.57812 399.01874Q327.04688 400.6125 327.04688 402.3156Q327.04688 404.5031 327.67188 406.14374Q328.3125 407.78436 329.65625 408.59686Q331.01562 409.39374 332.57812 409.39374Q334.5 409.39374 335.8125 408.3Q337.14062 407.1906 337.60938 405.01874ZM341.29688 404.83124Q341.29688 401.3625 343.21875 399.70624Q344.82812 398.3156 347.14062 398.3156Q349.70312 398.3156 351.32812 400.0031Q352.95312 401.6906 352.95312 404.64374Q352.95312 407.05 352.23438 408.425Q351.51562 409.8 350.14062 410.5656Q348.76562 411.33124 347.14062 411.33124Q344.51562 411.33124 342.90625 409.65936Q341.29688 407.97186 341.29688 404.83124ZM343.46875 404.83124Q343.46875 407.22186 344.5 408.40936Q345.54688 409.59686 347.14062 409.59686Q348.70312 409.59686 349.75 408.40936Q350.79688 407.20624 350.79688 404.7531Q350.79688 402.4406 349.73438 401.2531Q348.6875 400.0656 347.14062 400.0656Q345.54688 400.0656 344.5 401.2531Q343.46875 402.4406 343.46875 404.83124ZM355.07812 411.05L355.07812 398.59686L356.98438 398.59686L356.98438 400.3781Q358.35938 398.3156 360.9375 398.3156Q362.0625 398.3156 363.0 398.72186Q363.95312 399.1281 364.42188 399.78436Q364.89062 400.4406 365.07812 401.34686Q365.20312 401.925 365.20312 403.39374L365.20312 411.05L363.09375 411.05L363.09375 403.47186Q363.09375 402.1906 362.84375 401.55Q362.59375 400.90936 361.96875 400.53436Q361.34375 400.14374 360.5 400.14374Q359.15625 400.14374 358.17188 401.0031Q357.1875 401.8625 357.1875 404.2531L357.1875 411.05L355.07812 411.05ZM367.23438 407.33124L369.32812 407.0031Q369.5 408.2531 370.29688 408.925Q371.10938 409.59686 372.54688 409.59686Q374.0 409.59686 374.70312 409.0031Q375.40625 408.40936 375.40625 407.6125Q375.40625 406.89374 374.78125 406.4875Q374.35938 406.20624 372.625 405.76874Q370.3125 405.1906 369.40625 404.76874Q368.51562 404.33124 368.04688 403.58124Q367.59375 402.8156 367.59375 401.90936Q367.59375 401.08124 367.96875 400.3781Q368.35938 399.65936 369.01562 399.1906Q369.5 398.83124 370.34375 398.58124Q371.20312 398.3156 372.17188 398.3156Q373.64062 398.3156 374.75 398.7375Q375.85938 399.15936 376.375 399.89374Q376.90625 400.6125 377.10938 401.8156L375.04688 402.09686Q374.90625 401.1281 374.23438 400.59686Q373.5625 400.05 372.32812 400.05Q370.875 400.05 370.25 400.53436Q369.625 401.01874 369.625 401.65936Q369.625 402.0656 369.89062 402.39374Q370.14062 402.7375 370.70312 402.95624Q371.01562 403.08124 372.5625 403.5031Q374.79688 404.09686 375.67188 404.4875Q376.5625 404.8625 377.0625 405.59686Q377.57812 406.3156 377.57812 407.39374Q377.57812 408.4406 376.95312 409.3781Q376.34375 410.3156 375.1875 410.83124Q374.03125 411.33124 372.5625 411.33124Q370.14062 411.33124 368.85938 410.33124Q367.59375 409.3156 367.23438 407.33124ZM384.6875 409.15936L385.0 411.01874Q384.10938 411.22186 383.40625 411.22186Q382.25 411.22186 381.60938 410.8625Q380.98438 410.4875 380.71875 409.89374Q380.46875 409.3 380.46875 407.40936L380.46875 400.2375L378.92188 400.2375L378.92188 398.59686L380.46875 398.59686L380.46875 395.51874L382.5625 394.2531L382.5625 398.59686L384.6875 398.59686L384.6875 400.2375L382.5625 400.2375L382.5625 407.51874Q382.5625 408.425 382.67188 408.6906Q382.79688 408.9406 383.04688 409.09686Q383.29688 409.2375 383.76562 409.2375Q384.10938 409.2375 384.6875 409.15936ZM395.20312 409.51874Q394.03125 410.5031 392.9375 410.925Q391.85938 411.33124 390.625 411.33124Q388.57812 411.33124 387.46875 410.33124Q386.375 409.33124 386.375 407.76874Q386.375 406.84686 386.78125 406.09686Q387.20312 405.34686 387.875 404.89374Q388.54688 404.425 389.39062 404.1906Q390.01562 404.03436 391.26562 403.8781Q393.82812 403.5656 395.03125 403.14374Q395.04688 402.72186 395.04688 402.59686Q395.04688 401.3156 394.4375 400.78436Q393.64062 400.0656 392.04688 400.0656Q390.54688 400.0656 389.84375 400.59686Q389.14062 401.1125 388.79688 402.4406L386.73438 402.15936Q387.01562 400.83124 387.65625 400.01874Q388.29688 399.20624 389.51562 398.76874Q390.73438 398.3156 392.34375 398.3156Q393.9375 398.3156 394.9375 398.6906Q395.9375 399.0656 396.40625 399.64374Q396.875 400.20624 397.0625 401.08124Q397.15625 401.6125 397.15625 403.01874L397.15625 405.83124Q397.15625 408.76874 397.29688 409.55Q397.4375 410.33124 397.82812 411.05L395.625 411.05Q395.29688 410.39374 395.20312 409.51874ZM395.03125 404.8Q393.875 405.26874 391.57812 405.59686Q390.28125 405.78436 389.73438 406.01874Q389.20312 406.2531 388.90625 406.70624Q388.625 407.15936 388.625 407.70624Q388.625 408.55 389.25 409.1125Q389.89062 409.675 391.125 409.675Q392.34375 409.675 393.29688 409.14374Q394.25 408.6125 394.6875 407.6906Q395.03125 406.97186 395.03125 405.58124L395.03125 404.8ZM400.07812 411.05L400.07812 398.59686L401.98438 398.59686L401.98438 400.3781Q403.35938 398.3156 405.9375 398.3156Q407.0625 398.3156 408.0 398.72186Q408.95312 399.1281 409.42188 399.78436Q409.89062 400.4406 410.07812 401.34686Q410.20312 401.925 410.20312 403.39374L410.20312 411.05L408.09375 411.05L408.09375 403.47186Q408.09375 402.1906 407.84375 401.55Q407.59375 400.90936 406.96875 400.53436Q406.34375 400.14374 405.5 400.14374Q404.15625 400.14374 403.17188 401.0031Q402.1875 401.8625 402.1875 404.2531L402.1875 411.05L400.07812 411.05ZM417.6875 409.15936L418.0 411.01874Q417.10938 411.22186 416.40625 411.22186Q415.25 411.22186 414.60938 410.8625Q413.98438 410.4875 413.71875 409.89374Q413.46875 409.3 413.46875 407.40936L413.46875 400.2375L411.92188 400.2375L411.92188 398.59686L413.46875 398.59686L413.46875 395.51874L415.5625 394.2531L415.5625 398.59686L417.6875 398.59686L417.6875 400.2375L415.5625 400.2375L415.5625 407.51874Q415.5625 408.425 415.67188 408.6906Q415.79688 408.9406 416.04688 409.09686Q416.29688 409.2375 416.76562 409.2375Q417.10938 409.2375 417.6875 409.15936Z" fill-rule="nonzero"/><path fill="#000000" d="M496.5956 411.05L496.5956 393.8625L508.18936 393.8625L508.18936 395.89374L498.87686 395.89374L498.87686 401.22186L506.93936 401.22186L506.93936 403.2375L498.87686 403.2375L498.87686 411.05L496.5956 411.05ZM510.42374 404.83124Q510.42374 401.3625 512.3456 399.70624Q513.95496 398.3156 516.26746 398.3156Q518.82996 398.3156 520.45496 400.0031Q522.07996 401.6906 522.07996 404.64374Q522.07996 407.05 521.3612 408.425Q520.64246 409.8 519.26746 410.5656Q517.89246 411.33124 516.26746 411.33124Q513.64246 411.33124 512.0331 409.65936Q510.42374 407.97186 510.42374 404.83124ZM512.5956 404.83124Q512.5956 407.22186 513.62683 408.40936Q514.6737 409.59686 516.26746 409.59686Q517.82996 409.59686 518.87683 408.40936Q519.9237 407.20624 519.9237 404.7531Q519.9237 402.4406 518.8612 401.2531Q517.81433 400.0656 516.26746 400.0656Q514.6737 400.0656 513.62683 401.2531Q512.5956 402.4406 512.5956 404.83124ZM524.18933 411.05L524.18933 398.59686L526.07996 398.59686L526.07996 400.4875Q526.81433 399.15936 527.4237 398.7375Q528.0487 398.3156 528.7831 398.3156Q529.8456 398.3156 530.95496 399.0031L530.2206 400.95624Q529.45496 400.5031 528.6737 400.5031Q527.9862 400.5031 527.4237 400.925Q526.87683 401.33124 526.64246 402.0656Q526.2987 403.1906 526.2987 404.53436L526.2987 411.05L524.18933 411.05ZM532.20496 411.05L532.20496 398.59686L534.0956 398.59686L534.0956 400.34686Q534.68933 399.4406 535.6581 398.8781Q536.62683 398.3156 537.87683 398.3156Q539.25183 398.3156 540.12683 398.89374Q541.01746 399.47186 541.39246 400.5031Q542.8612 398.3156 545.2362 398.3156Q547.07996 398.3156 548.07996 399.34686Q549.07996 400.3781 549.07996 402.5031L549.07996 411.05L546.9706 411.05L546.9706 403.20624Q546.9706 401.9406 546.76746 401.39374Q546.56433 400.83124 546.01746 400.4875Q545.4862 400.14374 544.76746 400.14374Q543.45496 400.14374 542.57996 401.01874Q541.7206 401.89374 541.7206 403.8156L541.7206 411.05L539.6112 411.05L539.6112 402.95624Q539.6112 401.55 539.0956 400.84686Q538.57996 400.14374 537.4081 400.14374Q536.51746 400.14374 535.75183 400.6125Q535.00183 401.08124 534.6581 401.9875Q534.31433 402.89374 534.31433 404.59686L534.31433 411.05L532.20496 411.05ZM560.32996 409.51874Q559.1581 410.5031 558.06433 410.925Q556.9862 411.33124 555.75183 411.33124Q553.70496 411.33124 552.5956 410.33124Q551.50183 409.33124 551.50183 407.76874Q551.50183 406.84686 551.9081 406.09686Q552.32996 405.34686 553.00183 404.89374Q553.6737 404.425 554.51746 404.1906Q555.14246 404.03436 556.39246 403.8781Q558.95496 403.5656 560.1581 403.14374Q560.1737 402.72186 560.1737 402.59686Q560.1737 401.3156 559.56433 400.78436Q558.76746 400.0656 557.1737 400.0656Q555.6737 400.0656 554.9706 400.59686Q554.26746 401.1125 553.9237 402.4406L551.8612 402.15936Q552.14246 400.83124 552.7831 400.01874Q553.4237 399.20624 554.64246 398.76874Q555.8612 398.3156 557.4706 398.3156Q559.06433 398.3156 560.06433 398.6906Q561.06433 399.0656 561.5331 399.64374Q562.00183 400.20624 562.18933 401.08124Q562.2831 401.6125 562.2831 403.01874L562.2831 405.83124Q562.2831 408.76874 562.4237 409.55Q562.56433 410.33124 562.95496 411.05L560.75183 411.05Q560.4237 410.39374 560.32996 409.51874ZM560.1581 404.8Q559.00183 405.26874 556.70496 405.59686Q555.4081 405.78436 554.8612 406.01874Q554.32996 406.2531 554.0331 406.70624Q553.75183 407.15936 553.75183 407.70624Q553.75183 408.55 554.37683 409.1125Q555.01746 409.675 556.25183 409.675Q557.4706 409.675 558.4237 409.14374Q559.37683 408.6125 559.81433 407.6906Q560.1581 406.97186 560.1581 405.58124L560.1581 404.8ZM569.81433 409.15936L570.12683 411.01874Q569.2362 411.22186 568.5331 411.22186Q567.37683 411.22186 566.7362 410.8625Q566.1112 410.4875 565.8456 409.89374Q565.5956 409.3 565.5956 407.40936L565.5956 400.2375L564.0487 400.2375L564.0487 398.59686L565.5956 398.59686L565.5956 395.51874L567.68933 394.2531L567.68933 398.59686L569.81433 398.59686L569.81433 400.2375L567.68933 400.2375L567.68933 407.51874Q567.68933 408.425 567.7987 408.6906Q567.9237 408.9406 568.1737 409.09686Q568.4237 409.2375 568.89246 409.2375Q569.2362 409.2375 569.81433 409.15936ZM576.81433 409.15936L577.12683 411.01874Q576.2362 411.22186 575.5331 411.22186Q574.37683 411.22186 573.7362 410.8625Q573.1112 410.4875 572.8456 409.89374Q572.5956 409.3 572.5956 407.40936L572.5956 400.2375L571.0487 400.2375L571.0487 398.59686L572.5956 398.59686L572.5956 395.51874L574.68933 394.2531L574.68933 398.59686L576.81433 398.59686L576.81433 400.2375L574.68933 400.2375L574.68933 407.51874Q574.68933 408.425 574.7987 408.6906Q574.9237 408.9406 575.1737 409.09686Q575.4237 409.2375 575.89246 409.2375Q576.2362 409.2375 576.81433 409.15936ZM579.2206 396.3L579.2206 393.8625L581.32996 393.8625L581.32996 396.3L579.2206 396.3ZM579.2206 411.05L579.2206 398.59686L581.32996 398.59686L581.32996 411.05L579.2206 411.05ZM584.20496 411.05L584.20496 398.59686L586.1112 398.59686L586.1112 400.3781Q587.4862 398.3156 590.06433 398.3156Q591.18933 398.3156 592.12683 398.72186Q593.07996 399.1281 593.5487 399.78436Q594.01746 400.4406 594.20496 401.34686Q594.32996 401.925 594.32996 403.39374L594.32996 411.05L592.2206 411.05L592.2206 403.47186Q592.2206 402.1906 591.9706 401.55Q591.7206 400.90936 591.0956 400.53436Q590.4706 400.14374 589.62683 400.14374Q588.2831 400.14374 587.2987 401.0031Q586.31433 401.8625 586.31433 404.2531L586.31433 411.05L584.20496 411.05ZM596.82996 412.08124L598.87683 412.39374Q599.00183 413.33124 599.5956 413.76874Q600.37683 414.3625 601.7362 414.3625Q603.20496 414.3625 604.00183 413.76874Q604.7987 413.1906 605.07996 412.1281Q605.2362 411.4875 605.2206 409.425Q603.8456 411.05 601.7831 411.05Q599.2206 411.05 597.81433 409.20624Q596.4081 407.34686 596.4081 404.7531Q596.4081 402.97186 597.0487 401.47186Q597.68933 399.95624 598.9081 399.14374Q600.14246 398.3156 601.7987 398.3156Q604.00183 398.3156 605.4237 400.09686L605.4237 398.59686L607.37683 398.59686L607.37683 409.3625Q607.37683 412.26874 606.7831 413.47186Q606.18933 414.6906 604.9081 415.39374Q603.62683 416.09686 601.75183 416.09686Q599.51746 416.09686 598.14246 415.09686Q596.7831 414.09686 596.82996 412.08124ZM598.56433 404.59686Q598.56433 407.05 599.5331 408.175Q600.51746 409.3 601.9862 409.3Q603.43933 409.3 604.4237 408.1906Q605.4081 407.0656 605.4081 404.675Q605.4081 402.39374 604.39246 401.2375Q603.37683 400.0656 601.93933 400.0656Q600.5331 400.0656 599.5487 401.20624Q598.56433 402.34686 598.56433 404.59686Z" fill-rule="nonzero"/></svg>